<?xml version="1.0" encoding="UTF-8"?>
<!DOCTYPE svg PUBLIC "-//W3C//DTD SVG 1.1//EN" "http://www.w3.org/Graphics/SVG/1.1/DTD/svg11.dtd">
<svg xmlns="http://www.w3.org/2000/svg" version="1.1" width="272px" height="256px" style="shape-rendering:geometricPrecision; text-rendering:geometricPrecision; image-rendering:optimizeQuality; fill-rule:evenodd; clip-rule:evenodd" xmlns:xlink="http://www.w3.org/1999/xlink">
<g><path style="opacity:0.01" fill="#f7b74d" d="M 134.5,9.5 C 135.251,8.42654 136.251,8.25988 137.5,9C 136.552,9.48278 135.552,9.64945 134.5,9.5 Z"/></g>
<g><path style="opacity:0.008" fill="#f6b84c" d="M 138.5,9.5 C 139.833,10.1667 139.833,10.1667 138.5,9.5 Z"/></g>
<g><path style="opacity:0.987" fill="#f8b84e" d="M 142.5,14.5 C 142.738,16.4044 143.738,17.7377 145.5,18.5C 145.66,20.153 146.326,21.4863 147.5,22.5C 150.249,28.3327 153.249,33.9994 156.5,39.5C 156.328,40.4916 156.662,41.1583 157.5,41.5C 158.71,46.251 160.71,50.5844 163.5,54.5C 165.793,61.7524 169.126,68.4191 173.5,74.5C 173.75,76.674 174.75,78.3406 176.5,79.5C 176.842,80.3382 177.508,80.6716 178.5,80.5C 180.838,82.0395 183.505,82.7062 186.5,82.5C 188.265,83.4614 190.265,83.7947 192.5,83.5C 196.919,84.9715 201.586,85.6382 206.5,85.5C 213.276,87.1348 220.276,88.1348 227.5,88.5C 229.265,89.4614 231.265,89.7947 233.5,89.5C 240.675,91.0501 247.675,93.3834 254.5,96.5C 255.714,99.1293 255.714,101.796 254.5,104.5C 253.662,104.842 253.328,105.508 253.5,106.5C 252.833,106.5 252.5,106.833 252.5,107.5C 251.833,107.5 251.5,107.833 251.5,108.5C 250.662,108.842 250.328,109.508 250.5,110.5C 249.833,110.5 249.5,110.833 249.5,111.5C 248.833,111.5 248.5,111.833 248.5,112.5C 247.833,112.5 247.5,112.833 247.5,113.5C 246.833,113.5 246.5,113.833 246.5,114.5C 245.833,114.5 245.5,114.833 245.5,115.5C 244.833,115.5 244.5,115.833 244.5,116.5C 243.833,116.5 243.5,116.833 243.5,117.5C 242.833,117.5 242.5,117.833 242.5,118.5C 241.833,118.5 241.5,118.833 241.5,119.5C 240.833,119.5 240.5,119.833 240.5,120.5C 239.833,120.5 239.5,120.833 239.5,121.5C 238.833,121.5 238.5,121.833 238.5,122.5C 237.833,122.5 237.5,122.833 237.5,123.5C 236.833,123.5 236.5,123.833 236.5,124.5C 235.833,124.5 235.5,124.833 235.5,125.5C 234.833,125.5 234.5,125.833 234.5,126.5C 233.833,126.5 233.5,126.833 233.5,127.5C 232.833,127.5 232.5,127.833 232.5,128.5C 231.833,128.5 231.5,128.833 231.5,129.5C 230.833,129.5 230.5,129.833 230.5,130.5C 227.891,131.443 225.891,133.11 224.5,135.5C 223.833,135.5 223.5,135.833 223.5,136.5C 222.833,136.5 222.5,136.833 222.5,137.5C 221.833,137.5 221.5,137.833 221.5,138.5C 220.833,138.5 220.5,138.833 220.5,139.5C 219.833,139.5 219.5,139.833 219.5,140.5C 218.833,140.5 218.5,140.833 218.5,141.5C 217.833,141.5 217.5,141.833 217.5,142.5C 216.833,142.5 216.5,142.833 216.5,143.5C 211.833,146.167 208.167,149.833 205.5,154.5C 204.833,154.5 204.5,154.833 204.5,155.5C 203.833,155.5 203.5,155.833 203.5,156.5C 202.662,156.842 202.328,157.508 202.5,158.5C 201.167,161.5 201.167,164.5 202.5,167.5C 202.547,174.111 203.547,180.444 205.5,186.5C 205.43,190.425 206.097,194.091 207.5,197.5C 208.925,208.145 210.259,218.812 211.5,229.5C 211.163,232.176 210.83,234.843 210.5,237.5C 209.027,238.74 207.36,239.74 205.5,240.5C 202.904,239.518 200.238,238.851 197.5,238.5C 196.791,237.596 195.791,237.263 194.5,237.5C 188.151,233.659 181.484,230.325 174.5,227.5C 174.027,226.094 173.027,225.427 171.5,225.5C 168.669,223.583 165.669,221.917 162.5,220.5C 159.669,218.583 156.669,216.917 153.5,215.5C 148.919,212.378 143.919,210.044 138.5,208.5C 135.833,205.833 133.167,205.833 130.5,208.5C 129.209,208.263 128.209,208.596 127.5,209.5C 126.508,209.328 125.842,209.662 125.5,210.5C 124.508,210.328 123.842,210.662 123.5,211.5C 122.508,211.328 121.842,211.662 121.5,212.5C 120.508,212.328 119.842,212.662 119.5,213.5C 118.508,213.328 117.842,213.662 117.5,214.5C 116.508,214.328 115.842,214.662 115.5,215.5C 114.508,215.328 113.842,215.662 113.5,216.5C 112.508,216.328 111.842,216.662 111.5,217.5C 110.508,217.328 109.842,217.662 109.5,218.5C 108.508,218.328 107.842,218.662 107.5,219.5C 106.508,219.328 105.842,219.662 105.5,220.5C 104.508,220.328 103.842,220.662 103.5,221.5C 102.833,221.5 102.5,221.833 102.5,222.5C 101.508,222.328 100.842,222.662 100.5,223.5C 99.5084,223.328 98.8417,223.662 98.5,224.5C 97.5084,224.328 96.8417,224.662 96.5,225.5C 95.5084,225.328 94.8417,225.662 94.5,226.5C 93.5084,226.328 92.8417,226.662 92.5,227.5C 91.5084,227.328 90.8417,227.662 90.5,228.5C 89.5084,228.328 88.8417,228.662 88.5,229.5C 87.5084,229.328 86.8417,229.662 86.5,230.5C 85.5084,230.328 84.8417,230.662 84.5,231.5C 83.5084,231.328 82.8417,231.662 82.5,232.5C 81.5084,232.328 80.8417,232.662 80.5,233.5C 79.5084,233.328 78.8417,233.662 78.5,234.5C 77.5084,234.328 76.8417,234.662 76.5,235.5C 74.4471,235.402 72.7804,236.069 71.5,237.5C 70.209,237.263 69.209,237.596 68.5,238.5C 65.5,238.5 62.5,238.5 59.5,238.5C 58.0486,235.195 57.3819,231.695 57.5,228C 58.3608,219.476 59.3608,210.976 60.5,202.5C 61.4511,201.081 61.7845,199.415 61.5,197.5C 64.6417,185.62 66.975,173.453 68.5,161C 68.3427,158.325 67.3427,156.159 65.5,154.5C 64.3995,153.395 63.7329,152.062 63.5,150.5C 59.2313,144.697 54.0646,139.031 48,133.5C 47.6012,133.728 47.4346,134.062 47.5,134.5C 38.9216,127.426 30.7549,119.76 23,111.5C 19.5352,107.405 16.7019,102.905 14.5,98C 15.8869,94.9498 18.2203,92.9498 21.5,92C 35.5136,88.7886 49.5136,86.2886 63.5,84.5C 71.0907,84.4149 78.424,83.4149 85.5,81.5C 90.2474,81.8643 94.0807,80.1977 97,76.5C 103.318,65.5317 108.818,54.1984 113.5,42.5C 114.338,42.1583 114.672,41.4916 114.5,40.5C 115.338,40.1583 115.672,39.4916 115.5,38.5C 116.338,38.1583 116.672,37.4916 116.5,36.5C 117.338,36.1583 117.672,35.4916 117.5,34.5C 118.338,34.1583 118.672,33.4916 118.5,32.5C 122.773,25.4725 127.44,18.6391 132.5,12C 136.42,10.11 139.754,10.9433 142.5,14.5 Z"/></g>
<g><path style="opacity:0.012" fill="#f7b74d" d="M 143.5,14.5 C 142.833,13.1667 142.833,13.1667 143.5,14.5 Z"/></g>
<g><path style="opacity:0.008" fill="#f6b74c" d="M 127.5,14.5 C 128.833,15.1667 128.833,15.1667 127.5,14.5 Z"/></g>
<g><path style="opacity:0.008" fill="#f7b74c" d="M 143.5,14.5 C 144.833,15.1667 144.833,15.1667 143.5,14.5 Z"/></g>
<g><path style="opacity:0.012" fill="#f7b74c" d="M 145.5,17.5 C 146.833,18.1667 146.833,18.1667 145.5,17.5 Z"/></g>
<g><path style="opacity:0.008" fill="#f6b74c" d="M 123.5,20.5 C 124.833,21.1667 124.833,21.1667 123.5,20.5 Z"/></g>
<g><path style="opacity:0.008" fill="#f7b74d" d="M 148.5,22.5 C 148.167,22.5 147.833,22.5 147.5,22.5C 147.833,19.8333 148.167,19.8333 148.5,22.5 Z"/></g>
<g><path style="opacity:0.012" fill="#f7b74d" d="M 148.5,22.5 C 149.833,23.1667 149.833,23.1667 148.5,22.5 Z"/></g>
<g><path style="opacity:0.012" fill="#f6b84c" d="M 118.5,29.5 C 119.833,30.1667 119.833,30.1667 118.5,29.5 Z"/></g>
<g><path style="opacity:0.012" fill="#f7b84d" d="M 118.5,32.5 C 117.833,31.1667 117.833,31.1667 118.5,32.5 Z"/></g>
<g><path style="opacity:0.012" fill="#f6b84c" d="M 117.5,34.5 C 116.833,33.1667 116.833,33.1667 117.5,34.5 Z"/></g>
<g><path style="opacity:0.012" fill="#f6b84c" d="M 116.5,36.5 C 115.833,35.1667 115.833,35.1667 116.5,36.5 Z"/></g>
<g><path style="opacity:0.012" fill="#f6b74c" d="M 115.5,38.5 C 114.833,37.1667 114.833,37.1667 115.5,38.5 Z"/></g>
<g><path style="opacity:0.008" fill="#f7b74c" d="M 156.5,39.5 C 156.369,38.7611 156.536,38.0944 157,37.5C 157.692,38.4368 157.525,39.1034 156.5,39.5 Z"/></g>
<g><path style="opacity:0.012" fill="#f7b84d" d="M 114.5,40.5 C 113.833,39.1667 113.833,39.1667 114.5,40.5 Z"/></g>
<g><path style="opacity:0.012" fill="#f7b74d" d="M 157.5,40.5 C 158.833,41.1667 158.833,41.1667 157.5,40.5 Z"/></g>
<g><path style="opacity:0.012" fill="#f7b74d" d="M 113.5,42.5 C 112.833,41.1667 112.833,41.1667 113.5,42.5 Z"/></g>
<g><path style="opacity:0.012" fill="#f7b74d" d="M 158.5,42.5 C 159.833,43.1667 159.833,43.1667 158.5,42.5 Z"/></g>
<g><path style="opacity:0.012" fill="#f7b84d" d="M 111.5,43.5 C 112.833,44.1667 112.833,44.1667 111.5,43.5 Z"/></g>
<g><path style="opacity:0.012" fill="#f7b84d" d="M 110.5,45.5 C 111.833,46.1667 111.833,46.1667 110.5,45.5 Z"/></g>
<g><path style="opacity:0.008" fill="#f7b74e" d="M 163.5,54.5 C 163.369,53.7611 163.536,53.0944 164,52.5C 164.692,53.4368 164.525,54.1034 163.5,54.5 Z"/></g>
<g><path style="opacity:0.012" fill="#f6b84c" d="M 164.5,55.5 C 165.833,56.1667 165.833,56.1667 164.5,55.5 Z"/></g>
<g><path style="opacity:0.012" fill="#f6b84c" d="M 165.5,57.5 C 166.833,58.1667 166.833,58.1667 165.5,57.5 Z"/></g>
<g><path style="opacity:0.012" fill="#f7b74d" d="M 173.5,73.5 C 174.833,74.1667 174.833,74.1667 173.5,73.5 Z"/></g>
<g><path style="opacity:0.008" fill="#f7b74d" d="M 178.5,79.5 C 177.833,79.5 177.167,79.5 176.5,79.5C 176.786,77.0673 177.452,77.0673 178.5,79.5 Z"/></g>
<g><path style="opacity:0.009" fill="#f7b74d" d="M 86.5,80.5 C 87.2506,79.4265 88.2506,79.2599 89.5,80C 88.552,80.4828 87.552,80.6495 86.5,80.5 Z"/></g>
<g><path style="opacity:0.008" fill="#f7b74d" d="M 178.5,80.5 C 178.5,80.1667 178.5,79.8333 178.5,79.5C 182.5,79.8333 182.5,80.1667 178.5,80.5 Z"/></g>
<g><path style="opacity:0.009" fill="#f7b74d" d="M 85.5,81.5 C 83.8008,81.6602 82.1341,81.4935 80.5,81C 82.3869,80.2204 84.0536,80.3871 85.5,81.5 Z"/></g>
<g><path style="opacity:0.009" fill="#f7b74e" d="M 182.5,81.5 C 183.251,80.4265 184.251,80.2599 185.5,81C 184.552,81.4828 183.552,81.6495 182.5,81.5 Z"/></g>
<g><path style="opacity:0.01" fill="#f7b74e" d="M 73.5,82.5 C 74.9464,81.3871 76.6131,81.2204 78.5,82C 76.8659,82.4935 75.1992,82.6602 73.5,82.5 Z"/></g>
<g><path style="opacity:0.009" fill="#f7b74d" d="M 186.5,82.5 C 187.946,81.3871 189.613,81.2204 191.5,82C 189.866,82.4935 188.199,82.6602 186.5,82.5 Z"/></g>
<g><path style="opacity:0.01" fill="#f7b74d" d="M 65.5,83.5 C 67.2884,82.3775 69.2884,82.2109 71.5,83C 69.5273,83.4955 67.5273,83.6621 65.5,83.5 Z"/></g>
<g><path style="opacity:0.009" fill="#f7b74d" d="M 192.5,83.5 C 193.946,82.3871 195.613,82.2204 197.5,83C 195.866,83.4935 194.199,83.6602 192.5,83.5 Z"/></g>
<g><path style="opacity:0.009" fill="#f7b74d" d="M 63.5,84.5 C 61.4727,84.6621 59.4727,84.4955 57.5,84C 59.7116,83.2109 61.7116,83.3775 63.5,84.5 Z"/></g>
<g><path style="opacity:0.009" fill="#f7b84d" d="M 199.5,84.5 C 200.946,83.3871 202.613,83.2204 204.5,84C 202.866,84.4935 201.199,84.6602 199.5,84.5 Z"/></g>
<g><path style="opacity:0.008" fill="#f8b74d" d="M 48.5,85.5 C 50.2884,84.3775 52.2884,84.2109 54.5,85C 52.5273,85.4955 50.5273,85.6621 48.5,85.5 Z"/></g>
<g><path style="opacity:0.008" fill="#f7b74d" d="M 206.5,85.5 C 208.288,84.3775 210.288,84.2109 212.5,85C 210.527,85.4955 208.527,85.6621 206.5,85.5 Z"/></g>
<g><path style="opacity:0.009" fill="#f7b74d" d="M 41.5,86.5 C 42.9464,85.3871 44.6131,85.2204 46.5,86C 44.8659,86.4935 43.1992,86.6602 41.5,86.5 Z"/></g>
<g><path style="opacity:0.01" fill="#f7b74d" d="M 214.5,86.5 C 215.946,85.3871 217.613,85.2204 219.5,86C 217.866,86.4935 216.199,86.6602 214.5,86.5 Z"/></g>
<g><path style="opacity:0.01" fill="#f7b74d" d="M 35.5,87.5 C 36.6009,86.4017 37.9343,86.235 39.5,87C 38.2068,87.49 36.8734,87.6567 35.5,87.5 Z"/></g>
<g><path style="opacity:0.01" fill="#f7b74d" d="M 221.5,87.5 C 222.946,86.3871 224.613,86.2204 226.5,87C 224.866,87.4935 223.199,87.6602 221.5,87.5 Z"/></g>
<g><path style="opacity:0.01" fill="#f7b74d" d="M 29.5,88.5 C 30.6009,87.4017 31.9343,87.235 33.5,88C 32.2068,88.49 30.8734,88.6567 29.5,88.5 Z"/></g>
<g><path style="opacity:0.009" fill="#f7b74d" d="M 227.5,88.5 C 228.946,87.3871 230.613,87.2204 232.5,88C 230.866,88.4935 229.199,88.6602 227.5,88.5 Z"/></g>
<g><path style="opacity:0.009" fill="#f7b74d" d="M 25.5,89.5 C 26.2506,88.4265 27.2506,88.2599 28.5,89C 27.552,89.4828 26.552,89.6495 25.5,89.5 Z"/></g>
<g><path style="opacity:0.009" fill="#f7b74d" d="M 233.5,89.5 C 234.601,88.4017 235.934,88.235 237.5,89C 236.207,89.49 234.873,89.6567 233.5,89.5 Z"/></g>
<g><path style="opacity:0.01" fill="#f6b84d" d="M 22.5,90.5 C 22.8966,89.475 23.5632,89.3083 24.5,90C 23.9056,90.4643 23.2389,90.631 22.5,90.5 Z"/></g>
<g><path style="opacity:0.01" fill="#f7b74d" d="M 239.5,90.5 C 240.251,89.4265 241.251,89.2599 242.5,90C 241.552,90.4828 240.552,90.6495 239.5,90.5 Z"/></g>
<g><path style="opacity:0.009" fill="#f7b74d" d="M 243.5,91.5 C 244.251,90.4265 245.251,90.2599 246.5,91C 245.552,91.4828 244.552,91.6495 243.5,91.5 Z"/></g>
<g><path style="opacity:0.008" fill="#f6b74d" d="M 254.5,95.5 C 255.833,96.1667 255.833,96.1667 254.5,95.5 Z"/></g>
<g><path style="opacity:0.006" fill="#f8b74d" d="M 254.5,104.5 C 255.833,105.167 255.833,105.833 254.5,106.5C 254.5,105.833 254.5,105.167 254.5,104.5 Z"/></g>
<g><path style="opacity:0.012" fill="#f7b74c" d="M 253.5,106.5 C 253.833,106.5 254.167,106.5 254.5,106.5C 254.315,107.17 253.981,107.17 253.5,106.5 Z"/></g>
<g><path style="opacity:0.012" fill="#f7b84c" d="M 252.5,107.5 C 252.833,107.5 253.167,107.5 253.5,107.5C 253.315,108.17 252.981,108.17 252.5,107.5 Z"/></g>
<g><path style="opacity:0.004" fill="#f7b84d" d="M 251.5,108.5 C 251.833,108.5 252.167,108.5 252.5,108.5C 252.672,109.492 252.338,110.158 251.5,110.5C 251.5,109.833 251.5,109.167 251.5,108.5 Z"/></g>
<g><path style="opacity:0.008" fill="#f7b84d" d="M 250.5,110.5 C 250.833,110.5 251.167,110.5 251.5,110.5C 251.315,111.17 250.981,111.17 250.5,110.5 Z"/></g>
<g><path style="opacity:0.012" fill="#f7b84d" d="M 249.5,111.5 C 249.833,111.5 250.167,111.5 250.5,111.5C 250.315,112.17 249.981,112.17 249.5,111.5 Z"/></g>
<g><path style="opacity:0.016" fill="#f6b84d" d="M 248.5,112.5 C 248.833,112.5 249.167,112.5 249.5,112.5C 249.315,113.17 248.981,113.17 248.5,112.5 Z"/></g>
<g><path style="opacity:0.016" fill="#f6b84d" d="M 247.5,113.5 C 247.833,113.5 248.167,113.5 248.5,113.5C 248.315,114.17 247.981,114.17 247.5,113.5 Z"/></g>
<g><path style="opacity:0.016" fill="#f7b84c" d="M 246.5,114.5 C 246.833,114.5 247.167,114.5 247.5,114.5C 247.315,115.17 246.981,115.17 246.5,114.5 Z"/></g>
<g><path style="opacity:0.012" fill="#f6b84c" d="M 245.5,115.5 C 245.833,115.5 246.167,115.5 246.5,115.5C 246.315,116.17 245.981,116.17 245.5,115.5 Z"/></g>
<g><path style="opacity:0.012" fill="#f6b74c" d="M 244.5,116.5 C 244.833,116.5 245.167,116.5 245.5,116.5C 245.315,117.17 244.981,117.17 244.5,116.5 Z"/></g>
<g><path style="opacity:0.012" fill="#f7b84d" d="M 243.5,117.5 C 243.833,117.5 244.167,117.5 244.5,117.5C 244.315,118.17 243.981,118.17 243.5,117.5 Z"/></g>
<g><path style="opacity:0.012" fill="#f7b84d" d="M 242.5,118.5 C 242.833,118.5 243.167,118.5 243.5,118.5C 243.315,119.17 242.981,119.17 242.5,118.5 Z"/></g>
<g><path style="opacity:0.012" fill="#f7b74c" d="M 241.5,119.5 C 241.833,119.5 242.167,119.5 242.5,119.5C 242.315,120.17 241.981,120.17 241.5,119.5 Z"/></g>
<g><path style="opacity:0.012" fill="#f7b84c" d="M 240.5,120.5 C 240.833,120.5 241.167,120.5 241.5,120.5C 241.315,121.17 240.981,121.17 240.5,120.5 Z"/></g>
<g><path style="opacity:0.012" fill="#f6b74d" d="M 239.5,121.5 C 239.833,121.5 240.167,121.5 240.5,121.5C 240.315,122.17 239.981,122.17 239.5,121.5 Z"/></g>
<g><path style="opacity:0.016" fill="#f6b74d" d="M 238.5,122.5 C 238.833,122.5 239.167,122.5 239.5,122.5C 239.315,123.17 238.981,123.17 238.5,122.5 Z"/></g>
<g><path style="opacity:0.016" fill="#f6b74c" d="M 237.5,123.5 C 237.833,123.5 238.167,123.5 238.5,123.5C 238.315,124.17 237.981,124.17 237.5,123.5 Z"/></g>
<g><path style="opacity:0.016" fill="#f6b74c" d="M 236.5,124.5 C 236.833,124.5 237.167,124.5 237.5,124.5C 237.315,125.17 236.981,125.17 236.5,124.5 Z"/></g>
<g><path style="opacity:0.016" fill="#f6b74c" d="M 235.5,125.5 C 235.833,125.5 236.167,125.5 236.5,125.5C 236.315,126.17 235.981,126.17 235.5,125.5 Z"/></g>
<g><path style="opacity:0.016" fill="#f6b74c" d="M 234.5,126.5 C 234.833,126.5 235.167,126.5 235.5,126.5C 235.315,127.17 234.981,127.17 234.5,126.5 Z"/></g>
<g><path style="opacity:0.016" fill="#f6b74c" d="M 233.5,127.5 C 233.833,127.5 234.167,127.5 234.5,127.5C 234.315,128.17 233.981,128.17 233.5,127.5 Z"/></g>
<g><path style="opacity:0.016" fill="#f7b74d" d="M 232.5,128.5 C 232.833,128.5 233.167,128.5 233.5,128.5C 233.315,129.17 232.981,129.17 232.5,128.5 Z"/></g>
<g><path style="opacity:0.012" fill="#f6b74c" d="M 231.5,129.5 C 231.833,129.5 232.167,129.5 232.5,129.5C 232.315,130.17 231.981,130.17 231.5,129.5 Z"/></g>
<g><path style="opacity:0.012" fill="#f6b74c" d="M 230.5,130.5 C 230.833,130.5 231.167,130.5 231.5,130.5C 231.315,131.17 230.981,131.17 230.5,130.5 Z"/></g>
<g><path style="opacity:0.667" fill="#fbbc4f" d="M 63.5,150.5 C 62.8333,150.167 62.1667,149.833 61.5,149.5C 61.5,148.833 61.1667,148.5 60.5,148.5C 58.5,145.833 56.1667,143.5 53.5,141.5C 53.5,140.833 53.1667,140.5 52.5,140.5C 50.8333,138.5 49.1667,136.5 47.5,134.5C 47.4346,134.062 47.6012,133.728 48,133.5C 54.0646,139.031 59.2313,144.697 63.5,150.5 Z"/></g>
<g><path style="opacity:0.008" fill="#f7b84c" d="M 224.5,135.5 C 225.833,136.167 225.833,136.167 224.5,135.5 Z"/></g>
<g><path style="opacity:0.012" fill="#f7b84c" d="M 223.5,136.5 C 223.833,136.5 224.167,136.5 224.5,136.5C 224.315,137.17 223.981,137.17 223.5,136.5 Z"/></g>
<g><path style="opacity:0.016" fill="#f7b74d" d="M 222.5,137.5 C 222.833,137.5 223.167,137.5 223.5,137.5C 223.315,138.17 222.981,138.17 222.5,137.5 Z"/></g>
<g><path style="opacity:0.016" fill="#f7b84d" d="M 221.5,138.5 C 221.833,138.5 222.167,138.5 222.5,138.5C 222.315,139.17 221.981,139.17 221.5,138.5 Z"/></g>
<g><path style="opacity:0.016" fill="#f7b84c" d="M 220.5,139.5 C 220.833,139.5 221.167,139.5 221.5,139.5C 221.315,140.17 220.981,140.17 220.5,139.5 Z"/></g>
<g><path style="opacity:0.005" fill="#f7b74d" d="M 52.5,140.5 C 53.1667,140.5 53.5,140.833 53.5,141.5C 52.5029,142.713 51.5029,142.546 50.5,141C 51.0944,140.536 51.7611,140.369 52.5,140.5 Z"/></g>
<g><path style="opacity:0.016" fill="#f7b84c" d="M 219.5,140.5 C 219.833,140.5 220.167,140.5 220.5,140.5C 220.315,141.17 219.981,141.17 219.5,140.5 Z"/></g>
<g><path style="opacity:0.012" fill="#f7b74d" d="M 218.5,141.5 C 218.833,141.5 219.167,141.5 219.5,141.5C 219.315,142.17 218.981,142.17 218.5,141.5 Z"/></g>
<g><path style="opacity:0.012" fill="#f6b74c" d="M 217.5,142.5 C 217.833,142.5 218.167,142.5 218.5,142.5C 218.315,143.17 217.981,143.17 217.5,142.5 Z"/></g>
<g><path style="opacity:0.012" fill="#f6b74d" d="M 216.5,143.5 C 216.833,143.5 217.167,143.5 217.5,143.5C 217.315,144.17 216.981,144.17 216.5,143.5 Z"/></g>
<g><path style="opacity:0.005" fill="#f7b74d" d="M 60.5,148.5 C 61.1667,148.5 61.5,148.833 61.5,149.5C 61.2533,151.975 60.5866,151.975 59.5,149.5C 59.6236,148.893 59.9569,148.56 60.5,148.5 Z"/></g>
<g><path style="opacity:0.016" fill="#f6b74c" d="M 65.5,154.5 C 64.8333,155.167 64.8333,155.167 65.5,154.5 Z"/></g>
<g><path style="opacity:0.012" fill="#f6b84c" d="M 205.5,154.5 C 206.833,155.167 206.833,155.167 205.5,154.5 Z"/></g>
<g><path style="opacity:0.016" fill="#f6b84d" d="M 204.5,155.5 C 204.833,155.5 205.167,155.5 205.5,155.5C 205.315,156.17 204.981,156.17 204.5,155.5 Z"/></g>
<g><path style="opacity:0.012" fill="#f7b74d" d="M 65.5,156.5 C 66.8333,157.167 66.8333,157.167 65.5,156.5 Z"/></g>
<g><path style="opacity:0.008" fill="#f7b84d" d="M 203.5,156.5 C 203.833,156.5 204.167,156.5 204.5,156.5C 204.672,157.492 204.338,158.158 203.5,158.5C 203.5,157.833 203.5,157.167 203.5,156.5 Z"/></g>
<g><path style="opacity:0.012" fill="#f7b74d" d="M 202.5,158.5 C 202.833,158.5 203.167,158.5 203.5,158.5C 203.81,161.713 203.477,164.713 202.5,167.5C 202.5,164.5 202.5,161.5 202.5,158.5 Z"/></g>
<g><path style="opacity:0.004" fill="#f6b74d" d="M 66.5,159.5 C 67.525,159.897 67.6917,160.563 67,161.5C 66.5357,160.906 66.369,160.239 66.5,159.5 Z"/></g>
<g><path style="opacity:0.009" fill="#f7b74d" d="M 65.5,165.5 C 66.6129,166.946 66.7796,168.613 66,170.5C 65.5065,168.866 65.3398,167.199 65.5,165.5 Z"/></g>
<g><path style="opacity:0.009" fill="#f7b74d" d="M 203.5,169.5 C 204.613,170.946 204.78,172.613 204,174.5C 203.506,172.866 203.34,171.199 203.5,169.5 Z"/></g>
<g><path style="opacity:0.009" fill="#f7b74d" d="M 64.5,172.5 C 65.5983,173.601 65.765,174.934 65,176.5C 64.51,175.207 64.3433,173.873 64.5,172.5 Z"/></g>
<g><path style="opacity:0.011" fill="#f7b74d" d="M 204.5,176.5 C 205.598,177.601 205.765,178.934 205,180.5C 204.51,179.207 204.343,177.873 204.5,176.5 Z"/></g>
<g><path style="opacity:0.009" fill="#f7b74d" d="M 63.5,177.5 C 64.5983,178.601 64.765,179.934 64,181.5C 63.51,180.207 63.3433,178.873 63.5,177.5 Z"/></g>
<g><path style="opacity:0.01" fill="#f7b74e" d="M 205.5,186.5 C 205.343,185.127 205.51,183.793 206,182.5C 206.765,184.066 206.598,185.399 205.5,186.5 Z"/></g>
<g><path style="opacity:0.009" fill="#f7b74d" d="M 62.5,183.5 C 63.5735,184.251 63.7401,185.251 63,186.5C 62.5172,185.552 62.3505,184.552 62.5,183.5 Z"/></g>
<g><path style="opacity:0.01" fill="#f7b74d" d="M 206.5,187.5 C 207.598,188.601 207.765,189.934 207,191.5C 206.51,190.207 206.343,188.873 206.5,187.5 Z"/></g>
<g><path style="opacity:0.01" fill="#f7b74d" d="M 61.5,188.5 C 62.5735,189.251 62.7401,190.251 62,191.5C 61.5172,190.552 61.3505,189.552 61.5,188.5 Z"/></g>
<g><path style="opacity:0.009" fill="#f7b74d" d="M 61.5,197.5 C 60.4017,196.399 60.235,195.066 61,193.5C 61.49,194.793 61.6567,196.127 61.5,197.5 Z"/></g>
<g><path style="opacity:0.01" fill="#f7b84d" d="M 207.5,197.5 C 207.343,196.127 207.51,194.793 208,193.5C 208.765,195.066 208.598,196.399 207.5,197.5 Z"/></g>
<g><path style="opacity:0.009" fill="#f7b74d" d="M 60.5,202.5 C 59.4017,201.399 59.235,200.066 60,198.5C 60.49,199.793 60.6567,201.127 60.5,202.5 Z"/></g>
<g><path style="opacity:0.01" fill="#f7b74d" d="M 208.5,198.5 C 209.598,199.601 209.765,200.934 209,202.5C 208.51,201.207 208.343,199.873 208.5,198.5 Z"/></g>
<g><path style="opacity:0.009" fill="#f7b74d" d="M 58.5,203.5 C 59.5983,204.601 59.765,205.934 59,207.5C 58.51,206.207 58.3433,204.873 58.5,203.5 Z"/></g>
<g><path style="opacity:0.01" fill="#f7b74c" d="M 209.5,204.5 C 210.598,205.601 210.765,206.934 210,208.5C 209.51,207.207 209.343,205.873 209.5,204.5 Z"/></g>
<g><path style="opacity:0.01" fill="#f7b74d" d="M 130.5,208.5 C 131.239,208.369 131.906,208.536 132.5,209C 131.563,209.692 130.897,209.525 130.5,208.5 Z"/></g>
<g><path style="opacity:0.01" fill="#f7b74d" d="M 138.5,208.5 C 138.103,209.525 137.437,209.692 136.5,209C 137.094,208.536 137.761,208.369 138.5,208.5 Z"/></g>
<g><path style="opacity:0.01" fill="#f7b74d" d="M 57.5,209.5 C 58.5983,210.601 58.765,211.934 58,213.5C 57.51,212.207 57.3433,210.873 57.5,209.5 Z"/></g>
<g><path style="opacity:0.008" fill="#f7b74d" d="M 127.5,210.5 C 127.5,210.167 127.5,209.833 127.5,209.5C 130.167,209.833 130.167,210.167 127.5,210.5 Z"/></g>
<g><path style="opacity:0.008" fill="#f7b74d" d="M 125.5,210.5 C 126.167,210.5 126.833,210.5 127.5,210.5C 126.833,211.833 126.167,211.833 125.5,210.5 Z"/></g>
<g><path style="opacity:0.009" fill="#f7b74d" d="M 210.5,210.5 C 211.613,211.946 211.78,213.613 211,215.5C 210.506,213.866 210.34,212.199 210.5,210.5 Z"/></g>
<g><path style="opacity:0.012" fill="#f6b74c" d="M 123.5,211.5 C 124.833,212.167 124.833,212.167 123.5,211.5 Z"/></g>
<g><path style="opacity:0.012" fill="#f7b84c" d="M 121.5,212.5 C 122.833,213.167 122.833,213.167 121.5,212.5 Z"/></g>
<g><path style="opacity:0.012" fill="#f7b74d" d="M 119.5,213.5 C 120.833,214.167 120.833,214.167 119.5,213.5 Z"/></g>
<g><path style="opacity:0.012" fill="#f7b84d" d="M 117.5,214.5 C 118.833,215.167 118.833,215.167 117.5,214.5 Z"/></g>
<g><path style="opacity:0.009" fill="#f7b74d" d="M 56.5,215.5 C 57.6129,216.946 57.7796,218.613 57,220.5C 56.5065,218.866 56.3398,217.199 56.5,215.5 Z"/></g>
<g><path style="opacity:0.012" fill="#f7b84c" d="M 115.5,215.5 C 116.833,216.167 116.833,216.167 115.5,215.5 Z"/></g>
<g><path style="opacity:0.006" fill="#f7b74d" d="M 153.5,215.5 C 153.5,215.833 153.5,216.167 153.5,216.5C 150.833,216.167 150.833,215.833 153.5,215.5 Z"/></g>
<g><path style="opacity:0.012" fill="#f7b84c" d="M 113.5,216.5 C 114.833,217.167 114.833,217.167 113.5,216.5 Z"/></g>
<g><path style="opacity:0.012" fill="#f6b84d" d="M 153.5,216.5 C 154.833,217.167 154.833,217.167 153.5,216.5 Z"/></g>
<g><path style="opacity:0.008" fill="#f7b84d" d="M 111.5,218.5 C 111.5,218.167 111.5,217.833 111.5,217.5C 112.167,217.5 112.833,217.5 113.5,217.5C 113.158,218.338 112.492,218.672 111.5,218.5 Z"/></g>
<g><path style="opacity:0.01" fill="#f7b74d" d="M 211.5,217.5 C 212.629,219.628 212.796,221.961 212,224.5C 211.503,222.19 211.337,219.857 211.5,217.5 Z"/></g>
<g><path style="opacity:0.008" fill="#f8b74d" d="M 109.5,219.5 C 109.5,219.167 109.5,218.833 109.5,218.5C 110.167,218.5 110.833,218.5 111.5,218.5C 111.158,219.338 110.492,219.672 109.5,219.5 Z"/></g>
<g><path style="opacity:0.01" fill="#f7b74d" d="M 107.5,220.5 C 107.5,220.167 107.5,219.833 107.5,219.5C 108.167,219.5 108.833,219.5 109.5,219.5C 109.158,220.338 108.492,220.672 107.5,220.5 Z"/></g>
<g><path style="opacity:0.008" fill="#f7b84d" d="M 105.5,221.5 C 105.5,221.167 105.5,220.833 105.5,220.5C 106.167,220.5 106.833,220.5 107.5,220.5C 107.158,221.338 106.492,221.672 105.5,221.5 Z"/></g>
<g><path style="opacity:0.008" fill="#f7b84c" d="M 162.5,220.5 C 162.5,220.833 162.5,221.167 162.5,221.5C 159.833,221.167 159.833,220.833 162.5,220.5 Z"/></g>
<g><path style="opacity:0.008" fill="#f8b74d" d="M 103.5,222.5 C 103.5,222.167 103.5,221.833 103.5,221.5C 104.167,221.5 104.833,221.5 105.5,221.5C 105.158,222.338 104.492,222.672 103.5,222.5 Z"/></g>
<g><path style="opacity:0.012" fill="#f7b74c" d="M 162.5,221.5 C 163.833,222.167 163.833,222.167 162.5,221.5 Z"/></g>
<g><path style="opacity:0.012" fill="#f7b74c" d="M 102.5,222.5 C 102.833,222.5 103.167,222.5 103.5,222.5C 103.315,223.17 102.981,223.17 102.5,222.5 Z"/></g>
<g><path style="opacity:0.009" fill="#f7b74d" d="M 55.5,223.5 C 56.6433,226.976 56.8099,230.642 56,234.5C 55.5014,230.848 55.3347,227.182 55.5,223.5 Z"/></g>
<g><path style="opacity:0.012" fill="#f7b84d" d="M 100.5,223.5 C 101.833,224.167 101.833,224.167 100.5,223.5 Z"/></g>
<g><path style="opacity:0.012" fill="#f7b84c" d="M 98.5,224.5 C 99.8333,225.167 99.8333,225.167 98.5,224.5 Z"/></g>
<g><path style="opacity:0.008" fill="#f7b74c" d="M 96.5,226.5 C 96.5,226.167 96.5,225.833 96.5,225.5C 97.1667,225.5 97.8333,225.5 98.5,225.5C 98.1583,226.338 97.4916,226.672 96.5,226.5 Z"/></g>
<g><path style="opacity:0.006" fill="#f8b74d" d="M 171.5,225.5 C 171.5,225.833 171.5,226.167 171.5,226.5C 168.833,226.167 168.833,225.833 171.5,225.5 Z"/></g>
<g><path style="opacity:0.008" fill="#f7b74d" d="M 94.5,227.5 C 94.5,227.167 94.5,226.833 94.5,226.5C 95.1667,226.5 95.8333,226.5 96.5,226.5C 96.1583,227.338 95.4916,227.672 94.5,227.5 Z"/></g>
<g><path style="opacity:0.012" fill="#f6b74c" d="M 171.5,226.5 C 172.833,227.167 172.833,227.167 171.5,226.5 Z"/></g>
<g><path style="opacity:0.01" fill="#f7b74d" d="M 92.5,228.5 C 92.5,228.167 92.5,227.833 92.5,227.5C 93.1667,227.5 93.8333,227.5 94.5,227.5C 94.1583,228.338 93.4916,228.672 92.5,228.5 Z"/></g>
<g><path style="opacity:0.012" fill="#f7b84c" d="M 174.5,227.5 C 173.833,228.167 173.833,228.167 174.5,227.5 Z"/></g>
<g><path style="opacity:0.008" fill="#f7b84d" d="M 90.5,229.5 C 90.5,229.167 90.5,228.833 90.5,228.5C 91.1667,228.5 91.8333,228.5 92.5,228.5C 92.1583,229.338 91.4916,229.672 90.5,229.5 Z"/></g>
<g><path style="opacity:0.008" fill="#f7b74d" d="M 88.5,230.5 C 88.5,230.167 88.5,229.833 88.5,229.5C 89.1667,229.5 89.8333,229.5 90.5,229.5C 90.1583,230.338 89.4916,230.672 88.5,230.5 Z"/></g>
<g><path style="opacity:0.006" fill="#f7b74d" d="M 86.5,231.5 C 86.5,231.167 86.5,230.833 86.5,230.5C 87.1667,230.5 87.8333,230.5 88.5,230.5C 88.1583,231.338 87.4916,231.672 86.5,231.5 Z"/></g>
<g><path style="opacity:0.006" fill="#f7b74d" d="M 84.5,232.5 C 84.5,232.167 84.5,231.833 84.5,231.5C 85.1667,231.5 85.8333,231.5 86.5,231.5C 86.1583,232.338 85.4916,232.672 84.5,232.5 Z"/></g>
<g><path style="opacity:0.008" fill="#f8b74d" d="M 82.5,233.5 C 82.5,233.167 82.5,232.833 82.5,232.5C 83.1667,232.5 83.8333,232.5 84.5,232.5C 84.1583,233.338 83.4916,233.672 82.5,233.5 Z"/></g>
<g><path style="opacity:0.008" fill="#f7b74d" d="M 80.5,234.5 C 80.5,234.167 80.5,233.833 80.5,233.5C 81.1667,233.5 81.8333,233.5 82.5,233.5C 82.1583,234.338 81.4916,234.672 80.5,234.5 Z"/></g>
<g><path style="opacity:0.01" fill="#f7b74d" d="M 78.5,235.5 C 78.5,235.167 78.5,234.833 78.5,234.5C 79.1667,234.5 79.8333,234.5 80.5,234.5C 80.1583,235.338 79.4916,235.672 78.5,235.5 Z"/></g>
<g><path style="opacity:0.009" fill="#f8b74d" d="M 211.5,237.5 C 211.351,236.448 211.517,235.448 212,234.5C 212.74,235.749 212.573,236.749 211.5,237.5 Z"/></g>
<g><path style="opacity:0.012" fill="#f7b84c" d="M 56.5,235.5 C 57.8333,236.167 57.8333,236.167 56.5,235.5 Z"/></g>
<g><path style="opacity:0.008" fill="#f8b74d" d="M 76.5,235.5 C 77.1667,235.5 77.8333,235.5 78.5,235.5C 77.8333,236.833 77.1667,236.833 76.5,235.5 Z"/></g>
<g><path style="opacity:0.012" fill="#f6b74c" d="M 74.5,236.5 C 75.8333,237.167 75.8333,237.167 74.5,236.5 Z"/></g>
<g><path style="opacity:0.01" fill="#f7b74d" d="M 71.5,237.5 C 72.2389,237.369 72.9056,237.536 73.5,238C 72.5632,238.692 71.8966,238.525 71.5,237.5 Z"/></g>
<g><path style="opacity:0.008" fill="#f7b74d" d="M 194.5,237.5 C 194.103,238.525 193.437,238.692 192.5,238C 193.094,237.536 193.761,237.369 194.5,237.5 Z"/></g>
<g><path style="opacity:0.008" fill="#f6b74c" d="M 210.5,237.5 C 210.833,237.5 211.167,237.5 211.5,237.5C 211.315,238.17 210.981,238.17 210.5,237.5 Z"/></g>
<g><path style="opacity:0.004" fill="#f7b74d" d="M 59.5,238.5 C 59.5,238.833 59.5,239.167 59.5,239.5C 58.8299,239.019 58.8299,238.685 59.5,238.5 Z"/></g>
<g><path style="opacity:0.012" fill="#f8b74e" d="M 68.5,238.5 C 69.2389,238.369 69.9056,238.536 70.5,239C 69.5632,239.692 68.8966,239.525 68.5,238.5 Z"/></g>
<g><path style="opacity:0.008" fill="#f7b74c" d="M 197.5,238.5 C 197.5,238.833 197.5,239.167 197.5,239.5C 194.833,239.167 194.833,238.833 197.5,238.5 Z"/></g>
<g><path style="opacity:0.008" fill="#f6b74c" d="M 59.5,239.5 C 60.2389,239.369 60.9056,239.536 61.5,240C 60.5632,240.692 59.8966,240.525 59.5,239.5 Z"/></g>
<g><path style="opacity:0.012" fill="#f7b74d" d="M 64.5,240.5 C 65.2506,239.427 66.2506,239.26 67.5,240C 66.552,240.483 65.552,240.649 64.5,240.5 Z"/></g>
<g><path style="opacity:0.01" fill="#f7b74d" d="M 197.5,239.5 C 198.239,239.369 198.906,239.536 199.5,240C 198.563,240.692 197.897,240.525 197.5,239.5 Z"/></g>
<g><path style="opacity:0.009" fill="#f7b74d" d="M 200.5,241.5 C 201.251,240.427 202.251,240.26 203.5,241C 202.552,241.483 201.552,241.649 200.5,241.5 Z"/></g>
<g><path style="opacity:0.012" fill="#f7b74c" d="M 207.5,240.5 C 208.833,241.167 208.833,241.167 207.5,240.5 Z"/></g>
</svg>
