<?xml version="1.0" standalone="no"?>
<!DOCTYPE svg PUBLIC "-//W3C//DTD SVG 20010904//EN"
 "http://www.w3.org/TR/2001/REC-SVG-20010904/DTD/svg10.dtd">
<svg version="1.0" xmlns="http://www.w3.org/2000/svg"
 width="512.000000pt" height="512.000000pt" viewBox="0 0 512.000000 512.000000"
 preserveAspectRatio="xMidYMid meet">

<g transform="translate(0.000000,512.000000) scale(0.100000,-0.100000)"
fill="#000000" stroke="none">
<path d="M1596 5100 c-69 -22 -154 -78 -189 -123 -58 -76 -80 -138 -86 -237
l-6 -95 -90 -5 c-112 -7 -196 -43 -269 -116 -72 -72 -107 -154 -114 -263 l-5
-88 -81 -6 c-44 -3 -101 -13 -126 -22 -106 -37 -198 -127 -244 -238 -21 -52
-21 -53 -24 -1187 -1 -624 1 -1425 5 -1781 l8 -645 37 -76 c45 -89 94 -138
187 -182 l66 -31 1394 -3 c1252 -2 1400 -1 1450 14 114 32 200 103 254 209 25
50 31 76 36 155 l6 95 90 5 c73 4 102 11 157 37 137 64 217 186 226 342 l5 88
81 6 c44 3 101 13 126 22 106 37 198 127 244 238 21 52 21 53 24 1177 2 790 0
1155 -8 1225 -18 159 -74 311 -167 454 -45 69 -754 784 -843 851 -88 65 -179
114 -275 146 -159 53 -186 54 -1030 53 -736 0 -783 -1 -839 -19z m1514 -146
c161 -36 294 -175 329 -342 6 -29 11 -144 11 -256 0 -224 9 -275 62 -358 41
-65 99 -115 177 -152 l66 -31 255 -6 c277 -6 298 -10 391 -70 104 -66 181
-185 200 -311 6 -39 9 -460 7 -1103 l-3 -1040 -22 -41 c-12 -22 -40 -57 -62
-77 -69 -62 -103 -67 -457 -67 -283 0 -314 -2 -333 -18 -33 -26 -31 -79 3
-109 26 -22 33 -23 212 -23 l184 0 0 -62 c0 -111 -76 -222 -169 -248 -23 -6
-533 -10 -1409 -10 -1142 0 -1378 2 -1406 14 -50 21 -107 76 -129 126 -20 44
-20 72 -25 1323 -5 1245 -5 1278 -24 1302 -25 32 -79 34 -109 4 l-21 -21 4
-1291 c4 -1289 4 -1292 25 -1349 43 -115 128 -200 238 -239 53 -18 95 -19
1300 -19 l1245 0 0 -70 c0 -39 -6 -85 -14 -104 -19 -46 -72 -104 -120 -129
l-41 -22 -1369 -3 c-1536 -3 -1439 -7 -1515 69 -77 77 -71 -58 -78 1849 -7
1921 -12 1778 68 1865 49 53 109 78 192 79 l62 1 3 -180 c2 -168 4 -181 24
-202 29 -31 72 -30 103 2 l25 24 0 312 c0 215 4 324 12 353 16 55 101 140 154
155 21 6 65 11 97 11 l57 0 1 -912 c1 -502 4 -1230 8 -1618 7 -704 7 -705 30
-763 46 -116 168 -214 294 -238 33 -6 394 -8 946 -7 l893 3 19 24 c25 30 24
62 -2 95 l-20 26 -884 0 c-601 0 -900 3 -935 11 -66 14 -127 62 -159 124 l-26
49 -3 1741 c-2 1251 0 1751 8 1778 19 66 93 134 170 158 14 4 332 8 708 8 587
1 693 -1 752 -15z m413 -75 c107 -55 180 -120 537 -478 322 -323 382 -387 422
-456 70 -119 70 -123 6 -81 -31 21 -89 49 -129 64 -70 25 -86 26 -324 32 -236
5 -253 6 -298 28 -26 13 -60 40 -77 60 -53 64 -60 104 -60 331 0 138 -5 228
-14 272 -14 65 -59 166 -98 222 -23 33 -20 33 35 6z"/>
<path d="M1771 3993 c-11 -10 -24 -32 -27 -50 -5 -26 -1 -37 19 -57 l26 -26
476 0 476 0 24 25 c14 13 25 36 25 50 0 14 -11 37 -25 50 l-24 25 -474 0
c-438 0 -476 -1 -496 -17z"/>
<path d="M1765 2995 c-14 -13 -25 -36 -25 -50 0 -14 11 -37 25 -50 l24 -25
1244 0 c1244 0 1244 0 1271 21 34 27 35 71 1 104 l-24 25 -1246 0 -1246 0 -24
-25z"/>
<path d="M1761 2634 c-12 -15 -21 -33 -21 -40 0 -26 23 -62 47 -73 17 -8 375
-11 1259 -11 l1235 0 24 25 c32 31 33 74 2 103 l-23 22 -1251 0 -1252 0 -20
-26z"/>
<path d="M1794 2300 c-26 -10 -54 -48 -54 -71 0 -9 9 -28 21 -43 l20 -26 1255
0 c1241 0 1254 0 1274 20 20 20 26 54 14 85 -18 46 16 45 -1286 44 -673 0
-1233 -4 -1244 -9z"/>
<path d="M1771 1933 c-11 -10 -24 -32 -27 -50 -5 -26 -1 -37 19 -57 l26 -26
476 0 476 0 24 25 c14 13 25 36 25 50 0 14 -11 37 -25 50 l-24 25 -474 0
c-438 0 -476 -1 -496 -17z"/>
</g>
</svg>
