<?xml version="1.0" encoding="UTF-8"?>
<svg version="1.1" viewBox="0 0 2048 2048" width="1280" height="1280" xmlns="http://www.w3.org/2000/svg">
<path transform="translate(599,64)" d="m0 0h655l24 2 20 4 24 8 19 9 16 10 14 11 12 11 9 9 11 14 10 15 11 21 8 22 5 21 2 14 1 21h168l23 2 23 5 20 7 17 8 15 9 13 10 13 11 12 12 11 14 10 15 11 21 8 22 5 21 2 15 1 16v196h13l23 3 21 5 19 7 16 8 14 8 13 10 13 11 11 11 11 14 9 13 9 16 8 18 7 23 4 24 1 15v933l-1 23-4 26-7 25-8 20-12 23-10 15-11 14-12 13-9 9-14 11-11 8-20 12-19 9-27 9-18 4-22 3-22 1h-1496l-24-1-26-4-20-6-21-9-16-9-13-9-11-9-12-11-7-8-10-12-10-15-12-23-6-16-6-24-3-26v-760l3-23 6-23 6-16 8-16 7-12 9-13 11-13 6-7h2v-2l8-7 17-13 18-11 17-8 24-8 17-4 1-47 3-24 6-23 6-16 8-16 8-14 12-16 11-12 2-3h2v-2l8-7 17-13 18-11 19-9 21-7 26-5 24-2 1-397 3-23 6-23 6-16 8-16 7-12 10-14 11-13 15-15 17-13 20-12 15-7 24-8 26-5z" fill="#323131"/>
<path transform="translate(165,1279)" d="m0 0h1284l87 1 1 483 1 19 3 21 4 17 7 21 8 18 9 17 11 16 9 11 9 10 4 4-1 3h-1356l-19-3-17-5-10-5-11-6-13-9-13-12-11-14-7-11-6-12-7-23v-6h-2l-2-20v-514z" fill="#549DD6"/>
<path transform="translate(594,128)" d="m0 0h667l19 3 18 6 17 9 14 10 13 12 10 12 7 10 7 14 7 21 2 9 1 9v781h-593l-13-16-11-14-13-16-8-10-11-14-13-16-11-14-13-16-11-14-13-16-3-3v-2l-12-6-12-2-159-1-1-1v-489l1-133 2-12 4-15 6-14 6-11 4-6 6-8 9-10 11-10 18-12 10-5 17-6z" fill="#E3F1F9"/>
<path transform="translate(314,927)" d="m0 0h126l184 1 8 8 7 9 13 16 8 10 13 16 11 14 13 16 11 14 13 16 10 13 9 11 8 9 8 5 10 2h552l100 1 21 3 15 5 21 10 14 10 10 9 9 9 10 15 8 16 6 18 4 21v12l-1373 1-35-1-1-1v-159l2-23 2-6 2-10 6-15 6-12 8-11 8-10 9-9 17-13 11-6 10-5 17-5 18-3z" fill="#549DD6"/>
<path transform="translate(1440,320)" d="m0 0h173l19 3 22 8 18 10 11 9 10 9 11 13 9 15 6 13 5 13 2 12 2 10v1111l-4 22-7 21-9 17-10 13-9 10-11 9-15 10-12 6-13 4-8 3-17 3h-13l-1-3-1-460-3-24-6-22-6-17-10-19-10-16-9-11-14-15-10-9-15-11-17-10-14-7-13-5-31-8v-131l132-1 8-2 10-6 6-9 3-8v-12l-4-11-8-9-8-4-5-1-134-1-1-3v-124l1-1 132-1 8-2 10-6 6-9 3-8v-12l-4-11-8-9-8-4-5-1-134-1-1-3v-124l1-1 133-1 10-3 8-6 4-5 4-10v-13l-4-11-8-9-6-3-7-2-134-1z" fill="#E3F1F9"/>
<path transform="translate(1792,703)" d="m0 0 19 2 23 5 6 2v2l6 1 16 9 12 9 13 12 11 14 9 15 8 20 4 17 1 8v952l-4 25-5 17-5 14-6 11-9 15-9 11-11 12-11 9-12 9-12 7-11 6-16 6-20 5-12 2-19 1-22-2-22-5-19-7-21-11-16-12-13-12-7-7-10-13-9-15-8-17-6-18-4-20-1-8-1-20v-25l1-1 27-3 20-4 16-5 18-7 19-10 13-9 13-10 8-8h2l2-4 8-8 13-18 9-15 10-21 6-19 5-25 1-10 1-52v-763z" fill="#549DD6"/>
<path transform="translate(1288,134)" d="m0 0 10 3 17 9 14 10 13 12 10 12 7 10 7 14 7 21 2 9 1 9v781h-593l-13-16-11-14-13-16-8-10-11-14-13-16-11-14-13-16-11-14-13-16-3-3v-2l-12-6-12-2-127-1 1-31h159l10 11 8 10 10 13 14 17 8 10 11 14 13 16 11 14 14 17 11 14 13 17 5 5 3 1 147 1h394l-1-9v-711l-1-30-2-21-4-17-9-22-10-16-12-16-9-10-1-2-7-4z" fill="#C2DDF3"/>
<path transform="translate(1658,335)" d="m0 0 5 1 10 6 10 8 10 9 11 13 9 15 6 13 5 13 2 12 2 10v1111l-4 22-7 21-9 17-10 13-9 10-11 9-15 10-11 5h-3l2-5 11-10h2v-2l4-4 1-2h2l2-5 2-3h2l2-5 4-8h2l1-7 2-4 1-8 3-20 2-28 1-29v-29l-1-160v-362l1-483-1-51-2-21-5-19-8-22-8-15-5-6-8-7z" fill="#FCFCFC"/>
<path transform="translate(631,256)" d="m0 0h592l10 3 10 9 4 8 1 3v18l-5 10-5 6-11 6-6 1h-589l-10-4-8-7-6-11-1-4v-12l4-11 9-10 7-4z" fill="#323335"/>
<path transform="translate(631,448)" d="m0 0h592l10 3 10 9 4 8 1 3v18l-5 10-5 6-11 6-6 1h-589l-10-4-8-7-4-7-3-8v-12l4-11 9-10 7-4z" fill="#323334"/>
<path transform="translate(633,640)" d="m0 0h589l9 3 9 7 6 10 1 4v16l-6 12-9 8-7 3-6 1h-578l-11-1-10-6-8-9-2-4-1-6v-15l6-12 8-7 6-3z" fill="#323334"/>
<path transform="translate(1834,712)" d="m0 0h6v2l6 1 16 9 12 9 13 12 11 14 9 15 8 20 4 17 1 8v952l-4 25-5 17-5 14-6 11-9 15-9 11-11 12-11 9-12 9-12 7-11 6-6 1 6-7 9-8 7-8 10-13 10-15 8-16 6-14 5-16 4-17 2-14 1-20-1-947-4-21-7-21-9-19-12-18-9-10-7-8z" fill="#FAFBFC"/>
<path transform="translate(792,832)" d="m0 0h430l9 3 6 4 7 8 4 11v12l-5 12-6 7-11 6-6 1h-427l-10-4-9-8-4-7-2-8v-12l3-8 5-8 8-6z" fill="#323234"/>
<path transform="translate(548,142)" d="m0 0h4l-1 5-12 13-12 26-7 20-4 16-2 14-1 13v537l-1 78h-32l-1-1v-489l1-133 2-12 4-15 6-14 6-11 4-6 6-8 9-10 11-10 18-12z" fill="#F9FAFC"/>
<path transform="translate(127,1280)" d="m0 0h33l1 1v509l1 20 3 18 6 20 8 18 10 17 11 14 12 12v2h-5l-8-4-11-6-13-9-13-12-11-14-7-11-6-12-7-23v-6h-2l-2-20z" fill="#F6F9FB"/>
<path transform="translate(1504,1280)" d="m0 0h32l1 483 1 19 3 21 4 17 7 21 8 18 9 17 11 16 9 11 9 10 4 4-1 3h-242v-1l199-1v-5l-2-1 3-7 4-1-2-7-9-10-8-10-12-18-7-12-8-18-5-15-3-13-3-23-1-13-1-21z" fill="#3289CD"/>
<path transform="translate(1533,1068)" d="m0 0 9 6 3 3 7 2 7 3 12 9 10 9 6 5 7 8 10 13 10 17 7 15 8 24 2 16v267l1 132v58l-1 3h6l-3 2-14 3-7 1h-13l-1-3-1-460-3-24-6-22-6-17-10-19-10-16-9-11-14-15-8-7z" fill="#BFDBF2"/>
<path transform="translate(413,703)" d="m0 0h3v160l-1 1h-127l-1-1v-14l1-27 3-21 6-18 8-17 10-14 9-10 8-8 13-10 19-10 17-6 21-4z" fill="#549DD6"/>
<path transform="translate(212,936)" d="m0 0 2 1-17 17-12 17-7 12-7 16-6 20-3 21-1 60v116h-33l-1-1v-159l2-23 2-6 2-10 6-15 6-12 8-11 8-10 9-9 17-13 11-6 8-4z" fill="#F6F9FB"/>
<path transform="translate(413,703)" d="m0 0h3v88h-1v-75l-4-1-3 1-3-1v-2h-8l-2-6-16 4h-2l-1 2-6 4-4 4-6 5-10 13-8 13-6 12-5 13-5 18-5 27v9l12 1h83v31l-1 1h-127l-1-1v-14l1-27 3-21 6-18 8-17 10-14 9-10 8-8 13-10 19-10 17-6 21-4z" fill="#3289CD"/>
<path transform="translate(1639,1723)" d="m0 0h5l-4 2-7 2v33l3 35 4 20 8 22 8 15 12 18 8 11 6 5 2 2 7 5 2 3 7 3 7 4 1 1h3l10 2 3 2-1 2-6-1-3 2 9 3 4-1 1 2 9 2v-2l-8-1v-5h21l4 4 5 1v2l14 1 5-1 15-1 7-2h5l-3 2-25 5-19 1-22-2-22-5-19-7-21-11-16-12-13-12-7-7-10-13-9-15-8-17-6-18-4-20-1-8-1-20v-25l1-1 27-3z" fill="#3289CD"/>
<path transform="translate(1449,1095)" d="m0 0 5 1 21 10 14 10 10 9 9 9 10 15 8 16 6 18 4 21v12l-1373 1-2-1v-98l1-7h1l2 15 1 17 3 16-1 5v9l1 9 2 13 2 6v6l-4 5v2l2 1 1324-1v-1l6-1 2-7v-7l-5-22-6-21-8-16-7-12-9-12-4-4v-2l-4-2-5-4v-2l-5-2z" fill="#3289CD"/>
<path transform="translate(1462,898)" d="m0 0h7l2 1 1 88v33l-1 14-8-1-23-6v-127l5 2z" fill="#C2DDF3"/>
<path transform="translate(1439,705)" d="m0 0 2 4 2 2 6-1 12-3 1-1h7l2 1v124h37v1h-68l-1-3z" fill="#BFDBF2"/>
<path transform="translate(1439,513)" d="m0 0 2 4 2 2 6-1 13-4h7l2 2v123h32v1h-63l-1-3z" fill="#BFDBF2"/>
<path transform="translate(540,928)" d="m0 0h84l8 8 7 9 13 16 8 10 13 16 11 14 13 16 11 14 13 16 10 13 9 11 8 9 8 5 10 2v1l-13 2-15-1-8-3-12-11-7-8-13-16-11-14-5-6v-2h-2l-4-6-20-25-11-14-4-5v-2h-2l-12-16-13-17-7-8-3-5v-2h-64z" fill="#3289CD"/>
<path transform="translate(1458,322)" d="m0 0h12l1 1v124h47v1h-78v-124l9 1z" fill="#C3DEF4"/>
<path transform="translate(165,1279)" d="m0 0h46v1l-38 1-8 1 3 10 1 4-1 15v35l-1 14v89l-1 229-1 2-2 42h-1l-1-323-1-119z" fill="#3289CD"/>
<path transform="translate(1440,704)" d="m0 0h52v1h-30l-1 3-12 3-2 1h-6z" fill="#D6E9F7"/>
<path transform="translate(1440,512)" d="m0 0h53v1h-31v2l-13 4-2 1h-6z" fill="#D5E9F7"/>
<path transform="translate(1440,320)" d="m0 0h29l-1 2-13 2-6 2h-6l-3-2z" fill="#D9EBF8"/>
<path transform="translate(1836,716)" d="m0 0 4 1 12 13v2l-3-1v-2h-3l-10-10z" fill="#3A8ECF"/>
</svg>
