<?xml version="1.0" encoding="UTF-8"?>
<!DOCTYPE svg PUBLIC "-//W3C//DTD SVG 1.1//EN" "http://www.w3.org/Graphics/SVG/1.1/DTD/svg11.dtd">
<svg xmlns="http://www.w3.org/2000/svg" version="1.1" width="256px" height="256px" style="shape-rendering:geometricPrecision; text-rendering:geometricPrecision; image-rendering:optimizeQuality; fill-rule:evenodd; clip-rule:evenodd" xmlns:xlink="http://www.w3.org/1999/xlink">
<g><path style="opacity:0.953" fill="#0c0c0c" d="M 104.5,7.5 C 112.206,6.66457 119.539,7.83124 126.5,11C 128.543,12.708 130.21,14.708 131.5,17C 138.167,17.3333 144.833,17.6667 151.5,18C 153.155,19.4443 153.822,21.2776 153.5,23.5C 162.173,23.3336 170.84,23.5002 179.5,24C 190.662,25.494 197.829,31.6606 201,42.5C 201.333,51.1667 201.667,59.8333 202,68.5C 214.031,54.9107 224.364,56.2441 233,72.5C 233.297,75.9846 232.631,79.3179 231,82.5C 221.333,93.5 211.667,104.5 202,115.5C 201.5,135.164 201.333,154.831 201.5,174.5C 211.506,174.334 221.506,174.5 231.5,175C 232,175.5 232.5,176 233,176.5C 233.823,199.876 233.656,223.21 232.5,246.5C 186.17,247.667 139.837,247.833 93.5,247C 92.565,244.619 92.2317,242.119 92.5,239.5C 75.1635,239.667 57.8301,239.5 40.5,239C 29.6606,235.829 23.494,228.662 22,217.5C 21.3333,160.167 21.3333,102.833 22,45.5C 24.6207,33.2123 32.1207,26.0457 44.5,24C 53.1603,23.5002 61.8269,23.3336 70.5,23.5C 70.1412,21.2341 70.8078,19.4007 72.5,18C 79.1915,17.8309 85.8581,17.3309 92.5,16.5C 95.4931,12.0189 99.4931,9.01894 104.5,7.5 Z M 43.5,42.5 C 52.5,42.5 61.5,42.5 70.5,42.5C 70.2053,44.7354 70.5386,46.7354 71.5,48.5C 71.9175,49.2216 72.5842,49.7216 73.5,50C 99.1667,50.6667 124.833,50.6667 150.5,50C 151.756,49.5831 152.423,48.7498 152.5,47.5C 153.451,46.0813 153.784,44.4147 153.5,42.5C 162.5,42.5 171.5,42.5 180.5,42.5C 181.79,43.0577 182.623,44.0577 183,45.5C 183.667,60.8333 183.667,76.1667 183,91.5C 177.167,98 171.333,104.5 165.5,111C 141.833,111.333 118.167,111.667 94.5,112C 92.4732,113.396 92.1398,115.062 93.5,117C 115.5,117.333 137.5,117.667 159.5,118C 157.702,121.937 156.702,126.104 156.5,130.5C 135.831,130.333 115.164,130.5 94.5,131C 92.4732,132.396 92.1398,134.062 93.5,136C 114.164,136.5 134.831,136.667 155.5,136.5C 154.671,139.469 154.505,142.469 155,145.5C 155.893,146.081 156.893,146.415 158,146.5C 165.233,144.567 172.4,142.4 179.5,140C 180.942,139.623 181.942,138.79 182.5,137.5C 183.495,149.655 183.829,161.989 183.5,174.5C 153.831,174.333 124.165,174.5 94.5,175C 93.944,175.383 93.6107,175.883 93.5,176.5C 92.5039,191.324 92.1706,206.324 92.5,221.5C 85.1667,221.5 77.8333,221.5 70.5,221.5C 70.825,213.981 70.4916,206.648 69.5,199.5C 68.9468,195.239 66.6135,192.406 62.5,191C 55.1742,190.5 47.8409,190.334 40.5,190.5C 40.3333,141.832 40.5,93.1655 41,44.5C 41.7083,43.6195 42.5416,42.9528 43.5,42.5 Z"/></g>
<g><path style="opacity:1" fill="#3a97d2" d="M 128.5,23.5 C 134.31,24.4896 140.31,24.8229 146.5,24.5C 146.5,30.8333 146.5,37.1667 146.5,43.5C 123.167,43.5 99.8333,43.5 76.5,43.5C 76.5,36.8333 76.5,30.1667 76.5,23.5C 83.1998,23.83 89.8665,23.4967 96.5,22.5C 99.1349,16.0432 103.968,13.0432 111,13.5C 119.267,12.8758 125.101,16.2091 128.5,23.5 Z"/></g>
<g><path style="opacity:1" fill="#487ca3" d="M 42.5,30.5 C 51.9856,29.5062 61.6522,29.1729 71.5,29.5C 71.5,31.8333 71.5,34.1667 71.5,36.5C 62.1667,36.5 52.8333,36.5 43.5,36.5C 52.3178,35.5067 61.3178,35.1734 70.5,35.5C 70.5,33.8333 70.5,32.1667 70.5,30.5C 61.1667,30.5 51.8333,30.5 42.5,30.5 Z"/></g>
<g><path style="opacity:1" fill="#4c83ab" d="M 179.5,30.5 C 170.833,30.5 162.167,30.5 153.5,30.5C 153.5,32.1667 153.5,33.8333 153.5,35.5C 162.349,35.1736 171.016,35.507 179.5,36.5C 170.5,36.5 161.5,36.5 152.5,36.5C 152.5,34.1667 152.5,31.8333 152.5,29.5C 161.682,29.1734 170.682,29.5067 179.5,30.5 Z"/></g>
<g><path style="opacity:1" fill="#6dbcf5" d="M 42.5,30.5 C 51.8333,30.5 61.1667,30.5 70.5,30.5C 70.5,32.1667 70.5,33.8333 70.5,35.5C 61.3178,35.1734 52.3178,35.5067 43.5,36.5C 39.6381,37.5237 36.8048,39.8571 35,43.5C 34.3333,93.8333 34.3333,144.167 35,194.5C 45.1667,205.333 55.3333,216.167 65.5,227C 74.8274,227.5 84.1607,227.666 93.5,227.5C 93.5,229.5 93.5,231.5 93.5,233.5C 75.8302,233.667 58.1635,233.5 40.5,233C 35.3333,230.5 31.5,226.667 29,221.5C 27.349,162.545 27.0157,103.545 28,44.5C 30.0824,36.9166 34.9157,32.2499 42.5,30.5 Z"/></g>
<g><path style="opacity:1" fill="#6fbff9" d="M 179.5,30.5 C 186.802,31.6238 191.969,35.6238 195,42.5C 195.667,54.1667 195.667,65.8333 195,77.5C 193.668,79.66 192.168,81.66 190.5,83.5C 189.833,70.5 189.167,57.5 188.5,44.5C 187.39,39.7241 184.39,37.0574 179.5,36.5C 171.016,35.507 162.349,35.1736 153.5,35.5C 153.5,33.8333 153.5,32.1667 153.5,30.5C 162.167,30.5 170.833,30.5 179.5,30.5 Z"/></g>
<g><path style="opacity:0.078" fill="#bbbbbb" d="M 43.5,42.5 C 52.6517,41.5064 61.985,41.1731 71.5,41.5C 71.5,43.8333 71.5,46.1667 71.5,48.5C 70.5386,46.7354 70.2053,44.7354 70.5,42.5C 61.5,42.5 52.5,42.5 43.5,42.5 Z"/></g>
<g><path style="opacity:0.078" fill="#c4c4c4" d="M 180.5,42.5 C 171.5,42.5 162.5,42.5 153.5,42.5C 153.784,44.4147 153.451,46.0813 152.5,47.5C 152.5,45.5 152.5,43.5 152.5,41.5C 162.015,41.1731 171.348,41.5064 180.5,42.5 Z"/></g>
<g><path style="opacity:1" fill="#286993" d="M 128.5,23.5 C 134.833,23.5 141.167,23.5 147.5,23.5C 147.5,30.5 147.5,37.5 147.5,44.5C 123.661,44.8309 99.9941,44.4976 76.5,43.5C 99.8333,43.5 123.167,43.5 146.5,43.5C 146.5,37.1667 146.5,30.8333 146.5,24.5C 140.31,24.8229 134.31,24.4896 128.5,23.5 Z"/></g>
<g><path style="opacity:1" fill="#223c4d" d="M 188.5,44.5 C 189.167,57.5 189.833,70.5 190.5,83.5C 190.44,84.0431 190.107,84.3764 189.5,84.5C 188.501,71.1833 188.167,57.85 188.5,44.5 Z"/></g>
<g><path style="opacity:0.997" fill="#171817" d="M 83.5,65.5 C 84.1834,67.1765 85.5168,67.8432 87.5,67.5C 88.4778,67.811 89.1445,68.4777 89.5,69.5C 88.8678,71.9647 87.3678,73.6314 85,74.5C 84.8149,81.7466 84.3149,88.9133 83.5,96C 73.5998,97.6154 63.5998,97.9487 53.5,97C 52.5838,96.6258 51.7504,96.1258 51,95.5C 50.191,85.1196 50.3577,74.7863 51.5,64.5C 61.8172,63.3344 72.1506,63.1677 82.5,64C 83.056,64.3826 83.3893,64.8826 83.5,65.5 Z"/></g>
<g><path style="opacity:1" fill="#f15858" d="M 214.5,64.5 C 219.241,66.0377 223.408,68.7044 227,72.5C 227.323,77.1883 225.489,80.8549 221.5,83.5C 217.736,78.8017 213.403,74.8017 208.5,71.5C 209.833,68.5067 211.833,66.1734 214.5,64.5 Z"/></g>
<g><path style="opacity:0.239" fill="#b0b0b0" d="M 83.5,65.5 C 84.9952,65.9887 86.3285,66.6554 87.5,67.5C 85.5168,67.8432 84.1834,67.1765 83.5,65.5 Z"/></g>
<g><path style="opacity:0.976" fill="#191919" d="M 94.5,67.5 C 119.502,67.3334 144.502,67.5 169.5,68C 171.527,69.3957 171.86,71.0624 170.5,73C 144.833,73.6667 119.167,73.6667 93.5,73C 92.2427,70.9235 92.576,69.0902 94.5,67.5 Z"/></g>
<g><path style="opacity:1" fill="#5fa55f" d="M 56.5,69.5 C 63.8333,69.5 71.1667,69.5 78.5,69.5C 76.706,74.1433 73.5393,77.8099 69,80.5C 66.6117,78.6019 64.1117,76.9352 61.5,75.5C 57.6574,77.2952 57.6574,79.4619 61.5,82C 63.7768,83.9585 66.2768,85.4585 69,86.5C 72.2321,84.9501 75.2321,82.9501 78,80.5C 78.4986,84.1516 78.6653,87.8183 78.5,91.5C 71.1667,91.5 63.8333,91.5 56.5,91.5C 56.5,84.1667 56.5,76.8333 56.5,69.5 Z"/></g>
<g><path style="opacity:1" fill="#919191" d="M 203.5,76.5 C 208.918,78.3942 213.418,81.7276 217,86.5C 217.699,88.0738 217.365,89.4071 216,90.5C 211.946,85.943 207.446,81.943 202.5,78.5C 202.863,77.8165 203.196,77.1499 203.5,76.5 Z"/></g>
<g><path style="opacity:1" fill="#f2ba43" d="M 196.5,83.5 C 199.976,83.2017 202.142,84.535 203,87.5C 192.5,99.3333 182,111.167 171.5,123C 170.5,123.667 169.5,123.667 168.5,123C 166.745,122.28 165.911,121.113 166,119.5C 176.775,107.901 186.942,95.9014 196.5,83.5 Z"/></g>
<g><path style="opacity:0.998" fill="#191919" d="M 94.5,86.5 C 119.502,86.3334 144.502,86.5 169.5,87C 171.527,88.3957 171.86,90.0624 170.5,92C 144.833,92.6667 119.167,92.6667 93.5,92C 92.2427,89.9235 92.576,88.0902 94.5,86.5 Z"/></g>
<g><path style="opacity:1" fill="#f2b229" d="M 206.5,90.5 C 209.787,91.2729 211.287,93.2729 211,96.5C 200.333,108.5 189.667,120.5 179,132.5C 177.5,131 176,129.5 174.5,128C 185.752,115.922 196.418,103.422 206.5,90.5 Z"/></g>
<g><path style="opacity:0.997" fill="#181918" d="M 51.5,107.5 C 61.8387,107.334 72.172,107.5 82.5,108C 83.7014,108.903 84.5348,110.069 85,111.5C 87.0846,110.353 88.5846,111.02 89.5,113.5C 88.8678,115.965 87.3678,117.631 85,118.5C 84.6667,125.5 84.3333,132.5 84,139.5C 83.2496,140.126 82.4162,140.626 81.5,141C 76.8333,141.167 72.1667,141.333 67.5,141.5C 62.0591,141.618 56.7258,141.118 51.5,140C 50.198,129.197 50.198,118.363 51.5,107.5 Z"/></g>
<g><path style="opacity:1" fill="#60a660" d="M 56.5,113.5 C 63.8333,113.5 71.1667,113.5 78.5,113.5C 76.706,118.143 73.5393,121.81 69,124.5C 66.6117,122.602 64.1117,120.935 61.5,119.5C 57.6574,121.295 57.6574,123.462 61.5,126C 63.7768,127.959 66.2768,129.459 69,130.5C 72.2321,128.95 75.2321,126.95 78,124.5C 78.4986,128.152 78.6653,131.818 78.5,135.5C 71.1667,135.5 63.8333,135.5 56.5,135.5C 56.5,128.167 56.5,120.833 56.5,113.5 Z"/></g>
<g><path style="opacity:1" fill="#2f5169" d="M 194.5,123.5 C 194.56,122.957 194.893,122.624 195.5,122.5C 196.827,139.995 196.827,157.329 195.5,174.5C 195.83,157.325 195.497,140.325 194.5,123.5 Z"/></g>
<g><path style="opacity:1" fill="#70c1fc" d="M 194.5,123.5 C 195.497,140.325 195.83,157.325 195.5,174.5C 193.5,174.5 191.5,174.5 189.5,174.5C 189.333,159.163 189.5,143.83 190,128.5C 191.736,126.937 193.236,125.27 194.5,123.5 Z"/></g>
<g><path style="opacity:1" fill="#757576" d="M 162.5,126.5 C 166.842,128.328 170.509,131.161 173.5,135C 169.774,136.725 165.941,138.225 162,139.5C 161.466,135.141 161.632,130.808 162.5,126.5 Z"/></g>
<g><path style="opacity:0.678" fill="#363636" d="M 182.5,137.5 C 182.56,136.957 182.893,136.624 183.5,136.5C 184.825,149.327 184.825,161.994 183.5,174.5C 183.829,161.989 183.495,149.655 182.5,137.5 Z"/></g>
<g><path style="opacity:0.997" fill="#181918" d="M 51.5,151.5 C 61.8387,151.334 72.172,151.5 82.5,152C 83.7014,152.903 84.5348,154.069 85,155.5C 87.0846,154.353 88.5846,155.02 89.5,157.5C 88.8678,159.965 87.3678,161.631 85,162.5C 84.6667,169.5 84.3333,176.5 84,183.5C 83.2496,184.126 82.4162,184.626 81.5,185C 76.8333,185.167 72.1667,185.333 67.5,185.5C 62.0591,185.618 56.7258,185.118 51.5,184C 50.198,173.197 50.198,162.363 51.5,151.5 Z"/></g>
<g><path style="opacity:0.976" fill="#1a1a1a" d="M 94.5,155.5 C 119.502,155.333 144.502,155.5 169.5,156C 171.527,157.396 171.86,159.062 170.5,161C 144.833,161.667 119.167,161.667 93.5,161C 92.2427,158.924 92.576,157.09 94.5,155.5 Z"/></g>
<g><path style="opacity:1" fill="#60a660" d="M 56.5,157.5 C 63.8333,157.5 71.1667,157.5 78.5,157.5C 78.6567,158.873 78.49,160.207 78,161.5C 74.974,164.026 71.8073,166.36 68.5,168.5C 66.6841,167.185 65.0175,165.685 63.5,164C 57.7451,163.925 57.0785,165.925 61.5,170C 63.7768,171.959 66.2768,173.459 69,174.5C 72.2321,172.95 75.2321,170.95 78,168.5C 78.4986,172.152 78.6653,175.818 78.5,179.5C 71.1667,179.5 63.8333,179.5 56.5,179.5C 56.5,172.167 56.5,164.833 56.5,157.5 Z"/></g>
<g><path style="opacity:1" fill="#c3996b" d="M 159.5,180.5 C 159.5,200.833 159.5,221.167 159.5,241.5C 139.167,241.5 118.833,241.5 98.5,241.5C 98.5,221.167 98.5,200.833 98.5,180.5C 105.5,180.5 112.5,180.5 119.5,180.5C 119.334,186.509 119.501,192.509 120,198.5C 125.75,199.641 131.584,199.807 137.5,199C 138,198.5 138.5,198 139,197.5C 139.499,191.843 139.666,186.176 139.5,180.5C 146.167,180.5 152.833,180.5 159.5,180.5 Z"/></g>
<g><path style="opacity:1" fill="#fec446" d="M 125.5,180.5 C 128.167,180.5 130.833,180.5 133.5,180.5C 133.5,184.833 133.5,189.167 133.5,193.5C 130.833,193.5 128.167,193.5 125.5,193.5C 125.5,189.167 125.5,184.833 125.5,180.5 Z"/></g>
<g><path style="opacity:1" fill="#bf8051" d="M 226.5,180.5 C 226.5,200.833 226.5,221.167 226.5,241.5C 206.167,241.5 185.833,241.5 165.5,241.5C 165.5,221.167 165.5,200.833 165.5,180.5C 172.5,180.5 179.5,180.5 186.5,180.5C 186.334,186.509 186.501,192.509 187,198.5C 192.75,199.641 198.584,199.807 204.5,199C 205,198.5 205.5,198 206,197.5C 206.499,191.843 206.666,186.176 206.5,180.5C 213.167,180.5 219.833,180.5 226.5,180.5 Z"/></g>
<g><path style="opacity:1" fill="#fec446" d="M 192.5,180.5 C 195.167,180.5 197.833,180.5 200.5,180.5C 200.5,184.833 200.5,189.167 200.5,193.5C 197.833,193.5 195.167,193.5 192.5,193.5C 192.5,189.167 192.5,184.833 192.5,180.5 Z"/></g>
<g><path style="opacity:1" fill="#70561f" d="M 125.5,180.5 C 125.5,184.833 125.5,189.167 125.5,193.5C 128.167,193.5 130.833,193.5 133.5,193.5C 130.713,194.477 127.713,194.81 124.5,194.5C 124.181,189.637 124.514,184.97 125.5,180.5 Z"/></g>
<g><path style="opacity:1" fill="#969696" d="M 44.5,197.5 C 49.9846,196.348 55.6513,196.182 61.5,197C 62.3333,197.833 63.1667,198.667 64,199.5C 64.6667,205.5 64.6667,211.5 64,217.5C 57.2699,210.938 50.7699,204.271 44.5,197.5 Z"/></g>
<g><path style="opacity:0.416" fill="#848484" d="M 93.5,176.5 C 93.5,191.833 93.5,207.167 93.5,222.5C 85.5,222.5 77.5,222.5 69.5,222.5C 69.5,214.833 69.5,207.167 69.5,199.5C 70.4916,206.648 70.825,213.981 70.5,221.5C 77.8333,221.5 85.1667,221.5 92.5,221.5C 92.1706,206.324 92.5039,191.324 93.5,176.5 Z"/></g>
<g><path style="opacity:1" fill="#14100b" d="M 104.5,228.5 C 108.846,228.334 113.179,228.501 117.5,229C 120.167,230.667 120.167,232.333 117.5,234C 113.167,234.667 108.833,234.667 104.5,234C 103.248,232.172 103.248,230.339 104.5,228.5 Z"/></g>
<g><path style="opacity:1" fill="#140d08" d="M 171.5,228.5 C 175.846,228.334 180.179,228.501 184.5,229C 187.167,230.667 187.167,232.333 184.5,234C 180.167,234.667 175.833,234.667 171.5,234C 170.248,232.172 170.248,230.339 171.5,228.5 Z"/></g>
<g><path style="opacity:1" fill="#6a533b" d="M 159.5,180.5 C 160.497,200.993 160.831,221.66 160.5,242.5C 139.66,242.831 118.993,242.497 98.5,241.5C 118.833,241.5 139.167,241.5 159.5,241.5C 159.5,221.167 159.5,200.833 159.5,180.5 Z"/></g>
<g><path style="opacity:1" fill="#6b482e" d="M 226.5,180.5 C 227.497,200.993 227.831,221.66 227.5,242.5C 206.66,242.831 185.993,242.497 165.5,241.5C 185.833,241.5 206.167,241.5 226.5,241.5C 226.5,221.167 226.5,200.833 226.5,180.5 Z"/></g>
</svg>
