<?xml version="1.0" encoding="UTF-8"?>
<!DOCTYPE svg PUBLIC "-//W3C//DTD SVG 1.1//EN" "http://www.w3.org/Graphics/SVG/1.1/DTD/svg11.dtd">
<svg xmlns="http://www.w3.org/2000/svg" version="1.1" width="366px" height="416px" style="shape-rendering:geometricPrecision; text-rendering:geometricPrecision; image-rendering:optimizeQuality; fill-rule:evenodd; clip-rule:evenodd" xmlns:xlink="http://www.w3.org/1999/xlink">
<g><path style="opacity:0.51" fill="#bfbfbf" d="M 294.5,122.5 C 294.5,140.833 294.5,159.167 294.5,177.5C 278.911,178.484 263.244,178.817 247.5,178.5C 248.903,158.171 248.736,137.838 247,117.5C 244.835,97.9576 235.335,83.4576 218.5,74C 203.124,68.0217 187.457,65.8551 171.5,67.5C 140.027,70.8059 122.194,88.1392 118,119.5C 117.38,125.657 116.88,131.824 116.5,138C 117.348,151.487 117.681,164.987 117.5,178.5C 101.422,178.817 85.4225,178.484 69.5,177.5C 70.6218,156.908 71.4551,136.241 72,115.5C 78.6328,67.202 105.466,36.702 152.5,24C 178.874,17.9832 204.874,19.6499 230.5,29C 270.581,47.2611 291.915,78.4277 294.5,122.5 Z M 247.5,178.5 C 204.167,178.5 160.833,178.5 117.5,178.5C 117.681,164.987 117.348,151.487 116.5,138C 116.88,131.824 117.38,125.657 118,119.5C 122.194,88.1392 140.027,70.8059 171.5,67.5C 187.457,65.8551 203.124,68.0217 218.5,74C 235.335,83.4576 244.835,97.9576 247,117.5C 248.736,137.838 248.903,158.171 247.5,178.5 Z"/></g>
<g><path style="opacity:0.004" fill="#e4e5e4" d="M 294.5,122.5 C 295.497,140.326 295.83,158.326 295.5,176.5C 300.695,176.179 305.695,176.513 310.5,177.5C 305.167,177.5 299.833,177.5 294.5,177.5C 294.5,159.167 294.5,140.833 294.5,122.5 Z"/></g>
<g><path style="opacity:0.999" fill="#5ab2e4" d="M 69.5,177.5 C 85.4225,178.484 101.422,178.817 117.5,178.5C 160.833,178.5 204.167,178.5 247.5,178.5C 263.244,178.817 278.911,178.484 294.5,177.5C 299.833,177.5 305.167,177.5 310.5,177.5C 321.778,180.947 328.778,188.447 331.5,200C 329.658,259.174 329.325,318.34 330.5,377.5C 247.502,378.333 164.502,378.833 81.5,379C 76.5,381 71.5,381 66.5,379C 55.8927,378.621 45.3927,378.454 35,378.5C 34.3333,318.167 34.3333,257.833 35,197.5C 35.8725,194.382 37.0392,191.382 38.5,188.5C 41.0237,186.81 43.0237,184.643 44.5,182C 52.2721,177.9 60.6054,176.4 69.5,177.5 Z M 169.5,308.5 C 172.526,310.019 175.859,310.685 179.5,310.5C 182.025,310.497 184.359,310.163 186.5,309.5C 191.35,309.075 195.35,307.075 198.5,303.5C 200.822,302.184 203.156,300.851 205.5,299.5C 208.692,300.366 211.359,302.032 213.5,304.5C 214.864,306.191 216.197,307.858 217.5,309.5C 214.558,314.144 210.892,318.144 206.5,321.5C 202.849,322.659 199.515,324.326 196.5,326.5C 193.572,326.565 190.905,327.232 188.5,328.5C 181.138,328.635 173.804,328.302 166.5,327.5C 164.786,326.262 162.786,325.595 160.5,325.5C 157.76,323.44 154.76,321.774 151.5,320.5C 133.321,305.455 127.488,286.455 134,263.5C 147.423,235.874 168.923,226.374 198.5,235C 203.267,237.438 207.767,240.271 212,243.5C 215.833,239.667 219.667,235.833 223.5,232C 225.163,231.735 226.663,232.235 228,233.5C 228.821,246.076 228.655,258.576 227.5,271C 215.167,271.667 202.833,271.667 190.5,271C 188.789,269.867 188.289,268.367 189,266.5C 192.5,263 196,259.5 199.5,256C 191.147,249.882 181.814,247.882 171.5,250C 153.811,256.872 146.645,269.705 150,288.5C 153.354,298.353 159.854,305.02 169.5,308.5 Z"/></g>
<g><path style="opacity:0.486" fill="#8ac6e8" d="M 198.5,303.5 C 195.35,307.075 191.35,309.075 186.5,309.5C 190.461,307.519 194.461,305.519 198.5,303.5 Z"/></g>
<g><path style="opacity:0.325" fill="#b5d8ee" d="M 213.5,304.5 C 216.297,304.967 217.631,306.633 217.5,309.5C 216.197,307.858 214.864,306.191 213.5,304.5 Z"/></g>
<g><path style="opacity:0.487" fill="#8ac6e8" d="M 169.5,308.5 C 175.13,309.292 180.797,309.625 186.5,309.5C 184.359,310.163 182.025,310.497 179.5,310.5C 175.859,310.685 172.526,310.019 169.5,308.5 Z"/></g>
<g><path style="opacity:0.357" fill="#99ccea" d="M 151.5,320.5 C 154.76,321.774 157.76,323.44 160.5,325.5C 156.756,325.072 153.756,323.405 151.5,320.5 Z"/></g>
<g><path style="opacity:0.271" fill="#99ceeb" d="M 206.5,321.5 C 203.753,324.207 200.42,325.873 196.5,326.5C 199.515,324.326 202.849,322.659 206.5,321.5 Z"/></g>
<g><path style="opacity:0.264" fill="#97cceb" d="M 166.5,327.5 C 173.804,328.302 181.138,328.635 188.5,328.5C 185.686,329.165 182.686,329.498 179.5,329.5C 174.893,329.684 170.56,329.017 166.5,327.5 Z"/></g>
</svg>
