<?xml version="1.0" encoding="UTF-8"?>
<!DOCTYPE svg PUBLIC "-//W3C//DTD SVG 1.1//EN" "http://www.w3.org/Graphics/SVG/1.1/DTD/svg11.dtd">
<svg xmlns="http://www.w3.org/2000/svg" version="1.1" width="670px" height="592px" style="shape-rendering:geometricPrecision; text-rendering:geometricPrecision; image-rendering:optimizeQuality; fill-rule:evenodd; clip-rule:evenodd" xmlns:xlink="http://www.w3.org/1999/xlink">
<g><path style="opacity:0.643" fill="#e8ceb7" d="M 328.5,38.5 C 327.5,39.1667 326.5,39.8333 325.5,40.5C 324.5,40.5 323.5,40.5 322.5,40.5C 322.167,40.5 321.833,40.5 321.5,40.5C 323.515,39.0762 325.848,38.4095 328.5,38.5 Z"/></g>
<g><path style="opacity:1" fill="#d69c75" d="M 339.5,38.5 C 340.5,39.1667 341.5,39.8333 342.5,40.5C 336.833,40.5 331.167,40.5 325.5,40.5C 326.5,39.8333 327.5,39.1667 328.5,38.5C 332.117,37.3433 335.784,37.3433 339.5,38.5 Z"/></g>
<g><path style="opacity:1" fill="#cf7b40" d="M 322.5,40.5 C 323.5,40.5 324.5,40.5 325.5,40.5C 331.167,40.5 336.833,40.5 342.5,40.5C 346.595,41.6427 350.595,42.9761 354.5,44.5C 355.287,46.1042 356.62,46.7709 358.5,46.5C 358.821,48.0481 359.821,48.7148 361.5,48.5C 361.821,50.0481 362.821,50.7148 364.5,50.5C 364.5,51.8333 365.167,52.5 366.5,52.5C 368.062,52.7329 369.395,53.3995 370.5,54.5C 370.5,55.8333 371.167,56.5 372.5,56.5C 372.821,58.0481 373.821,58.7148 375.5,58.5C 375.787,61.4841 377.454,62.8174 380.5,62.5C 380.787,65.4841 382.454,66.8174 385.5,66.5C 386.71,66.9321 387.71,67.5987 388.5,68.5C 389.265,70.929 390.931,72.2623 393.5,72.5C 396.373,76.2278 400.039,78.8945 404.5,80.5C 405.5,82.1667 406.833,83.5 408.5,84.5C 383.842,85.8331 358.842,86.4998 333.5,86.5C 308.158,86.4998 283.158,85.8331 258.5,84.5C 261.432,83.2003 263.766,81.2003 265.5,78.5C 267.027,78.573 268.027,77.9063 268.5,76.5C 268.842,75.6618 269.508,75.3284 270.5,75.5C 276.723,72.1378 282.056,67.8045 286.5,62.5C 288.853,61.6597 290.853,60.3264 292.5,58.5C 293.675,58.719 294.675,58.3857 295.5,57.5C 298.136,55.3726 300.47,53.0393 302.5,50.5C 304.027,50.573 305.027,49.9063 305.5,48.5C 307.027,48.573 308.027,47.9063 308.5,46.5C 311.442,45.6955 314.109,44.3622 316.5,42.5C 319.082,42.9746 321.082,42.3079 322.5,40.5 Z"/></g>
<g><path style="opacity:0.004" fill="#ead4c3" d="M 339.5,38.5 C 345.353,38.6005 350.353,40.6005 354.5,44.5C 350.595,42.9761 346.595,41.6427 342.5,40.5C 341.5,39.8333 340.5,39.1667 339.5,38.5 Z"/></g>
<g><path style="opacity:0.996" fill="#d7a37d" d="M 321.5,40.5 C 321.833,40.5 322.167,40.5 322.5,40.5C 321.082,42.3079 319.082,42.9746 316.5,42.5C 317.78,41.0687 319.447,40.4021 321.5,40.5 Z"/></g>
<g><path style="opacity:0.318" fill="#f0dfd1" d="M 316.5,42.5 C 314.109,44.3622 311.442,45.6955 308.5,46.5C 310.579,44.127 313.246,42.7936 316.5,42.5 Z"/></g>
<g><path style="opacity:0.059" fill="#f5e8dd" d="M 354.5,44.5 C 356.153,44.6596 357.486,45.3263 358.5,46.5C 356.62,46.7709 355.287,46.1042 354.5,44.5 Z"/></g>
<g><path style="opacity:0.31" fill="#f0e3da" d="M 308.5,46.5 C 308.027,47.9063 307.027,48.573 305.5,48.5C 305.973,47.0937 306.973,46.427 308.5,46.5 Z"/></g>
<g><path style="opacity:0.078" fill="#ead9cc" d="M 358.5,46.5 C 359.71,46.9321 360.71,47.5987 361.5,48.5C 359.821,48.7148 358.821,48.0481 358.5,46.5 Z"/></g>
<g><path style="opacity:0.286" fill="#f1e5dd" d="M 305.5,48.5 C 305.027,49.9063 304.027,50.573 302.5,50.5C 302.973,49.0937 303.973,48.427 305.5,48.5 Z"/></g>
<g><path style="opacity:0.075" fill="#ebdacd" d="M 361.5,48.5 C 362.71,48.9321 363.71,49.5987 364.5,50.5C 362.821,50.7148 361.821,50.0481 361.5,48.5 Z"/></g>
<g><path style="opacity:0.643" fill="#d9c2a9" d="M 364.5,50.5 C 365.5,50.8333 366.167,51.5 366.5,52.5C 365.167,52.5 364.5,51.8333 364.5,50.5 Z"/></g>
<g><path style="opacity:0.38" fill="#ead2c2" d="M 302.5,50.5 C 300.47,53.0393 298.136,55.3726 295.5,57.5C 294.675,58.3857 293.675,58.719 292.5,58.5C 295.095,54.8743 298.428,52.2076 302.5,50.5 Z"/></g>
<g><path style="opacity:0.502" fill="#e7d7cc" d="M 370.5,54.5 C 371.5,54.8333 372.167,55.5 372.5,56.5C 371.167,56.5 370.5,55.8333 370.5,54.5 Z"/></g>
<g><path style="opacity:0.004" fill="#e2d1c2" d="M 372.5,56.5 C 373.71,56.9321 374.71,57.5987 375.5,58.5C 373.821,58.7148 372.821,58.0481 372.5,56.5 Z"/></g>
<g><path style="opacity:0.353" fill="#eddfd4" d="M 292.5,58.5 C 290.853,60.3264 288.853,61.6597 286.5,62.5C 287.802,60.1782 289.802,58.8449 292.5,58.5 Z"/></g>
<g><path style="opacity:0.98" fill="#dbaa87" d="M 375.5,58.5 C 377.191,59.8637 378.858,61.197 380.5,62.5C 377.454,62.8174 375.787,61.4841 375.5,58.5 Z"/></g>
<g><path style="opacity:0.424" fill="#ead3c3" d="M 286.5,62.5 C 282.056,67.8045 276.723,72.1378 270.5,75.5C 272.411,73.0829 274.578,70.7496 277,68.5C 277.333,68.8333 277.667,69.1667 278,69.5C 280.212,66.3241 283.045,63.9908 286.5,62.5 Z"/></g>
<g><path style="opacity:0.996" fill="#d8a37c" d="M 380.5,62.5 C 382.389,63.604 384.055,64.9373 385.5,66.5C 382.454,66.8174 380.787,65.4841 380.5,62.5 Z"/></g>
<g><path style="opacity:0.898" fill="#e4c6b0" d="M 388.5,68.5 C 390.826,69.1447 392.493,70.478 393.5,72.5C 390.931,72.2623 389.265,70.929 388.5,68.5 Z"/></g>
<g><path style="opacity:0.008" fill="#efdfd2" d="M 404.5,80.5 C 400.039,78.8945 396.373,76.2278 393.5,72.5C 394.117,72.3893 394.617,72.056 395,71.5C 398.528,74.1694 401.695,77.1694 404.5,80.5 Z"/></g>
<g><path style="opacity:0.333" fill="#f8efe6" d="M 268.5,76.5 C 268.027,77.9063 267.027,78.573 265.5,78.5C 265.973,77.0937 266.973,76.427 268.5,76.5 Z"/></g>
<g><path style="opacity:0.078" fill="#f8e8d9" d="M 404.5,80.5 C 406.749,81.0798 408.415,82.4131 409.5,84.5C 409.167,84.5 408.833,84.5 408.5,84.5C 406.833,83.5 405.5,82.1667 404.5,80.5 Z"/></g>
<g><path style="opacity:1" fill="#ba8661" d="M 258.5,84.5 C 283.158,85.8331 308.158,86.4998 333.5,86.5C 358.842,86.4998 383.842,85.8331 408.5,84.5C 408.833,84.5 409.167,84.5 409.5,84.5C 409.953,85.4584 410.619,86.2917 411.5,87C 359.665,87.8317 307.998,87.6651 256.5,86.5C 256.833,85.5 257.5,84.8333 258.5,84.5 Z"/></g>
<g><path style="opacity:1" fill="#f3c19c" d="M 409.5,84.5 C 411.027,84.427 412.027,85.0937 412.5,86.5C 386.675,87.8331 360.509,88.4998 334,88.5C 307.833,88.1667 281.667,87.8333 255.5,87.5C 255.624,86.8933 255.957,86.56 256.5,86.5C 307.998,87.6651 359.665,87.8317 411.5,87C 410.619,86.2917 409.953,85.4584 409.5,84.5 Z"/></g>
<g><path style="opacity:0.989" fill="#e2e5e6" d="M 265.5,78.5 C 263.766,81.2003 261.432,83.2003 258.5,84.5C 257.5,84.8333 256.833,85.5 256.5,86.5C 255.957,86.56 255.624,86.8933 255.5,87.5C 281.667,87.8333 307.833,88.1667 334,88.5C 360.509,88.4998 386.675,87.8331 412.5,86.5C 413.695,86.3225 414.862,85.9891 416,85.5C 422.667,86.1667 429.333,86.8333 436,87.5C 442.826,86.814 449.659,86.1473 456.5,85.5C 472.432,86.5599 488.432,86.5599 504.5,85.5C 511.594,85.5882 518.594,86.4215 525.5,88C 526.789,94.7224 527.455,101.556 527.5,108.5C 527.3,129.834 526.967,151.168 526.5,172.5C 524.506,208.151 523.84,244.151 524.5,280.5C 485.45,309.316 446.45,338.316 407.5,367.5C 404.157,368.726 401.157,368.06 398.5,365.5C 384.995,354.179 370.995,343.345 356.5,333C 339.436,323.668 322.769,324.502 306.5,335.5C 291.967,346.403 277.634,357.403 263.5,368.5C 261.051,367.775 258.717,366.775 256.5,365.5C 219.167,337.5 181.833,309.5 144.5,281.5C 143.388,280.735 142.721,279.735 142.5,278.5C 142.5,243.833 142.5,209.167 142.5,174.5C 140.62,174.229 139.287,174.896 138.5,176.5C 137.395,177.6 136.062,178.267 134.5,178.5C 136.077,176.416 137.91,174.416 140,172.5C 140.669,161.596 141.503,150.763 142.5,140C 142,139.5 141.5,139 141,138.5C 140.833,135.167 140.667,131.833 140.5,128.5C 140.689,121.711 141.355,115.044 142.5,108.5C 141.645,102.076 140.979,95.7429 140.5,89.5C 141.5,88.5 142.5,87.5 143.5,86.5C 177.238,85.8072 210.905,85.8072 244.5,86.5C 247.833,86.1667 251.167,85.8333 254.5,85.5C 257.912,82.753 261.578,80.4197 265.5,78.5 Z M 205.5,167.5 C 291.167,167.5 376.833,167.5 462.5,167.5C 462.5,178.167 462.5,188.833 462.5,199.5C 376.833,199.5 291.167,199.5 205.5,199.5C 205.5,188.833 205.5,178.167 205.5,167.5 Z M 206.5,230.5 C 291.501,230.333 376.501,230.5 461.5,231C 462.487,241.752 462.82,252.585 462.5,263.5C 376.668,263.512 291.001,263.512 205.5,263.5C 205.19,252.419 205.523,241.419 206.5,230.5 Z"/></g>
<g><path style="opacity:1" fill="#f3ddcb" d="M 526.5,172.5 C 527.5,172.833 528.167,173.5 528.5,174.5C 527.504,174.586 526.671,174.252 526,173.5C 525.5,208.498 525.333,243.498 525.5,278.5C 525.672,279.492 525.338,280.158 524.5,280.5C 523.84,244.151 524.506,208.151 526.5,172.5 Z"/></g>
<g><path style="opacity:1" fill="#cf7b40" d="M 141.5,278.5 C 121.21,263.383 101.043,248.049 81,232.5C 80.51,231.207 80.3433,229.873 80.5,228.5C 81.8333,225.167 83.1667,221.833 84.5,218.5C 85.4725,216.861 86.8058,215.527 88.5,214.5C 89.5,214.167 90.1667,213.5 90.5,212.5C 91.2623,210.738 92.5956,209.738 94.5,209.5C 97.205,207.488 99.8717,205.488 102.5,203.5C 102.5,203.167 102.5,202.833 102.5,202.5C 104.853,201.66 106.853,200.326 108.5,198.5C 110.027,198.573 111.027,197.906 111.5,196.5C 113.404,196.262 114.738,195.262 115.5,193.5C 122.054,188.73 128.387,183.73 134.5,178.5C 136.062,178.267 137.395,177.6 138.5,176.5C 139.496,176.586 140.329,176.252 141,175.5C 141.5,209.832 141.667,244.165 141.5,278.5 Z"/></g>
<g><path style="opacity:1" fill="#cf7b3f" d="M 530.5,176.5 C 530.973,177.906 531.973,178.573 533.5,178.5C 535.389,179.604 537.055,180.937 538.5,182.5C 538.973,183.906 539.973,184.573 541.5,184.5C 542.635,187.163 544.302,189.496 546.5,191.5C 548.045,192.452 549.712,192.785 551.5,192.5C 551.833,192.5 552.167,192.5 552.5,192.5C 552.81,194.144 553.81,195.144 555.5,195.5C 556.899,196.89 558.566,197.89 560.5,198.5C 561.167,199.167 561.833,199.833 562.5,200.5C 562.833,201.5 563.5,202.167 564.5,202.5C 566.027,202.427 567.027,203.094 567.5,204.5C 567.973,205.906 568.973,206.573 570.5,206.5C 570.973,207.906 571.973,208.573 573.5,208.5C 576.197,211.532 579.197,214.198 582.5,216.5C 584.944,220.955 586.944,225.621 588.5,230.5C 587.091,232.417 585.424,234.25 583.5,236C 564.629,250.375 545.629,264.542 526.5,278.5C 526.5,244.5 526.5,210.5 526.5,176.5C 527.833,176.5 529.167,176.5 530.5,176.5 Z"/></g>
<g><path style="opacity:0.078" fill="#f5e1cc" d="M 530.5,176.5 C 532.027,176.427 533.027,177.094 533.5,178.5C 531.973,178.573 530.973,177.906 530.5,176.5 Z"/></g>
<g><path style="opacity:1" fill="#d48c59" d="M 142.5,278.5 C 142.167,278.5 141.833,278.5 141.5,278.5C 141.667,244.165 141.5,209.832 141,175.5C 140.329,176.252 139.496,176.586 138.5,176.5C 139.287,174.896 140.62,174.229 142.5,174.5C 142.5,209.167 142.5,243.833 142.5,278.5 Z"/></g>
<g><path style="opacity:0.004" fill="#f7e5d3" d="M 538.5,182.5 C 540.027,182.427 541.027,183.094 541.5,184.5C 539.973,184.573 538.973,183.906 538.5,182.5 Z"/></g>
<g><path style="opacity:0.141" fill="#efe4dc" d="M 134.5,178.5 C 128.387,183.73 122.054,188.73 115.5,193.5C 117.239,190.59 119.572,188.09 122.5,186C 126.388,183.228 130.388,180.728 134.5,178.5 Z"/></g>
<g><path style="opacity:1" fill="#c29170" d="M 528.5,174.5 C 529.5,174.833 530.167,175.5 530.5,176.5C 529.167,176.5 527.833,176.5 526.5,176.5C 526.5,210.5 526.5,244.5 526.5,278.5C 526.167,278.5 525.833,278.5 525.5,278.5C 525.333,243.498 525.5,208.498 526,173.5C 526.671,174.252 527.504,174.586 528.5,174.5 Z"/></g>
<g><path style="opacity:0.004" fill="#f8e8d7" d="M 546.5,188.5 C 548.027,188.427 549.027,189.094 549.5,190.5C 547.973,190.573 546.973,189.906 546.5,188.5 Z"/></g>
<g><path style="opacity:0.996" fill="#d49568" d="M 541.5,184.5 C 543.389,185.604 545.055,186.937 546.5,188.5C 546.973,189.906 547.973,190.573 549.5,190.5C 550.5,190.833 551.167,191.5 551.5,192.5C 549.712,192.785 548.045,192.452 546.5,191.5C 544.302,189.496 542.635,187.163 541.5,184.5 Z"/></g>
<g><path style="opacity:0.027" fill="#eeded3" d="M 552.5,192.5 C 554.19,192.856 555.19,193.856 555.5,195.5C 553.81,195.144 552.81,194.144 552.5,192.5 Z"/></g>
<g><path style="opacity:0.714" fill="#e5c6ad" d="M 115.5,193.5 C 114.738,195.262 113.404,196.262 111.5,196.5C 112.262,194.738 113.596,193.738 115.5,193.5 Z"/></g>
<g><path style="opacity:0.639" fill="#eed5c1" d="M 111.5,196.5 C 111.027,197.906 110.027,198.573 108.5,198.5C 108.973,197.094 109.973,196.427 111.5,196.5 Z"/></g>
<g><path style="opacity:0.031" fill="#ebe4df" d="M 560.5,198.5 C 558.566,197.89 556.899,196.89 555.5,195.5C 557.712,194.953 559.379,195.953 560.5,198.5 Z"/></g>
<g><path style="opacity:0.084" fill="#f0e3da" d="M 108.5,198.5 C 106.853,200.326 104.853,201.66 102.5,202.5C 103.708,199.956 105.708,198.622 108.5,198.5 Z"/></g>
<g><path style="opacity:0.004" fill="#f9ead7" d="M 562.5,200.5 C 563.833,200.5 564.5,201.167 564.5,202.5C 563.5,202.167 562.833,201.5 562.5,200.5 Z"/></g>
<g><path style="opacity:0.004" fill="#f6e4d2" d="M 567.5,204.5 C 569.027,204.427 570.027,205.094 570.5,206.5C 568.973,206.573 567.973,205.906 567.5,204.5 Z"/></g>
<g><path style="opacity:0.004" fill="#faefe2" d="M 570.5,206.5 C 572.027,206.427 573.027,207.094 573.5,208.5C 571.973,208.573 570.973,207.906 570.5,206.5 Z"/></g>
<g><path style="opacity:0.337" fill="#efe1d6" d="M 102.5,203.5 C 99.8717,205.488 97.205,207.488 94.5,209.5C 95.9729,206.646 98.1395,204.312 101,202.5C 101.383,203.056 101.883,203.389 102.5,203.5 Z"/></g>
<g><path style="opacity:0.024" fill="#ede2db" d="M 573.5,208.5 C 577.746,209.745 580.746,212.412 582.5,216.5C 579.197,214.198 576.197,211.532 573.5,208.5 Z"/></g>
<g><path style="opacity:0.357" fill="#f8dfc9" d="M 90.5,212.5 C 90.1667,213.5 89.5,214.167 88.5,214.5C 88.5,213.167 89.1667,212.5 90.5,212.5 Z"/></g>
<g><path style="opacity:0.035" fill="#eee4dc" d="M 84.5,218.5 C 83.1667,221.833 81.8333,225.167 80.5,228.5C 78.9965,232.024 77.9965,235.69 77.5,239.5C 76.0806,231.32 78.414,224.32 84.5,218.5 Z"/></g>
<g><path style="opacity:1" fill="#e6a952" d="M 80.5,228.5 C 80.3433,229.873 80.51,231.207 81,232.5C 101.043,248.049 121.21,263.383 141.5,278.5C 141.833,278.5 142.167,278.5 142.5,278.5C 142.721,279.735 143.388,280.735 144.5,281.5C 181.833,309.5 219.167,337.5 256.5,365.5C 258.717,366.775 261.051,367.775 263.5,368.5C 277.634,357.403 291.967,346.403 306.5,335.5C 322.769,324.502 339.436,323.668 356.5,333C 370.995,343.345 384.995,354.179 398.5,365.5C 401.157,368.06 404.157,368.726 407.5,367.5C 446.45,338.316 485.45,309.316 524.5,280.5C 525.338,280.158 525.672,279.492 525.5,278.5C 525.833,278.5 526.167,278.5 526.5,278.5C 545.629,264.542 564.629,250.375 583.5,236C 585.424,234.25 587.091,232.417 588.5,230.5C 589.494,240.319 589.827,250.319 589.5,260.5C 589.5,266.167 589.5,271.833 589.5,277.5C 589.5,285.167 589.5,292.833 589.5,300.5C 589.5,306.167 589.5,311.833 589.5,317.5C 589.5,325.167 589.5,332.833 589.5,340.5C 589.5,346.167 589.5,351.833 589.5,357.5C 589.5,365.167 589.5,372.833 589.5,380.5C 589.5,386.167 589.5,391.833 589.5,397.5C 589.5,405.167 589.5,412.833 589.5,420.5C 589.5,426.167 589.5,431.833 589.5,437.5C 589.744,462.847 589.41,488.181 588.5,513.5C 588.5,513.833 588.5,514.167 588.5,514.5C 587.131,517.962 585.464,521.295 583.5,524.5C 577.356,521.626 571.689,517.96 566.5,513.5C 500.334,460.39 433.668,407.724 366.5,355.5C 358.716,349.583 350.383,344.75 341.5,341C 333.596,339.897 325.93,340.73 318.5,343.5C 312.234,347.099 306.234,351.099 300.5,355.5C 233.194,408.042 166.194,461.042 99.5,514.5C 94.7364,518.277 89.7364,521.611 84.5,524.5C 81.4422,518.951 79.6089,512.951 79,506.5C 78.5001,487.503 78.3334,468.503 78.5,449.5C 78.7999,379.49 78.4666,309.49 77.5,239.5C 77.9965,235.69 78.9965,232.024 80.5,228.5 Z M 206.5,230.5 C 205.523,241.419 205.19,252.419 205.5,263.5C 291.001,263.512 376.668,263.512 462.5,263.5C 462.82,252.585 462.487,241.752 461.5,231C 376.501,230.5 291.501,230.333 206.5,230.5 Z"/></g>
<g><path style="opacity:0.048" fill="#f8e9d5" d="M 582.5,216.5 C 585.967,220.167 588.467,224.501 590,229.5C 591.219,238.644 591.719,247.644 591.5,256.5C 591.006,258.026 590.339,259.359 589.5,260.5C 589.827,250.319 589.494,240.319 588.5,230.5C 586.944,225.621 584.944,220.955 582.5,216.5 Z"/></g>
<g><path style="opacity:0.043" fill="#f9ead4" d="M 589.5,277.5 C 590.222,277.918 590.722,278.584 591,279.5C 591.167,282 591.333,284.5 591.5,287C 591.054,290.343 591.054,293.51 591.5,296.5C 591.006,298.026 590.339,299.359 589.5,300.5C 589.5,292.833 589.5,285.167 589.5,277.5 Z"/></g>
<g><path style="opacity:0.043" fill="#f9ead4" d="M 589.5,317.5 C 590.222,317.918 590.722,318.584 591,319.5C 591.167,322 591.333,324.5 591.5,327C 591.054,330.343 591.054,333.51 591.5,336.5C 591.006,338.026 590.339,339.359 589.5,340.5C 589.5,332.833 589.5,325.167 589.5,317.5 Z"/></g>
<g><path style="opacity:1" fill="#f7d5a5" d="M 583.5,524.5 C 582.5,527.167 581.5,529.833 580.5,532.5C 577.833,533.833 575.833,535.833 574.5,538.5C 572.5,539.167 571.167,540.5 570.5,542.5C 567.099,543.036 564.099,544.369 561.5,546.5C 561.5,545.167 561.5,543.833 561.5,542.5C 555.356,539.626 549.689,535.96 544.5,531.5C 473.998,476.615 403.665,421.615 333.5,366.5C 259.091,425.573 184.091,483.907 108.5,541.5C 106.995,542.842 106.328,544.508 106.5,546.5C 111.013,547.788 115.68,548.788 120.5,549.5C 140.663,550.167 160.663,550.833 180.5,551.5C 158.157,551.833 135.823,551.5 113.5,550.5C 110.456,549.485 107.456,548.485 104.5,547.5C 104.611,546.883 104.944,546.383 105.5,546C 96.6063,540.607 89.6063,533.441 84.5,524.5C 89.7364,521.611 94.7364,518.277 99.5,514.5C 166.194,461.042 233.194,408.042 300.5,355.5C 306.234,351.099 312.234,347.099 318.5,343.5C 325.93,340.73 333.596,339.897 341.5,341C 350.383,344.75 358.716,349.583 366.5,355.5C 433.668,407.724 500.334,460.39 566.5,513.5C 571.689,517.96 577.356,521.626 583.5,524.5 Z"/></g>
<g><path style="opacity:0.047" fill="#f9ead4" d="M 589.5,357.5 C 590.222,357.918 590.722,358.584 591,359.5C 591.167,362 591.333,364.5 591.5,367C 591.054,370.343 591.054,373.51 591.5,376.5C 591.006,378.026 590.339,379.359 589.5,380.5C 589.5,372.833 589.5,365.167 589.5,357.5 Z"/></g>
<g><path style="opacity:0.997" fill="#f2b359" d="M 561.5,546.5 C 556.849,547.422 552.182,548.422 547.5,549.5C 547.137,550.183 546.804,550.85 546.5,551.5C 543.167,551.5 539.833,551.5 536.5,551.5C 529.018,550.508 521.352,550.175 513.5,550.5C 402.723,551.457 291.723,551.79 180.5,551.5C 160.663,550.833 140.663,550.167 120.5,549.5C 115.68,548.788 111.013,547.788 106.5,546.5C 106.328,544.508 106.995,542.842 108.5,541.5C 184.091,483.907 259.091,425.573 333.5,366.5C 403.665,421.615 473.998,476.615 544.5,531.5C 549.689,535.96 555.356,539.626 561.5,542.5C 561.5,543.833 561.5,545.167 561.5,546.5 Z"/></g>
<g><path style="opacity:0.047" fill="#f9ead4" d="M 589.5,397.5 C 590.222,397.918 590.722,398.584 591,399.5C 591.167,402 591.333,404.5 591.5,407C 591.054,410.343 591.054,413.51 591.5,416.5C 591.006,418.026 590.339,419.359 589.5,420.5C 589.5,412.833 589.5,405.167 589.5,397.5 Z"/></g>
<g><path style="opacity:0.144" fill="#fcebce" d="M 589.5,437.5 C 591.017,439.462 591.684,441.795 591.5,444.5C 590.726,464.822 590.226,485.155 590,505.5C 589.817,508.365 589.317,511.031 588.5,513.5C 589.41,488.181 589.744,462.847 589.5,437.5 Z"/></g>
<g><path style="opacity:0.576" fill="#f1dbbe" d="M 78.5,449.5 C 78.3334,468.503 78.5001,487.503 79,506.5C 79.6089,512.951 81.4422,518.951 84.5,524.5C 83.609,523.89 82.609,523.557 81.5,523.5C 80.3363,520.186 79.1696,516.852 78,513.5C 77.1706,491.996 77.3373,470.663 78.5,449.5 Z"/></g>
<g><path style="opacity:0.03" fill="#f1e9de" d="M 588.5,514.5 C 588.358,521.403 585.691,527.403 580.5,532.5C 581.5,529.833 582.5,527.167 583.5,524.5C 585.464,521.295 587.131,517.962 588.5,514.5 Z"/></g>
<g><path style="opacity:0.114" fill="#f5e2c5" d="M 81.5,523.5 C 82.609,523.557 83.609,523.89 84.5,524.5C 89.6063,533.441 96.6063,540.607 105.5,546C 104.944,546.383 104.611,546.883 104.5,547.5C 94.1177,542.117 86.451,534.117 81.5,523.5 Z"/></g>
<g><path style="opacity:0.065" fill="#eeeae5" d="M 580.5,532.5 C 579.478,535.522 577.478,537.522 574.5,538.5C 575.833,535.833 577.833,533.833 580.5,532.5 Z"/></g>
<g><path style="opacity:0.008" fill="#eeeae5" d="M 574.5,538.5 C 574.106,540.71 572.773,542.043 570.5,542.5C 571.167,540.5 572.5,539.167 574.5,538.5 Z"/></g>
<g><path style="opacity:0.125" fill="#f3dfbf" d="M 570.5,542.5 C 563.151,547.941 555.151,550.941 546.5,551.5C 546.804,550.85 547.137,550.183 547.5,549.5C 552.182,548.422 556.849,547.422 561.5,546.5C 564.099,544.369 567.099,543.036 570.5,542.5 Z"/></g>
<g><path style="opacity:0.004" fill="#edece9" d="M 513.5,550.5 C 521.352,550.175 529.018,550.508 536.5,551.5C 529.536,552.553 522.536,552.72 515.5,552C 514.584,551.722 513.918,551.222 513.5,550.5 Z"/></g>
</svg>
