<?xml version="1.0" encoding="UTF-8"?>
<!DOCTYPE svg PUBLIC "-//W3C//DTD SVG 1.1//EN" "http://www.w3.org/Graphics/SVG/1.1/DTD/svg11.dtd">
<svg xmlns="http://www.w3.org/2000/svg" version="1.1" width="100px" height="100px" style="shape-rendering:geometricPrecision; text-rendering:geometricPrecision; image-rendering:optimizeQuality; fill-rule:evenodd; clip-rule:evenodd" xmlns:xlink="http://www.w3.org/1999/xlink">
<g><path style="opacity:0.445" fill="#f0c310" d="M 59.5,10.5 C 59.334,15.8437 59.5006,21.1771 60,26.5C 61.1667,27.6667 62.3333,28.8333 63.5,30C 68.8229,30.4994 74.1563,30.666 79.5,30.5C 79.5,31.1667 79.5,31.8333 79.5,32.5C 78.6993,34.0418 78.366,35.7085 78.5,37.5C 71.5,43.8333 64.8333,50.5 58.5,57.5C 52.8333,56.1667 47.1667,56.1667 41.5,57.5C 34.5,50.8333 27.5,44.1667 20.5,37.5C 20.7845,35.5853 20.4511,33.9187 19.5,32.5C 19.3338,26.4908 19.5005,20.4908 20,14.5C 20.8333,13.5 21.6667,12.5 22.5,11.5C 34.783,10.5199 47.1164,10.1866 59.5,10.5 Z"/></g>
<g><path style="opacity:0.453" fill="#f29d11" d="M 59.5,10.5 C 66.5,16.8333 73.1667,23.5 79.5,30.5C 74.1563,30.666 68.8229,30.4994 63.5,30C 62.3333,28.8333 61.1667,27.6667 60,26.5C 59.5006,21.1771 59.334,15.8437 59.5,10.5 Z"/></g>
<g><path style="opacity:0.933" fill="#85908d" d="M 19.5,32.5 C 20.4511,33.9187 20.7845,35.5853 20.5,37.5C 20.5,38.1667 20.5,38.8333 20.5,39.5C 18.4131,38.4154 17.0798,36.7488 16.5,34.5C 17.2905,33.5987 18.2905,32.9321 19.5,32.5 Z"/></g>
<g><path style="opacity:0.992" fill="#bcc2c6" d="M 16.5,34.5 C 17.0798,36.7488 18.4131,38.4154 20.5,39.5C 26.8333,46.1667 33.1667,52.8333 39.5,59.5C 32.1123,67.8894 24.1123,75.5561 15.5,82.5C 14.8333,81.8333 14.1667,81.1667 13.5,80.5C 13.3334,66.1628 13.5001,51.8295 14,37.5C 14.2355,35.8807 15.0689,34.8807 16.5,34.5 Z"/></g>
<g><path style="opacity:0.996" fill="#bbc1c4" d="M 79.5,32.5 C 81.4258,33.2423 83.2591,34.2423 85,35.5C 85.4999,50.4963 85.6666,65.4963 85.5,80.5C 84.6618,80.8417 84.3284,81.5084 84.5,82.5C 76.2552,75.7601 68.4218,68.4268 61,60.5C 60.5357,59.9056 60.369,59.2389 60.5,58.5C 66.1305,52.3686 71.9638,46.3686 78,40.5C 78.4828,39.552 78.6495,38.552 78.5,37.5C 78.366,35.7085 78.6993,34.0418 79.5,32.5 Z"/></g>
<g><path style="opacity:0.445" fill="#f39c10" d="M 78.5,37.5 C 78.6495,38.552 78.4828,39.552 78,40.5C 71.9638,46.3686 66.1305,52.3686 60.5,58.5C 59.5084,58.6716 58.8417,58.3382 58.5,57.5C 64.8333,50.5 71.5,43.8333 78.5,37.5 Z"/></g>
<g><path style="opacity:0.451" fill="#f09c1e" d="M 20.5,37.5 C 27.5,44.1667 34.5,50.8333 41.5,57.5C 41.1667,58.5 40.5,59.1667 39.5,59.5C 33.1667,52.8333 26.8333,46.1667 20.5,39.5C 20.5,38.8333 20.5,38.1667 20.5,37.5 Z"/></g>
<g><path style="opacity:1" fill="#95a4a5" d="M 58.5,57.5 C 58.8417,58.3382 59.5084,58.6716 60.5,58.5C 60.369,59.2389 60.5357,59.9056 61,60.5C 68.4218,68.4268 76.2552,75.7601 84.5,82.5C 83.5707,83.3149 82.5707,84.1482 81.5,85C 60.1667,85.6667 38.8333,85.6667 17.5,85C 16.6195,84.2917 15.9528,83.4584 15.5,82.5C 24.1123,75.5561 32.1123,67.8894 39.5,59.5C 40.5,59.1667 41.1667,58.5 41.5,57.5C 47.1667,56.1667 52.8333,56.1667 58.5,57.5 Z"/></g>
<g><path style="opacity:0.936" fill="#7e8b8c" d="M 13.5,80.5 C 14.1667,81.1667 14.8333,81.8333 15.5,82.5C 15.9528,83.4584 16.6195,84.2917 17.5,85C 38.8333,85.6667 60.1667,85.6667 81.5,85C 82.5707,84.1482 83.5707,83.3149 84.5,82.5C 84.3284,81.5084 84.6618,80.8417 85.5,80.5C 85.9529,83.6521 84.9529,86.1521 82.5,88C 60.5,88.6667 38.5,88.6667 16.5,88C 14.253,86.005 13.253,83.505 13.5,80.5 Z"/></g>
</svg>
