<?xml version="1.0" encoding="UTF-8"?>
<!DOCTYPE svg PUBLIC "-//W3C//DTD SVG 1.1//EN" "http://www.w3.org/Graphics/SVG/1.1/DTD/svg11.dtd">
<svg xmlns="http://www.w3.org/2000/svg" version="1.1" width="512px" height="512px" style="shape-rendering:geometricPrecision; text-rendering:geometricPrecision; image-rendering:optimizeQuality; fill-rule:evenodd; clip-rule:evenodd" xmlns:xlink="http://www.w3.org/1999/xlink">
<g><path style="opacity:0.986" fill="#00f0ff" d="M 74.5,31.5 C 56.8333,49.8333 38.8333,67.8333 20.5,85.5C 18.8545,47.8121 36.8545,29.8121 74.5,31.5 Z"/></g>
<g><path style="opacity:0.995" fill="#00eaff" d="M 74.5,31.5 C 81.8333,31.5 89.1667,31.5 96.5,31.5C 71.5,57.1667 46.1667,82.5 20.5,107.5C 20.5,100.167 20.5,92.8333 20.5,85.5C 38.8333,67.8333 56.8333,49.8333 74.5,31.5 Z"/></g>
<g><path style="opacity:0.996" fill="#00e3ff" d="M 96.5,31.5 C 104.833,31.5 113.167,31.5 121.5,31.5C 88.1667,65.5 54.5,99.1667 20.5,132.5C 20.5,124.167 20.5,115.833 20.5,107.5C 46.1667,82.5 71.5,57.1667 96.5,31.5 Z"/></g>
<g><path style="opacity:0.997" fill="#00ddff" d="M 121.5,31.5 C 129.167,31.5 136.833,31.5 144.5,31.5C 103.5,73.1667 62.1667,114.5 20.5,155.5C 20.5,147.833 20.5,140.167 20.5,132.5C 54.5,99.1667 88.1667,65.5 121.5,31.5 Z"/></g>
<g><path style="opacity:0.998" fill="#00d7ff" d="M 144.5,31.5 C 151.833,31.5 159.167,31.5 166.5,31.5C 118.167,80.5 69.5,129.167 20.5,177.5C 20.5,170.167 20.5,162.833 20.5,155.5C 62.1667,114.5 103.5,73.1667 144.5,31.5 Z"/></g>
<g><path style="opacity:0.998" fill="#00d1ff" d="M 166.5,31.5 C 173.833,31.5 181.167,31.5 188.5,31.5C 132.833,87.8333 76.8333,143.833 20.5,199.5C 20.5,192.167 20.5,184.833 20.5,177.5C 69.5,129.167 118.167,80.5 166.5,31.5 Z"/></g>
<g><path style="opacity:0.996" fill="#00caff" d="M 188.5,31.5 C 196.833,31.5 205.167,31.5 213.5,31.5C 174.535,70.9654 135.368,110.299 96,149.5C 95.5357,150.094 95.369,150.761 95.5,151.5C 86.1888,154.811 79.8554,161.145 76.5,170.5C 57.9183,187.579 39.7516,205.246 22,223.5C 21.8019,225.382 21.3019,227.048 20.5,228.5C 20.5,218.833 20.5,209.167 20.5,199.5C 76.8333,143.833 132.833,87.8333 188.5,31.5 Z"/></g>
<g><path style="opacity:0.997" fill="#00c4ff" d="M 213.5,31.5 C 221.167,31.5 228.833,31.5 236.5,31.5C 197.535,70.9654 158.368,110.299 119,149.5C 118.536,150.094 118.369,150.761 118.5,151.5C 110.803,148.884 103.136,148.884 95.5,151.5C 95.369,150.761 95.5357,150.094 96,149.5C 135.368,110.299 174.535,70.9654 213.5,31.5 Z"/></g>
<g><path style="opacity:0.998" fill="#00beff" d="M 236.5,31.5 C 243.833,31.5 251.167,31.5 258.5,31.5C 216.118,74.8829 173.118,117.55 129.5,159.5C 125.973,156.577 122.306,153.91 118.5,151.5C 118.369,150.761 118.536,150.094 119,149.5C 158.368,110.299 197.535,70.9654 236.5,31.5 Z"/></g>
<g><path style="opacity:0.997" fill="#00b8ff" d="M 258.5,31.5 C 265.833,31.5 273.167,31.5 280.5,31.5C 233.167,79.5 185.5,127.167 137.5,174.5C 135.643,169.122 132.976,164.122 129.5,159.5C 173.118,117.55 216.118,74.8829 258.5,31.5 Z"/></g>
<g><path style="opacity:0.995" fill="#00b1ff" d="M 280.5,31.5 C 288.833,31.5 297.167,31.5 305.5,31.5C 304.918,32.9311 304.085,34.2644 303,35.5C 208.662,129.026 114.828,222.693 21.5,316.5C 20.5084,309.352 20.175,302.019 20.5,294.5C 21.29,293.391 21.79,292.058 22,290.5C 48.3682,264.299 74.5349,237.965 100.5,211.5C 125.72,212.28 138.053,199.947 137.5,174.5C 185.5,127.167 233.167,79.5 280.5,31.5 Z"/></g>
<g><path style="opacity:0.995" fill="#00abff" d="M 305.5,31.5 C 313.167,31.5 320.833,31.5 328.5,31.5C 289.5,70.8333 250.5,110.167 211.5,149.5C 193.367,151.966 183.367,162.3 181.5,180.5C 130.25,230.249 79.4167,280.582 29,331.5C 28.5357,332.094 28.369,332.761 28.5,333.5C 24.4301,328.642 22.0968,322.975 21.5,316.5C 114.828,222.693 208.662,129.026 303,35.5C 304.085,34.2644 304.918,32.9311 305.5,31.5 Z"/></g>
<g><path style="opacity:0.997" fill="#00a5ff" d="M 328.5,31.5 C 335.833,31.5 343.167,31.5 350.5,31.5C 310.535,71.9654 270.368,112.299 230,152.5C 229.536,153.094 229.369,153.761 229.5,154.5C 224.08,150.977 218.08,149.31 211.5,149.5C 250.5,110.167 289.5,70.8333 328.5,31.5 Z"/></g>
<g><path style="opacity:0.998" fill="#009fff" d="M 350.5,31.5 C 357.687,31.1755 364.687,31.5088 371.5,32.5C 328.118,76.8828 284.118,120.549 239.5,163.5C 236.815,159.817 233.482,156.817 229.5,154.5C 229.369,153.761 229.536,153.094 230,152.5C 270.368,112.299 310.535,71.9654 350.5,31.5 Z"/></g>
<g><path style="opacity:0.996" fill="#0098ff" d="M 371.5,32.5 C 378.629,33.3977 384.629,36.3977 389.5,41.5C 340.473,89.8604 291.806,138.527 243.5,187.5C 245.054,179.044 243.721,171.044 239.5,163.5C 284.118,120.549 328.118,76.8828 371.5,32.5 Z"/></g>
<g><path style="opacity:0.997" fill="#0092ff" d="M 389.5,41.5 C 391.371,41.8588 392.871,42.8588 394,44.5C 396.483,47.1393 398.316,50.1393 399.5,53.5C 299.833,152.5 200.5,251.833 101.5,351.5C 94.1667,351.5 86.8333,351.5 79.5,351.5C 125.86,304.473 172.527,257.806 219.5,211.5C 231.833,207.833 239.833,199.833 243.5,187.5C 291.806,138.527 340.473,89.8604 389.5,41.5 Z"/></g>
<g><path style="opacity:0.994" fill="#008cff" d="M 399.5,53.5 C 403.077,59.2362 405.077,65.5695 405.5,72.5C 404.778,72.0825 404.278,71.4158 404,70.5C 377.632,96.7013 351.465,123.035 325.5,149.5C 307.072,148.123 294.905,156.123 289,173.5C 288.502,176.817 288.335,180.15 288.5,183.5C 287.71,184.609 287.21,185.942 287,187.5C 230.299,244.368 173.465,301.035 116.5,357.5C 116.5,355.5 116.5,353.5 116.5,351.5C 111.5,351.5 106.5,351.5 101.5,351.5C 200.5,251.833 299.833,152.5 399.5,53.5 Z"/></g>
<g><path style="opacity:0.987" fill="#0086ff" d="M 405.5,72.5 C 405.5,79.8333 405.5,87.1667 405.5,94.5C 404.778,94.0825 404.278,93.4158 404,92.5C 382.632,114.035 361.132,135.368 339.5,156.5C 335.036,153.601 330.37,151.268 325.5,149.5C 351.465,123.035 377.632,96.7013 404,70.5C 404.278,71.4158 404.778,72.0825 405.5,72.5 Z"/></g>
<g><path style="opacity:0.984" fill="#0080ff" d="M 405.5,94.5 C 405.5,102.167 405.5,109.833 405.5,117.5C 387.368,135.132 369.368,152.965 351.5,171C 350.906,171.464 350.239,171.631 349.5,171.5C 347.419,165.673 344.086,160.673 339.5,156.5C 361.132,135.368 382.632,114.035 404,92.5C 404.278,93.4158 404.778,94.0825 405.5,94.5 Z"/></g>
<g><path style="opacity:0.978" fill="#0079ff" d="M 405.5,117.5 C 405.5,124.833 405.5,132.167 405.5,139.5C 386.201,158.298 367.035,177.298 348,196.5C 347.601,196.272 347.435,195.938 347.5,195.5C 350.596,187.731 351.263,179.731 349.5,171.5C 350.239,171.631 350.906,171.464 351.5,171C 369.368,152.965 387.368,135.132 405.5,117.5 Z"/></g>
<g><path style="opacity:0.989" fill="#0073ff" d="M 405.5,139.5 C 405.5,146.833 405.5,154.167 405.5,161.5C 341.833,224.5 278.5,287.833 215.5,351.5C 189.199,375.326 162.865,399.159 136.5,423C 131.698,426.895 126.698,427.395 121.5,424.5C 121.369,423.761 121.536,423.094 122,422.5C 193.368,351.299 264.535,279.965 335.5,208.5C 340.208,204.793 344.208,200.46 347.5,195.5C 347.435,195.938 347.601,196.272 348,196.5C 367.035,177.298 386.201,158.298 405.5,139.5 Z"/></g>
<g><path style="opacity:0.996" fill="#006dff" d="M 405.5,161.5 C 405.5,168.833 405.5,176.167 405.5,183.5C 349.167,239.167 293.167,295.167 237.5,351.5C 230.167,351.5 222.833,351.5 215.5,351.5C 278.5,287.833 341.833,224.5 405.5,161.5 Z"/></g>
<g><path style="opacity:0.99" fill="#00c4ff" d="M 76.5,170.5 C 73.9937,177.807 73.9937,185.141 76.5,192.5C 58.2014,210.298 40.0347,228.298 22,246.5C 21.79,248.058 21.29,249.391 20.5,250.5C 20.5,243.167 20.5,235.833 20.5,228.5C 21.3019,227.048 21.8019,225.382 22,223.5C 39.7516,205.246 57.9183,187.579 76.5,170.5 Z"/></g>
<g><path style="opacity:0.996" fill="#00a5ff" d="M 181.5,180.5 C 181.471,186.726 183.137,192.393 186.5,197.5C 185.761,197.369 185.094,197.536 184.5,198C 135.965,246.701 87.2987,295.201 38.5,343.5C 34.1667,341.167 30.8333,337.833 28.5,333.5C 28.369,332.761 28.5357,332.094 29,331.5C 79.4167,280.582 130.25,230.249 181.5,180.5 Z"/></g>
<g><path style="opacity:0.996" fill="#0086ff" d="M 288.5,183.5 C 289.097,189.688 291.097,195.354 294.5,200.5C 235.882,260.784 176.549,320.451 116.5,379.5C 116.5,372.167 116.5,364.833 116.5,357.5C 173.465,301.035 230.299,244.368 287,187.5C 287.21,185.942 287.71,184.609 288.5,183.5 Z"/></g>
<g><path style="opacity:0.996" fill="#0067ff" d="M 405.5,183.5 C 405.5,190.833 405.5,198.167 405.5,205.5C 404.698,206.952 404.198,208.618 404,210.5C 356.965,257.368 310.132,304.368 263.5,351.5C 254.833,351.5 246.167,351.5 237.5,351.5C 293.167,295.167 349.167,239.167 405.5,183.5 Z"/></g>
<g><path style="opacity:0.99" fill="#00beff" d="M 76.5,192.5 C 78.91,196.306 81.5766,199.973 84.5,203.5C 84.6495,204.552 84.4828,205.552 84,206.5C 63.3333,227.167 42.6667,247.833 22,268.5C 21.79,270.058 21.29,271.391 20.5,272.5C 20.5,265.167 20.5,257.833 20.5,250.5C 21.29,249.391 21.79,248.058 22,246.5C 40.0347,228.298 58.2014,210.298 76.5,192.5 Z"/></g>
<g><path style="opacity:0.995" fill="#009fff" d="M 186.5,197.5 C 189.194,202.194 192.861,205.861 197.5,208.5C 149.216,255.117 101.549,302.451 54.5,350.5C 48.3907,349.775 43.0573,347.442 38.5,343.5C 87.2987,295.201 135.965,246.701 184.5,198C 185.094,197.536 185.761,197.369 186.5,197.5 Z"/></g>
<g><path style="opacity:0.996" fill="#007fff" d="M 294.5,200.5 C 299.209,205.179 304.543,208.846 310.5,211.5C 246.535,275.965 182.368,340.299 118,404.5C 117.79,406.058 117.29,407.391 116.5,408.5C 116.5,398.833 116.5,389.167 116.5,379.5C 176.549,320.451 235.882,260.784 294.5,200.5 Z"/></g>
<g><path style="opacity:0.99" fill="#00b8ff" d="M 84.5,203.5 C 89.0026,207.751 94.336,210.418 100.5,211.5C 74.5349,237.965 48.3682,264.299 22,290.5C 21.79,292.058 21.29,293.391 20.5,294.5C 20.5,287.167 20.5,279.833 20.5,272.5C 21.29,271.391 21.79,270.058 22,268.5C 42.6667,247.833 63.3333,227.167 84,206.5C 84.4828,205.552 84.6495,204.552 84.5,203.5 Z"/></g>
<g><path style="opacity:0.995" fill="#0060ff" d="M 405.5,205.5 C 405.5,212.833 405.5,220.167 405.5,227.5C 404.698,228.952 404.198,230.618 404,232.5C 364.299,272.035 324.799,311.701 285.5,351.5C 278.167,351.5 270.833,351.5 263.5,351.5C 310.132,304.368 356.965,257.368 404,210.5C 404.198,208.618 404.698,206.952 405.5,205.5 Z"/></g>
<g><path style="opacity:0.997" fill="#0098ff" d="M 197.5,208.5 C 204.497,212.084 211.831,213.084 219.5,211.5C 172.527,257.806 125.86,304.473 79.5,351.5C 70.9832,351.826 62.6499,351.493 54.5,350.5C 101.549,302.451 149.216,255.117 197.5,208.5 Z"/></g>
<g><path style="opacity:0.997" fill="#0079ff" d="M 335.5,208.5 C 264.535,279.965 193.368,351.299 122,422.5C 121.536,423.094 121.369,423.761 121.5,424.5C 119.156,423.653 117.656,421.986 117,419.5C 116.501,415.848 116.335,412.182 116.5,408.5C 117.29,407.391 117.79,406.058 118,404.5C 182.368,340.299 246.535,275.965 310.5,211.5C 319.165,213.208 327.499,212.208 335.5,208.5 Z"/></g>
<g><path style="opacity:0.958" fill="#004fff" d="M 473.5,231.5 C 469.167,237.833 463.833,243.167 457.5,247.5C 449.634,245.847 441.634,245.013 433.5,245C 423.664,238.964 422.997,231.964 431.5,224C 440.167,223.333 448.833,223.333 457.5,224C 463.316,225.652 468.65,228.152 473.5,231.5 Z"/></g>
<g><path style="opacity:0.994" fill="#005aff" d="M 405.5,227.5 C 405.5,234.833 405.5,242.167 405.5,249.5C 404.698,250.952 404.198,252.618 404,254.5C 371.632,286.701 339.465,319.035 307.5,351.5C 300.167,351.5 292.833,351.5 285.5,351.5C 324.799,311.701 364.299,272.035 404,232.5C 404.198,230.618 404.698,228.952 405.5,227.5 Z"/></g>
<g><path style="opacity:0.963" fill="#0043ff" d="M 473.5,231.5 C 483.589,239.341 489.256,249.674 490.5,262.5C 489.883,262.389 489.383,262.056 489,261.5C 482.298,268.369 475.465,275.036 468.5,281.5C 468.856,273.762 468.356,266.095 467,258.5C 464.686,254.025 461.52,250.358 457.5,247.5C 463.833,243.167 469.167,237.833 473.5,231.5 Z"/></g>
<g><path style="opacity:0.992" fill="#0054ff" d="M 405.5,249.5 C 405.5,256.833 405.5,264.167 405.5,271.5C 404.698,272.952 404.198,274.618 404,276.5C 378.965,301.368 354.132,326.368 329.5,351.5C 322.167,351.5 314.833,351.5 307.5,351.5C 339.465,319.035 371.632,286.701 404,254.5C 404.198,252.618 404.698,250.952 405.5,249.5 Z"/></g>
<g><path style="opacity:0.97" fill="#003bff" d="M 490.5,262.5 C 490.5,269.167 490.5,275.833 490.5,282.5C 483.167,289.5 475.833,296.5 468.5,303.5C 468.5,296.167 468.5,288.833 468.5,281.5C 475.465,275.036 482.298,268.369 489,261.5C 489.383,262.056 489.883,262.389 490.5,262.5 Z"/></g>
<g><path style="opacity:0.987" fill="#004eff" d="M 405.5,271.5 C 405.5,282.5 405.5,293.5 405.5,304.5C 404.778,304.082 404.278,303.416 404,302.5C 387.632,318.701 371.465,335.035 355.5,351.5C 346.833,351.5 338.167,351.5 329.5,351.5C 354.132,326.368 378.965,301.368 404,276.5C 404.198,274.618 404.698,272.952 405.5,271.5 Z"/></g>
<g><path style="opacity:0.967" fill="#0034ff" d="M 490.5,282.5 C 490.5,292.167 490.5,301.833 490.5,311.5C 489.778,311.082 489.278,310.416 489,309.5C 482.667,315.833 476.333,322.167 470,328.5C 469.79,330.058 469.29,331.391 468.5,332.5C 468.5,322.833 468.5,313.167 468.5,303.5C 475.833,296.5 483.167,289.5 490.5,282.5 Z"/></g>
<g><path style="opacity:0.974" fill="#0047ff" d="M 405.5,304.5 C 404.312,336.689 387.645,352.356 355.5,351.5C 371.465,335.035 387.632,318.701 404,302.5C 404.278,303.416 404.778,304.082 405.5,304.5 Z"/></g>
<g><path style="opacity:0.97" fill="#002aff" d="M 490.5,311.5 C 490.5,326.167 490.5,340.833 490.5,355.5C 489.778,355.082 489.278,354.416 489,353.5C 482.667,359.833 476.333,366.167 470,372.5C 469.79,374.058 469.29,375.391 468.5,376.5C 468.5,361.833 468.5,347.167 468.5,332.5C 469.29,331.391 469.79,330.058 470,328.5C 476.333,322.167 482.667,315.833 489,309.5C 489.278,310.416 489.778,311.082 490.5,311.5 Z"/></g>
<g><path style="opacity:0.977" fill="#0022ff" d="M 490.5,355.5 C 490.5,363.167 490.5,370.833 490.5,378.5C 489.732,377.737 489.232,376.737 489,375.5C 472.5,392 456,408.5 439.5,425C 440.737,425.232 441.737,425.732 442.5,426.5C 440.585,426.216 438.919,426.549 437.5,427.5C 425.833,438.5 414.5,449.833 403.5,461.5C 399.167,457.833 395.167,453.833 391.5,449.5C 397.167,444.833 402.833,440.167 408.5,435.5C 410.797,437.294 412.963,439.294 415,441.5C 415.333,431.167 415.667,420.833 416,410.5C 417.251,407.619 419.417,405.786 422.5,405C 432.167,404.667 441.833,404.333 451.5,404C 464.65,399.645 470.317,390.479 468.5,376.5C 469.29,375.391 469.79,374.058 470,372.5C 476.333,366.167 482.667,359.833 489,353.5C 489.278,354.416 489.778,355.082 490.5,355.5 Z"/></g>
<g><path style="opacity:0.972" fill="#001cff" d="M 490.5,378.5 C 490.167,410.167 474.167,426.167 442.5,426.5C 441.737,425.732 440.737,425.232 439.5,425C 456,408.5 472.5,392 489,375.5C 489.232,376.737 489.732,377.737 490.5,378.5 Z"/></g>
<g><path style="opacity:0.959" fill="#005cff" d="M 261.5,398.5 C 255.89,402.772 250.557,407.438 245.5,412.5C 236.835,403.678 233.002,393.012 234,380.5C 238.317,372.085 244.483,370.418 252.5,375.5C 253.333,376.5 254.167,377.5 255,378.5C 255.377,385.825 257.544,392.491 261.5,398.5 Z"/></g>
<g><path style="opacity:0.968" fill="#004fff" d="M 261.5,398.5 C 265.095,401.129 269.095,402.963 273.5,404C 282.827,404.5 292.161,404.666 301.5,404.5C 294.5,411.833 287.5,419.167 280.5,426.5C 266.339,427.571 254.672,422.904 245.5,412.5C 250.557,407.438 255.89,402.772 261.5,398.5 Z"/></g>
<g><path style="opacity:0.97" fill="#0047ff" d="M 301.5,404.5 C 308.833,404.5 316.167,404.5 323.5,404.5C 316.5,411.833 309.5,419.167 302.5,426.5C 295.167,426.5 287.833,426.5 280.5,426.5C 287.5,419.167 294.5,411.833 301.5,404.5 Z"/></g>
<g><path style="opacity:0.97" fill="#0041ff" d="M 323.5,404.5 C 330.833,404.5 338.167,404.5 345.5,404.5C 338.5,411.833 331.5,419.167 324.5,426.5C 317.167,426.5 309.833,426.5 302.5,426.5C 309.5,419.167 316.5,411.833 323.5,404.5 Z"/></g>
<g><path style="opacity:0.97" fill="#003bff" d="M 345.5,404.5 C 352.833,404.5 360.167,404.5 367.5,404.5C 360.5,411.833 353.5,419.167 346.5,426.5C 339.167,426.5 331.833,426.5 324.5,426.5C 331.5,419.167 338.5,411.833 345.5,404.5 Z"/></g>
<g><path style="opacity:0.963" fill="#0035ff" d="M 367.5,404.5 C 375.251,403.378 381.251,406.045 385.5,412.5C 380.5,417.833 375.5,423.167 370.5,428.5C 369.711,428.217 369.044,427.717 368.5,427C 361.174,426.5 353.841,426.334 346.5,426.5C 353.5,419.167 360.5,411.833 367.5,404.5 Z"/></g>
<g><path style="opacity:0.958" fill="#002aff" d="M 385.5,412.5 C 393.5,419.833 401.167,427.5 408.5,435.5C 402.833,440.167 397.167,444.833 391.5,449.5C 384.167,442.833 377.167,435.833 370.5,428.5C 375.5,423.167 380.5,417.833 385.5,412.5 Z"/></g>
<g><path style="opacity:0.968" fill="#001bff" d="M 437.5,427.5 C 437.953,443.238 437.453,458.904 436,474.5C 432.301,479.272 427.467,480.772 421.5,479C 414.996,473.663 408.996,467.829 403.5,461.5C 414.5,449.833 425.833,438.5 437.5,427.5 Z"/></g>
</svg>
