<?xml version="1.0" encoding="UTF-8"?>
<!DOCTYPE svg PUBLIC "-//W3C//DTD SVG 1.1//EN" "http://www.w3.org/Graphics/SVG/1.1/DTD/svg11.dtd">
<svg xmlns="http://www.w3.org/2000/svg" version="1.1" width="512px" height="512px" style="shape-rendering:geometricPrecision; text-rendering:geometricPrecision; image-rendering:optimizeQuality; fill-rule:evenodd; clip-rule:evenodd" xmlns:xlink="http://www.w3.org/1999/xlink">
<g><path style="opacity:0.986" fill="#a2e0fe" d="M 376.5,-0.5 C 386.5,-0.5 396.5,-0.5 406.5,-0.5C 465.167,10.8333 500.167,45.8333 511.5,104.5C 511.5,114.5 511.5,124.5 511.5,134.5C 507.653,158.863 497.819,180.529 482,199.5C 445.833,235.667 409.667,271.833 373.5,308C 361.327,318.75 347.66,326.916 332.5,332.5C 317.881,335.945 303.047,337.945 288,338.5C 275.859,337.616 264.025,335.283 252.5,331.5C 216.5,318.833 192.167,294.5 179.5,258.5C 189.329,246.507 202.163,240.507 218,240.5C 229.939,240.591 240.772,244.091 250.5,251C 267.657,269.789 288.323,275.123 312.5,267C 317.997,264.755 322.997,261.755 327.5,258C 329.464,256.549 330.797,254.716 331.5,252.5C 367.189,217.978 402.023,182.644 436,146.5C 447.091,125.083 445.424,104.75 431,85.5C 407.989,63.849 383.489,62.0156 357.5,80C 324.299,113.035 291.299,146.201 258.5,179.5C 232.259,170.62 205.926,170.286 179.5,178.5C 184.229,163.04 192.063,149.373 203,137.5C 239.167,101.333 275.333,65.1667 311.5,29C 330.471,13.1806 352.137,3.34726 376.5,-0.5 Z"/></g>
<g><path style="opacity:0.986" fill="#4aaee2" d="M 258.5,179.5 C 294.5,192.167 318.833,216.5 331.5,252.5C 330.797,254.716 329.464,256.549 327.5,258C 322.997,261.755 317.997,264.755 312.5,267C 288.323,275.123 267.657,269.789 250.5,251C 240.772,244.091 229.939,240.591 218,240.5C 202.163,240.507 189.329,246.507 179.5,258.5C 143.811,293.022 108.977,328.356 75,364.5C 63.9089,385.917 65.5755,406.25 80,425.5C 99.641,444.634 121.808,448.134 146.5,436C 182.644,402.023 217.978,367.189 252.5,331.5C 264.025,335.283 275.859,337.616 288,338.5C 303.047,337.945 317.881,335.945 332.5,332.5C 326.888,347.729 318.721,361.396 308,373.5C 271.833,409.667 235.667,445.833 199.5,482C 180.529,497.819 158.863,507.653 134.5,511.5C 124.5,511.5 114.5,511.5 104.5,511.5C 45.8333,500.167 10.8333,465.167 -0.5,406.5C -0.5,396.5 -0.5,386.5 -0.5,376.5C 3.34726,352.137 13.1806,330.471 29,311.5C 65.1667,275.333 101.333,239.167 137.5,203C 149.815,192.007 163.815,183.84 179.5,178.5C 205.926,170.286 232.259,170.62 258.5,179.5 Z"/></g>
</svg>
