<?xml version="1.0" encoding="UTF-8"?>
<!DOCTYPE svg PUBLIC "-//W3C//DTD SVG 1.1//EN" "http://www.w3.org/Graphics/SVG/1.1/DTD/svg11.dtd">
<svg xmlns="http://www.w3.org/2000/svg" version="1.1" width="383px" height="219px" style="shape-rendering:geometricPrecision; text-rendering:geometricPrecision; image-rendering:optimizeQuality; fill-rule:evenodd; clip-rule:evenodd" xmlns:xlink="http://www.w3.org/1999/xlink">
<g><path style="opacity:1" fill="#249f41" d="M -0.5,-0.5 C 127.167,-0.5 254.833,-0.5 382.5,-0.5C 382.5,23.8333 382.5,48.1667 382.5,72.5C 380.585,72.7845 378.919,72.4511 377.5,71.5C 375.022,70.8359 372.355,70.5025 369.5,70.5C 366.41,70.5217 363.743,71.1883 361.5,72.5C 360.833,72.5 360.5,72.1667 360.5,71.5C 358.022,70.8359 355.355,70.5025 352.5,70.5C 349.41,70.5217 346.743,71.1883 344.5,72.5C 343.833,72.5 343.5,72.1667 343.5,71.5C 341.022,70.8359 338.355,70.5025 335.5,70.5C 332.41,70.5217 329.743,71.1883 327.5,72.5C 321.5,69.8333 315.5,69.8333 309.5,72.5C 307.257,71.1883 304.59,70.5217 301.5,70.5C 298.41,70.5217 295.743,71.1883 293.5,72.5C 287.5,69.8333 281.5,69.8333 275.5,72.5C 273.257,71.1883 270.59,70.5217 267.5,70.5C 264.41,70.5217 261.743,71.1883 259.5,72.5C 253.5,69.8333 247.5,69.8333 241.5,72.5C 239.257,71.1883 236.59,70.5217 233.5,70.5C 230.41,70.5217 227.743,71.1883 225.5,72.5C 222.769,71.2703 219.769,70.6036 216.5,70.5C 213.387,70.5623 210.554,71.2289 208,72.5C 205.446,71.2289 202.613,70.5623 199.5,70.5C 196.387,70.5623 193.554,71.2289 191,72.5C 188.446,71.2289 185.613,70.5623 182.5,70.5C 179.387,70.5623 176.554,71.2289 174,72.5C 171.446,71.2289 168.613,70.5623 165.5,70.5C 162.231,70.6036 159.231,71.2703 156.5,72.5C 154.257,71.1883 151.59,70.5217 148.5,70.5C 145.41,70.5217 142.743,71.1883 140.5,72.5C 140.167,72.5 139.833,72.5 139.5,72.5C 137.257,71.1883 134.59,70.5217 131.5,70.5C 128.41,70.5217 125.743,71.1883 123.5,72.5C 123.167,72.5 122.833,72.5 122.5,72.5C 120.257,71.1883 117.59,70.5217 114.5,70.5C 111.41,70.5217 108.743,71.1883 106.5,72.5C 106.167,72.5 105.833,72.5 105.5,72.5C 103.257,71.1883 100.59,70.5217 97.5,70.5C 94.4098,70.5217 91.7432,71.1883 89.5,72.5C 89.1667,72.5 88.8333,72.5 88.5,72.5C 86.2568,71.1883 83.5902,70.5217 80.5,70.5C 77.4098,70.5217 74.7432,71.1883 72.5,72.5C 72.1667,72.5 71.8333,72.5 71.5,72.5C 69.2568,71.1883 66.5902,70.5217 63.5,70.5C 60.4098,70.5217 57.7432,71.1883 55.5,72.5C 55.1667,72.5 54.8333,72.5 54.5,72.5C 52.2568,71.1883 49.5902,70.5217 46.5,70.5C 43.6445,70.5025 40.9779,70.8359 38.5,71.5C 38.5,72.1667 38.1667,72.5 37.5,72.5C 35.2568,71.1883 32.5902,70.5217 29.5,70.5C 26.6445,70.5025 23.9779,70.8359 21.5,71.5C 21.5,72.1667 21.1667,72.5 20.5,72.5C 18.2568,71.1883 15.5902,70.5217 12.5,70.5C 9.64455,70.5025 6.97788,70.8359 4.5,71.5C 3.08134,72.4511 1.41467,72.7845 -0.5,72.5C -0.5,48.1667 -0.5,23.8333 -0.5,-0.5 Z"/></g>
<g><path style="opacity:1" fill="#d9eede" d="M 4.5,60.5 C 11.8635,60.1694 19.1968,60.5027 26.5,61.5C 22.8333,61.8333 19.1667,62.1667 15.5,62.5C 11.4348,62.4888 7.76809,61.8222 4.5,60.5 Z"/></g>
<g><path style="opacity:1" fill="#e2f2e6" d="M 36.5,60.5 C 36.5,63.1667 36.5,65.8333 36.5,68.5C 33.8333,68.5 31.1667,68.5 28.5,68.5C 28.5,67.5 28.5,66.5 28.5,65.5C 23.557,65.2876 22.8903,66.2876 26.5,68.5C 24.9547,69.4519 23.288,69.7852 21.5,69.5C 21.5,67.5 21.5,65.5 21.5,63.5C 23.8333,63.5 26.1667,63.5 28.5,63.5C 28.281,62.325 28.6143,61.325 29.5,60.5C 30.3142,62.7662 30.8142,65.0995 31,67.5C 31.8618,58.2335 33.0285,58.2335 34.5,67.5C 35.1681,65.0312 35.8347,62.6979 36.5,60.5 Z"/></g>
<g><path style="opacity:1" fill="#d9eedd" d="M 38.5,60.5 C 45.8635,60.1694 53.1968,60.5027 60.5,61.5C 56.8333,61.8333 53.1667,62.1667 49.5,62.5C 45.4348,62.4888 41.7681,61.8222 38.5,60.5 Z"/></g>
<g><path style="opacity:1" fill="#d7eddb" d="M 62.5,60.5 C 64.1969,62.3052 65.0302,64.6385 65,67.5C 65.8618,58.2335 67.0285,58.2335 68.5,67.5C 69.1667,65.1667 69.8333,62.8333 70.5,60.5C 71.4841,63.4281 71.8174,66.4281 71.5,69.5C 68.5,69.5 65.5,69.5 62.5,69.5C 62.5,68.1667 62.5,66.8333 62.5,65.5C 57.557,65.2876 56.8903,66.2876 60.5,68.5C 58.9547,69.4519 57.288,69.7852 55.5,69.5C 55.5,67.5 55.5,65.5 55.5,63.5C 57.8333,63.5 60.1667,63.5 62.5,63.5C 62.5,62.5 62.5,61.5 62.5,60.5 Z"/></g>
<g><path style="opacity:1" fill="#d8eddd" d="M 72.5,60.5 C 79.8635,60.1694 87.1968,60.5027 94.5,61.5C 90.8333,61.8333 87.1667,62.1667 83.5,62.5C 79.4348,62.4888 75.7681,61.8222 72.5,60.5 Z"/></g>
<g><path style="opacity:1" fill="#d6eddb" d="M 96.5,60.5 C 98.1969,62.3052 99.0302,64.6385 99,67.5C 99.8618,58.2335 101.028,58.2335 102.5,67.5C 103.167,65.1667 103.833,62.8333 104.5,60.5C 105.484,63.4281 105.817,66.4281 105.5,69.5C 102.5,69.5 99.5,69.5 96.5,69.5C 96.5,68.1667 96.5,66.8333 96.5,65.5C 91.557,65.2876 90.8903,66.2876 94.5,68.5C 92.9547,69.4519 91.288,69.7852 89.5,69.5C 89.5,67.5 89.5,65.5 89.5,63.5C 91.8333,63.5 94.1667,63.5 96.5,63.5C 96.5,62.5 96.5,61.5 96.5,60.5 Z"/></g>
<g><path style="opacity:1" fill="#d8eddd" d="M 106.5,60.5 C 113.863,60.1694 121.197,60.5027 128.5,61.5C 124.833,61.8333 121.167,62.1667 117.5,62.5C 113.435,62.4888 109.768,61.8222 106.5,60.5 Z"/></g>
<g><path style="opacity:1" fill="#d7eddc" d="M 140.5,60.5 C 147.863,60.1694 155.197,60.5027 162.5,61.5C 158.833,61.8333 155.167,62.1667 151.5,62.5C 147.435,62.4888 143.768,61.8222 140.5,60.5 Z"/></g>
<g><path style="opacity:1" fill="#f6fbf7" d="M 172.5,60.5 C 172.5,63.1667 172.5,65.8333 172.5,68.5C 169.833,68.5 167.167,68.5 164.5,68.5C 164.5,67.5 164.5,66.5 164.5,65.5C 159.386,65.3495 158.719,66.3495 162.5,68.5C 161.167,68.5 159.833,68.5 158.5,68.5C 158.5,67.1667 158.5,65.8333 158.5,64.5C 160.735,64.7947 162.735,64.4614 164.5,63.5C 164.281,62.325 164.614,61.325 165.5,60.5C 166.972,69.7665 168.138,69.7665 169,60.5C 169.932,69.5129 171.099,69.5129 172.5,60.5 Z"/></g>
<g><path style="opacity:1" fill="#d7eddc" d="M 174.5,60.5 C 181.863,60.1694 189.197,60.5027 196.5,61.5C 192.833,61.8333 189.167,62.1667 185.5,62.5C 181.435,62.4888 177.768,61.8222 174.5,60.5 Z"/></g>
<g><path style="opacity:1" fill="#f7fbf8" d="M 206.5,60.5 C 206.5,63.1667 206.5,65.8333 206.5,68.5C 203.833,68.5 201.167,68.5 198.5,68.5C 198.5,67.5 198.5,66.5 198.5,65.5C 196.712,65.2148 195.045,65.5481 193.5,66.5C 194.325,67.3857 195.325,67.719 196.5,67.5C 195.432,68.4345 194.099,68.7678 192.5,68.5C 192.5,67.1667 192.5,65.8333 192.5,64.5C 194.735,64.7947 196.735,64.4614 198.5,63.5C 198.281,62.325 198.614,61.325 199.5,60.5C 200.972,69.7665 202.138,69.7665 203,60.5C 203.932,69.5129 205.099,69.5129 206.5,60.5 Z"/></g>
<g><path style="opacity:1" fill="#d2ebd8" d="M 208.5,60.5 C 216.196,60.1692 223.862,60.5025 231.5,61.5C 227.667,61.8333 223.833,62.1667 220,62.5C 215.771,62.4898 211.938,61.8232 208.5,60.5 Z"/></g>
<g><path style="opacity:1" fill="#f7fbf8" d="M 240.5,60.5 C 240.5,63.1667 240.5,65.8333 240.5,68.5C 237.833,68.5 235.167,68.5 232.5,68.5C 232.5,67.5 232.5,66.5 232.5,65.5C 230.712,65.2148 229.045,65.5481 227.5,66.5C 228.325,67.3857 229.325,67.719 230.5,67.5C 229.432,68.4345 228.099,68.7678 226.5,68.5C 226.5,67.1667 226.5,65.8333 226.5,64.5C 228.735,64.7947 230.735,64.4614 232.5,63.5C 232.281,62.325 232.614,61.325 233.5,60.5C 234.972,69.7665 236.138,69.7665 237,60.5C 237.932,69.5129 239.099,69.5129 240.5,60.5 Z"/></g>
<g><path style="opacity:1" fill="#d2ebd8" d="M 242.5,60.5 C 250.196,60.1692 257.862,60.5025 265.5,61.5C 261.667,61.8333 257.833,62.1667 254,62.5C 249.771,62.4898 245.938,61.8232 242.5,60.5 Z"/></g>
<g><path style="opacity:1" fill="#e6f4e9" d="M 264.5,67.5 C 263.432,68.4345 262.099,68.7678 260.5,68.5C 260.5,67.1667 260.5,65.8333 260.5,64.5C 262.735,64.7947 264.735,64.4614 266.5,63.5C 266.281,62.325 266.614,61.325 267.5,60.5C 268.972,69.7665 270.138,69.7665 271,60.5C 271.862,69.7665 273.028,69.7665 274.5,60.5C 275.484,63.4281 275.817,66.4281 275.5,69.5C 272.5,69.5 269.5,69.5 266.5,69.5C 266.5,68.1667 266.5,66.8333 266.5,65.5C 264.712,65.2148 263.045,65.5481 261.5,66.5C 262.325,67.3857 263.325,67.719 264.5,67.5 Z"/></g>
<g><path style="opacity:1" fill="#d2ebd8" d="M 276.5,60.5 C 284.196,60.1692 291.862,60.5025 299.5,61.5C 295.667,61.8333 291.833,62.1667 288,62.5C 283.771,62.4898 279.938,61.8232 276.5,60.5 Z"/></g>
<g><path style="opacity:1" fill="#d7eddb" d="M 300.5,60.5 C 302.062,62.3717 303.062,64.7051 303.5,67.5C 304.314,65.2338 304.814,62.9005 305,60.5C 305.862,69.7665 307.028,69.7665 308.5,60.5C 309.484,63.4281 309.817,66.4281 309.5,69.5C 306.5,69.5 303.5,69.5 300.5,69.5C 300.5,68.1667 300.5,66.8333 300.5,65.5C 294.627,65.5981 294.294,66.5981 299.5,68.5C 297.604,69.4656 295.604,69.7989 293.5,69.5C 292.735,64.0936 295.069,62.0936 300.5,63.5C 300.5,62.5 300.5,61.5 300.5,60.5 Z"/></g>
<g><path style="opacity:1" fill="#d6eddb" d="M 311.5,60.5 C 318.863,60.1694 326.197,60.5027 333.5,61.5C 329.833,61.8333 326.167,62.1667 322.5,62.5C 318.435,62.4888 314.768,61.8222 311.5,60.5 Z"/></g>
<g><path style="opacity:1" fill="#d6eddb" d="M 334.5,60.5 C 336.062,62.3717 337.062,64.7051 337.5,67.5C 338.314,65.2338 338.814,62.9005 339,60.5C 339.862,69.7665 341.028,69.7665 342.5,60.5C 343.484,63.4281 343.817,66.4281 343.5,69.5C 340.5,69.5 337.5,69.5 334.5,69.5C 334.5,68.1667 334.5,66.8333 334.5,65.5C 328.627,65.5981 328.294,66.5981 333.5,68.5C 331.604,69.4656 329.604,69.7989 327.5,69.5C 326.735,64.0936 329.069,62.0936 334.5,63.5C 334.5,62.5 334.5,61.5 334.5,60.5 Z"/></g>
<g><path style="opacity:1" fill="#d7eddc" d="M 345.5,60.5 C 352.863,60.1694 360.197,60.5027 367.5,61.5C 363.833,61.8333 360.167,62.1667 356.5,62.5C 352.435,62.4888 348.768,61.8222 345.5,60.5 Z"/></g>
<g><path style="opacity:1" fill="#d5edda" d="M 368.5,60.5 C 370.062,62.3717 371.062,64.7051 371.5,67.5C 372.314,65.2338 372.814,62.9005 373,60.5C 373.862,69.7665 375.028,69.7665 376.5,60.5C 377.484,63.4281 377.817,66.4281 377.5,69.5C 374.5,69.5 371.5,69.5 368.5,69.5C 368.5,68.1667 368.5,66.8333 368.5,65.5C 362.627,65.5981 362.294,66.5981 367.5,68.5C 365.604,69.4656 363.604,69.7989 361.5,69.5C 360.735,64.0936 363.069,62.0936 368.5,63.5C 368.5,62.5 368.5,61.5 368.5,60.5 Z"/></g>
<g><path style="opacity:1" fill="#a4d7af" d="M 81.5,67.5 C 80.596,66.791 80.2627,65.791 80.5,64.5C 78.1667,64.5 75.8333,64.5 73.5,64.5C 73.2322,66.099 73.5655,67.4324 74.5,68.5C 74.44,69.0431 74.1067,69.3764 73.5,69.5C 72.5344,67.604 72.2011,65.604 72.5,63.5C 75.5,63.5 78.5,63.5 81.5,63.5C 81.5,64.8333 81.5,66.1667 81.5,67.5 Z"/></g>
<g><path style="opacity:1" fill="#91cf9f" d="M 285.5,64.5 C 282.833,64.5 280.167,64.5 277.5,64.5C 277.232,66.099 277.566,67.4324 278.5,68.5C 278.44,69.0431 278.107,69.3764 277.5,69.5C 276.534,67.604 276.201,65.604 276.5,63.5C 279.713,63.19 282.713,63.5233 285.5,64.5 Z"/></g>
<g><path style="opacity:1" fill="#e1f2e4" d="M 4.5,64.5 C 7.16667,64.5 9.83333,64.5 12.5,64.5C 12.5,65.5 12.5,66.5 12.5,67.5C 14.604,67.7989 16.604,67.4656 18.5,66.5C 17.624,65.7492 16.624,65.2492 15.5,65C 17.1341,64.5065 18.8008,64.3398 20.5,64.5C 20.5,66.1667 20.5,67.8333 20.5,69.5C 17.5,69.5 14.5,69.5 11.5,69.5C 11.5,68.1667 11.5,66.8333 11.5,65.5C 9.83333,65.5 8.16667,65.5 6.5,65.5C 6.76202,66.9778 6.42869,68.3112 5.5,69.5C 4.54811,67.9547 4.21478,66.288 4.5,64.5 Z"/></g>
<g><path style="opacity:1" fill="#e1f2e4" d="M 38.5,64.5 C 41.1667,64.5 43.8333,64.5 46.5,64.5C 46.5,65.5 46.5,66.5 46.5,67.5C 48.604,67.7989 50.604,67.4656 52.5,66.5C 51.624,65.7492 50.624,65.2492 49.5,65C 51.1341,64.5065 52.8008,64.3398 54.5,64.5C 54.5,66.1667 54.5,67.8333 54.5,69.5C 51.5,69.5 48.5,69.5 45.5,69.5C 45.5,68.1667 45.5,66.8333 45.5,65.5C 43.8333,65.5 42.1667,65.5 40.5,65.5C 40.762,66.9778 40.4287,68.3112 39.5,69.5C 38.5481,67.9547 38.2148,66.288 38.5,64.5 Z"/></g>
<g><path style="opacity:1" fill="#fcfefd" d="M 81.5,67.5 C 83.288,67.7852 84.9547,67.4519 86.5,66.5C 85.675,65.6143 84.675,65.281 83.5,65.5C 84.5676,64.5655 85.901,64.2322 87.5,64.5C 87.5,65.8333 87.5,67.1667 87.5,68.5C 84.8333,68.5 82.1667,68.5 79.5,68.5C 79.5,67.5 79.5,66.5 79.5,65.5C 77.8333,65.5 76.1667,65.5 74.5,65.5C 74.5,66.5 74.5,67.5 74.5,68.5C 73.5655,67.4324 73.2322,66.099 73.5,64.5C 75.8333,64.5 78.1667,64.5 80.5,64.5C 80.2627,65.791 80.596,66.791 81.5,67.5 Z"/></g>
<g><path style="opacity:1" fill="#d2ebd7" d="M 106.5,63.5 C 109.5,63.5 112.5,63.5 115.5,63.5C 115.5,64.8333 115.5,66.1667 115.5,67.5C 121.373,67.4019 121.706,66.4019 116.5,64.5C 118.396,63.5344 120.396,63.2011 122.5,63.5C 122.5,65.5 122.5,67.5 122.5,69.5C 119.5,69.5 116.5,69.5 113.5,69.5C 113.5,68.1667 113.5,66.8333 113.5,65.5C 111.833,65.5 110.167,65.5 108.5,65.5C 108.762,66.9778 108.429,68.3112 107.5,69.5C 106.534,67.604 106.201,65.604 106.5,63.5 Z"/></g>
<g><path style="opacity:1" fill="#d8eedc" d="M 130.5,60.5 C 132.197,62.3052 133.03,64.6385 133,67.5C 133.862,58.2335 135.028,58.2335 136.5,67.5C 137.167,65.1667 137.833,62.8333 138.5,60.5C 139.484,63.4281 139.817,66.4281 139.5,69.5C 136.5,69.5 133.5,69.5 130.5,69.5C 130.5,68.1667 130.5,66.8333 130.5,65.5C 125.557,65.2876 124.89,66.2876 128.5,68.5C 126.955,69.4519 125.288,69.7852 123.5,69.5C 123.5,67.5 123.5,65.5 123.5,63.5C 125.833,63.5 128.167,63.5 130.5,63.5C 130.5,62.5 130.5,61.5 130.5,60.5 Z"/></g>
<g><path style="opacity:1" fill="#d3ebd8" d="M 140.5,63.5 C 143.5,63.5 146.5,63.5 149.5,63.5C 149.5,64.8333 149.5,66.1667 149.5,67.5C 154.443,67.7124 155.11,66.7124 151.5,64.5C 153.045,63.5481 154.712,63.2148 156.5,63.5C 156.5,65.5 156.5,67.5 156.5,69.5C 153.5,69.5 150.5,69.5 147.5,69.5C 147.5,68.1667 147.5,66.8333 147.5,65.5C 145.833,65.5 144.167,65.5 142.5,65.5C 142.762,66.9778 142.429,68.3112 141.5,69.5C 140.534,67.604 140.201,65.604 140.5,63.5 Z"/></g>
<g><path style="opacity:1" fill="#a9d9b3" d="M 164.5,63.5 C 162.735,64.4614 160.735,64.7947 158.5,64.5C 158.5,65.8333 158.5,67.1667 158.5,68.5C 159.833,68.5 161.167,68.5 162.5,68.5C 161.081,69.4511 159.415,69.7845 157.5,69.5C 157.5,67.5 157.5,65.5 157.5,63.5C 159.833,63.5 162.167,63.5 164.5,63.5 Z"/></g>
<g><path style="opacity:1" fill="#d3ebd8" d="M 174.5,63.5 C 177.5,63.5 180.5,63.5 183.5,63.5C 183.5,64.8333 183.5,66.1667 183.5,67.5C 188.443,67.7124 189.11,66.7124 185.5,64.5C 187.045,63.5481 188.712,63.2148 190.5,63.5C 190.5,65.5 190.5,67.5 190.5,69.5C 187.5,69.5 184.5,69.5 181.5,69.5C 181.5,68.1667 181.5,66.8333 181.5,65.5C 179.833,65.5 178.167,65.5 176.5,65.5C 176.762,66.9778 176.429,68.3112 175.5,69.5C 174.534,67.604 174.201,65.604 174.5,63.5 Z"/></g>
<g><path style="opacity:1" fill="#a0d5ac" d="M 198.5,63.5 C 196.735,64.4614 194.735,64.7947 192.5,64.5C 192.5,65.8333 192.5,67.1667 192.5,68.5C 194.099,68.7678 195.432,68.4345 196.5,67.5C 197.043,67.56 197.376,67.8933 197.5,68.5C 195.604,69.4656 193.604,69.7989 191.5,69.5C 191.5,67.5 191.5,65.5 191.5,63.5C 193.833,63.5 196.167,63.5 198.5,63.5 Z"/></g>
<g><path style="opacity:1" fill="#f9fcf9" d="M 217.5,64.5 C 217.5,65.5 217.5,66.5 217.5,67.5C 222.614,67.6505 223.281,66.6505 219.5,64.5C 220.833,64.5 222.167,64.5 223.5,64.5C 223.5,65.8333 223.5,67.1667 223.5,68.5C 220.833,68.5 218.167,68.5 215.5,68.5C 215.5,67.8333 215.5,67.1667 215.5,66.5C 214.081,65.5489 212.415,65.2155 210.5,65.5C 209.955,69.1716 209.622,68.8383 209.5,64.5C 212.167,64.5 214.833,64.5 217.5,64.5 Z"/></g>
<g><path style="opacity:1" fill="#9cd3a8" d="M 232.5,63.5 C 230.735,64.4614 228.735,64.7947 226.5,64.5C 226.5,65.8333 226.5,67.1667 226.5,68.5C 228.099,68.7678 229.432,68.4345 230.5,67.5C 231.043,67.56 231.376,67.8933 231.5,68.5C 229.604,69.4656 227.604,69.7989 225.5,69.5C 225.5,67.5 225.5,65.5 225.5,63.5C 227.833,63.5 230.167,63.5 232.5,63.5 Z"/></g>
<g><path style="opacity:1" fill="#f8fcf8" d="M 251.5,64.5 C 251.5,65.5 251.5,66.5 251.5,67.5C 256.614,67.6505 257.281,66.6505 253.5,64.5C 254.833,64.5 256.167,64.5 257.5,64.5C 257.5,65.8333 257.5,67.1667 257.5,68.5C 254.833,68.5 252.167,68.5 249.5,68.5C 249.5,67.8333 249.5,67.1667 249.5,66.5C 248.081,65.5489 246.415,65.2155 244.5,65.5C 243.955,69.1716 243.622,68.8383 243.5,64.5C 246.167,64.5 248.833,64.5 251.5,64.5 Z"/></g>
<g><path style="opacity:1" fill="#95d0a3" d="M 266.5,63.5 C 264.735,64.4614 262.735,64.7947 260.5,64.5C 260.5,65.8333 260.5,67.1667 260.5,68.5C 262.099,68.7678 263.432,68.4345 264.5,67.5C 265.043,67.56 265.376,67.8933 265.5,68.5C 263.604,69.4656 261.604,69.7989 259.5,69.5C 259.5,67.5 259.5,65.5 259.5,63.5C 261.833,63.5 264.167,63.5 266.5,63.5 Z"/></g>
<g><path style="opacity:1" fill="#fdfefd" d="M 285.5,64.5 C 285.5,65.5 285.5,66.5 285.5,67.5C 290.614,67.6505 291.281,66.6505 287.5,64.5C 288.833,64.5 290.167,64.5 291.5,64.5C 291.5,65.8333 291.5,67.1667 291.5,68.5C 289.167,68.5 286.833,68.5 284.5,68.5C 284.737,67.209 284.404,66.209 283.5,65.5C 281.833,65.5 280.167,65.5 278.5,65.5C 278.5,66.5 278.5,67.5 278.5,68.5C 277.566,67.4324 277.232,66.099 277.5,64.5C 280.167,64.5 282.833,64.5 285.5,64.5 Z"/></g>
<g><path style="opacity:1" fill="#e7f4ea" d="M 324.5,67.5 C 323.341,68.5135 321.341,68.8468 318.5,68.5C 318.737,67.209 318.404,66.209 317.5,65.5C 315.833,65.5 314.167,65.5 312.5,65.5C 312.649,66.552 312.483,67.552 312,68.5C 311.506,66.8659 311.34,65.1992 311.5,63.5C 314.167,63.5 316.833,63.5 319.5,63.5C 319.5,64.8333 319.5,66.1667 319.5,67.5C 321.167,67.5 322.833,67.5 324.5,67.5 Z"/></g>
<g><path style="opacity:1" fill="#e3f3e6" d="M 360.5,68.5 C 357.833,68.5 355.167,68.5 352.5,68.5C 352.5,67.5 352.5,66.5 352.5,65.5C 350.5,65.5 348.5,65.5 346.5,65.5C 345.955,69.1716 345.622,68.8383 345.5,64.5C 347.948,63.5269 350.615,63.1936 353.5,63.5C 353.5,64.8333 353.5,66.1667 353.5,67.5C 358.443,67.7124 359.11,66.7124 355.5,64.5C 357.045,63.5481 358.712,63.2148 360.5,63.5C 360.5,65.1667 360.5,66.8333 360.5,68.5 Z"/></g>
<g><path style="opacity:1" fill="#67bb77" d="M 217.5,64.5 C 214.833,64.5 212.167,64.5 209.5,64.5C 209.622,68.8383 209.955,69.1716 210.5,65.5C 212.415,65.2155 214.081,65.5489 215.5,66.5C 214.596,67.209 214.263,68.209 214.5,69.5C 212.5,69.5 210.5,69.5 208.5,69.5C 208.5,67.5 208.5,65.5 208.5,63.5C 211.713,63.19 214.713,63.5233 217.5,64.5 Z"/></g>
<g><path style="opacity:1" fill="#73c081" d="M 345.5,64.5 C 345.622,68.8383 345.955,69.1716 346.5,65.5C 348.5,65.5 350.5,65.5 352.5,65.5C 352.5,66.5 352.5,67.5 352.5,68.5C 355.167,68.5 357.833,68.5 360.5,68.5C 357.713,69.4767 354.713,69.81 351.5,69.5C 351.167,65.5 350.833,65.5 350.5,69.5C 348.5,69.5 346.5,69.5 344.5,69.5C 344.216,67.5853 344.549,65.9187 345.5,64.5 Z"/></g>
<g><path style="opacity:1" fill="#99d2a6" d="M 36.5,60.5 C 37.4767,63.2869 37.81,66.2869 37.5,69.5C 34.2869,69.81 31.2869,69.4767 28.5,68.5C 31.1667,68.5 33.8333,68.5 36.5,68.5C 36.5,65.8333 36.5,63.1667 36.5,60.5 Z"/></g>
<g><path style="opacity:1" fill="#9cd3a9" d="M 79.5,68.5 C 82.1667,68.5 84.8333,68.5 87.5,68.5C 87.5,67.1667 87.5,65.8333 87.5,64.5C 85.901,64.2322 84.5676,64.5655 83.5,65.5C 82.9569,65.44 82.6236,65.1067 82.5,64.5C 84.396,63.5344 86.396,63.2011 88.5,63.5C 88.5,65.5 88.5,67.5 88.5,69.5C 85.2869,69.81 82.2869,69.4767 79.5,68.5 Z"/></g>
<g><path style="opacity:1" fill="#a3d7af" d="M 172.5,60.5 C 173.477,63.2869 173.81,66.2869 173.5,69.5C 170.287,69.81 167.287,69.4767 164.5,68.5C 167.167,68.5 169.833,68.5 172.5,68.5C 172.5,65.8333 172.5,63.1667 172.5,60.5 Z"/></g>
<g><path style="opacity:1" fill="#a6d8b2" d="M 206.5,60.5 C 207.477,63.2869 207.81,66.2869 207.5,69.5C 204.287,69.81 201.287,69.4767 198.5,68.5C 201.167,68.5 203.833,68.5 206.5,68.5C 206.5,65.8333 206.5,63.1667 206.5,60.5 Z"/></g>
<g><path style="opacity:1" fill="#a4d7af" d="M 219.5,64.5 C 220.919,63.5489 222.585,63.2155 224.5,63.5C 224.5,65.5 224.5,67.5 224.5,69.5C 221.287,69.81 218.287,69.4767 215.5,68.5C 218.167,68.5 220.833,68.5 223.5,68.5C 223.5,67.1667 223.5,65.8333 223.5,64.5C 222.167,64.5 220.833,64.5 219.5,64.5 Z"/></g>
<g><path style="opacity:1" fill="#a9d9b5" d="M 240.5,60.5 C 241.477,63.2869 241.81,66.2869 241.5,69.5C 238.287,69.81 235.287,69.4767 232.5,68.5C 235.167,68.5 237.833,68.5 240.5,68.5C 240.5,65.8333 240.5,63.1667 240.5,60.5 Z"/></g>
<g><path style="opacity:1" fill="#6cbd7b" d="M 251.5,64.5 C 248.833,64.5 246.167,64.5 243.5,64.5C 243.622,68.8383 243.955,69.1716 244.5,65.5C 246.415,65.2155 248.081,65.5489 249.5,66.5C 248.009,69.0907 245.675,70.0907 242.5,69.5C 242.5,67.5 242.5,65.5 242.5,63.5C 245.713,63.19 248.713,63.5233 251.5,64.5 Z"/></g>
<g><path style="opacity:1" fill="#a6d8b1" d="M 253.5,64.5 C 254.919,63.5489 256.585,63.2155 258.5,63.5C 258.5,65.5 258.5,67.5 258.5,69.5C 255.287,69.81 252.287,69.4767 249.5,68.5C 252.167,68.5 254.833,68.5 257.5,68.5C 257.5,67.1667 257.5,65.8333 257.5,64.5C 256.167,64.5 254.833,64.5 253.5,64.5 Z"/></g>
<g><path style="opacity:1" fill="#addbb7" d="M 287.5,64.5 C 288.919,63.5489 290.585,63.2155 292.5,63.5C 292.5,65.5 292.5,67.5 292.5,69.5C 289.5,69.5 286.5,69.5 283.5,69.5C 283.5,68.1667 283.5,66.8333 283.5,65.5C 284.404,66.209 284.737,67.209 284.5,68.5C 286.833,68.5 289.167,68.5 291.5,68.5C 291.5,67.1667 291.5,65.8333 291.5,64.5C 290.167,64.5 288.833,64.5 287.5,64.5 Z"/></g>
<g><path style="opacity:1" fill="#b5debe" d="M 317.5,65.5 C 318.404,66.209 318.737,67.209 318.5,68.5C 321.341,68.8468 323.341,68.5135 324.5,67.5C 323.993,66.1411 322.993,65.1411 321.5,64.5C 323.045,63.5481 324.712,63.2148 326.5,63.5C 326.5,65.5 326.5,67.5 326.5,69.5C 323.5,69.5 320.5,69.5 317.5,69.5C 317.5,68.1667 317.5,66.8333 317.5,65.5 Z"/></g>
<g><path style="opacity:1" fill="#b5dfbf" d="M 4.5,71.5 C 6.97788,70.8359 9.64455,70.5025 12.5,70.5C 15.5902,70.5217 18.2568,71.1883 20.5,72.5C 15.2599,71.5509 9.92655,71.2175 4.5,71.5 Z"/></g>
<g><path style="opacity:1" fill="#b6dfbf" d="M 21.5,71.5 C 23.9779,70.8359 26.6445,70.5025 29.5,70.5C 32.5902,70.5217 35.2568,71.1883 37.5,72.5C 32.2599,71.5509 26.9265,71.2175 21.5,71.5 Z"/></g>
<g><path style="opacity:1" fill="#b6dfc0" d="M 38.5,71.5 C 40.9779,70.8359 43.6445,70.5025 46.5,70.5C 49.5902,70.5217 52.2568,71.1883 54.5,72.5C 49.2599,71.5509 43.9265,71.2175 38.5,71.5 Z"/></g>
<g><path style="opacity:1" fill="#b8e0c1" d="M 71.5,72.5 C 66.1667,71.1667 60.8333,71.1667 55.5,72.5C 57.7432,71.1883 60.4098,70.5217 63.5,70.5C 66.5902,70.5217 69.2568,71.1883 71.5,72.5 Z"/></g>
<g><path style="opacity:1" fill="#b8e0c1" d="M 88.5,72.5 C 83.1667,71.1667 77.8333,71.1667 72.5,72.5C 74.7432,71.1883 77.4098,70.5217 80.5,70.5C 83.5902,70.5217 86.2568,71.1883 88.5,72.5 Z"/></g>
<g><path style="opacity:1" fill="#b8e0c1" d="M 105.5,72.5 C 100.167,71.1667 94.8333,71.1667 89.5,72.5C 91.7432,71.1883 94.4098,70.5217 97.5,70.5C 100.59,70.5217 103.257,71.1883 105.5,72.5 Z"/></g>
<g><path style="opacity:1" fill="#b8e0c1" d="M 122.5,72.5 C 117.167,71.1667 111.833,71.1667 106.5,72.5C 108.743,71.1883 111.41,70.5217 114.5,70.5C 117.59,70.5217 120.257,71.1883 122.5,72.5 Z"/></g>
<g><path style="opacity:1" fill="#b8e0c1" d="M 139.5,72.5 C 134.167,71.1667 128.833,71.1667 123.5,72.5C 125.743,71.1883 128.41,70.5217 131.5,70.5C 134.59,70.5217 137.257,71.1883 139.5,72.5 Z"/></g>
<g><path style="opacity:1" fill="#b8e0c1" d="M 156.5,72.5 C 151.167,71.1667 145.833,71.1667 140.5,72.5C 142.743,71.1883 145.41,70.5217 148.5,70.5C 151.59,70.5217 154.257,71.1883 156.5,72.5 Z"/></g>
<g><path style="opacity:1" fill="#b6dfc0" d="M 343.5,71.5 C 338.073,71.2175 332.74,71.5509 327.5,72.5C 329.743,71.1883 332.41,70.5217 335.5,70.5C 338.355,70.5025 341.022,70.8359 343.5,71.5 Z"/></g>
<g><path style="opacity:1" fill="#b6dfbf" d="M 360.5,71.5 C 355.073,71.2175 349.74,71.5509 344.5,72.5C 346.743,71.1883 349.41,70.5217 352.5,70.5C 355.355,70.5025 358.022,70.8359 360.5,71.5 Z"/></g>
<g><path style="opacity:1" fill="#b5dfbf" d="M 377.5,71.5 C 372.073,71.2175 366.74,71.5509 361.5,72.5C 363.743,71.1883 366.41,70.5217 369.5,70.5C 372.355,70.5025 375.022,70.8359 377.5,71.5 Z"/></g>
<g><path style="opacity:1" fill="#fefefd" d="M 225.5,72.5 C 230.833,71.1667 236.167,71.1667 241.5,72.5C 247.5,69.8333 253.5,69.8333 259.5,72.5C 264.833,71.1667 270.167,71.1667 275.5,72.5C 281.5,69.8333 287.5,69.8333 293.5,72.5C 298.833,71.1667 304.167,71.1667 309.5,72.5C 315.5,69.8333 321.5,69.8333 327.5,72.5C 332.74,71.5509 338.073,71.2175 343.5,71.5C 343.5,72.1667 343.833,72.5 344.5,72.5C 349.74,71.5509 355.073,71.2175 360.5,71.5C 360.5,72.1667 360.833,72.5 361.5,72.5C 366.74,71.5509 372.073,71.2175 377.5,71.5C 378.919,72.4511 380.585,72.7845 382.5,72.5C 382.5,96.8333 382.5,121.167 382.5,145.5C 378.4,146.381 374.233,147.048 370,147.5C 366.965,147.391 364.131,146.724 361.5,145.5C 358.869,146.724 356.035,147.391 353,147.5C 349.965,147.391 347.131,146.724 344.5,145.5C 343.893,145.624 343.56,145.957 343.5,146.5C 338.073,146.782 332.74,146.449 327.5,145.5C 326.833,145.5 326.5,145.833 326.5,146.5C 321.073,146.782 315.74,146.449 310.5,145.5C 309.833,145.5 309.5,145.833 309.5,146.5C 304.073,146.782 298.74,146.449 293.5,145.5C 292.833,145.5 292.5,145.833 292.5,146.5C 287.073,146.782 281.74,146.449 276.5,145.5C 275.833,145.5 275.5,145.833 275.5,146.5C 270.073,146.782 264.74,146.449 259.5,145.5C 259.167,145.5 258.833,145.5 258.5,145.5C 253.167,146.833 247.833,146.833 242.5,145.5C 242.167,145.5 241.833,145.5 241.5,145.5C 236.167,146.833 230.833,146.833 225.5,145.5C 225.167,145.5 224.833,145.5 224.5,145.5C 219.167,146.833 213.833,146.833 208.5,145.5C 208.167,145.5 207.833,145.5 207.5,145.5C 202.167,146.833 196.833,146.833 191.5,145.5C 191.167,145.5 190.833,145.5 190.5,145.5C 185.167,146.833 179.833,146.833 174.5,145.5C 174.167,145.5 173.833,145.5 173.5,145.5C 168.167,146.833 162.833,146.833 157.5,145.5C 157.167,145.5 156.833,145.5 156.5,145.5C 151.167,146.833 145.833,146.833 140.5,145.5C 140.167,145.5 139.833,145.5 139.5,145.5C 134.167,146.833 128.833,146.833 123.5,145.5C 123.167,145.5 122.833,145.5 122.5,145.5C 117.26,146.449 111.927,146.782 106.5,146.5C 106.5,145.833 106.167,145.5 105.5,145.5C 100.26,146.449 94.9265,146.782 89.5,146.5C 89.5,145.833 89.1667,145.5 88.5,145.5C 83.2599,146.449 77.9265,146.782 72.5,146.5C 72.5,145.833 72.1667,145.5 71.5,145.5C 66.2599,146.449 60.9265,146.782 55.5,146.5C 55.5,145.833 55.1667,145.5 54.5,145.5C 49.2599,146.449 43.9265,146.782 38.5,146.5C 38.44,145.957 38.1067,145.624 37.5,145.5C 34.8687,146.724 32.0354,147.391 29,147.5C 25.9646,147.391 23.1313,146.724 20.5,145.5C 17.8687,146.724 15.0354,147.391 12,147.5C 7.76676,147.048 3.6001,146.381 -0.5,145.5C -0.5,121.167 -0.5,96.8333 -0.5,72.5C 1.41467,72.7845 3.08134,72.4511 4.5,71.5C 9.92655,71.2175 15.2599,71.5509 20.5,72.5C 21.1667,72.5 21.5,72.1667 21.5,71.5C 26.9265,71.2175 32.2599,71.5509 37.5,72.5C 38.1667,72.5 38.5,72.1667 38.5,71.5C 43.9265,71.2175 49.2599,71.5509 54.5,72.5C 54.8333,72.5 55.1667,72.5 55.5,72.5C 60.8333,71.1667 66.1667,71.1667 71.5,72.5C 71.8333,72.5 72.1667,72.5 72.5,72.5C 77.8333,71.1667 83.1667,71.1667 88.5,72.5C 88.8333,72.5 89.1667,72.5 89.5,72.5C 94.8333,71.1667 100.167,71.1667 105.5,72.5C 105.833,72.5 106.167,72.5 106.5,72.5C 111.833,71.1667 117.167,71.1667 122.5,72.5C 122.833,72.5 123.167,72.5 123.5,72.5C 128.833,71.1667 134.167,71.1667 139.5,72.5C 139.833,72.5 140.167,72.5 140.5,72.5C 145.833,71.1667 151.167,71.1667 156.5,72.5C 159.231,71.2703 162.231,70.6036 165.5,70.5C 168.613,70.5623 171.446,71.2289 174,72.5C 176.554,71.2289 179.387,70.5623 182.5,70.5C 185.613,70.5623 188.446,71.2289 191,72.5C 193.554,71.2289 196.387,70.5623 199.5,70.5C 202.613,70.5623 205.446,71.2289 208,72.5C 210.554,71.2289 213.387,70.5623 216.5,70.5C 219.769,70.6036 222.769,71.2703 225.5,72.5 Z"/></g>
<g><path style="opacity:1" fill="#b8e0c1" d="M 309.5,72.5 C 304.167,71.1667 298.833,71.1667 293.5,72.5C 295.743,71.1883 298.41,70.5217 301.5,70.5C 304.59,70.5217 307.257,71.1883 309.5,72.5 Z"/></g>
<g><path style="opacity:1" fill="#b8e0c1" d="M 275.5,72.5 C 270.167,71.1667 264.833,71.1667 259.5,72.5C 261.743,71.1883 264.41,70.5217 267.5,70.5C 270.59,70.5217 273.257,71.1883 275.5,72.5 Z"/></g>
<g><path style="opacity:1" fill="#b8e0c1" d="M 241.5,72.5 C 236.167,71.1667 230.833,71.1667 225.5,72.5C 227.743,71.1883 230.41,70.5217 233.5,70.5C 236.59,70.5217 239.257,71.1883 241.5,72.5 Z"/></g>
<g><path style="opacity:1" fill="#de271b" d="M 190.5,87.5 C 187.404,88.0934 185.071,87.0934 183.5,84.5C 183.833,84.1667 184.167,83.8333 184.5,83.5C 186.674,86.0806 188.84,86.0806 191,83.5C 193.333,86.1667 195.667,86.1667 198,83.5C 198.507,84.9961 198.007,86.1627 196.5,87C 194.276,87.0395 192.276,87.2062 190.5,87.5 Z"/></g>
<g><path style="opacity:1" fill="#dd1f15" d="M 190.5,87.5 C 191.482,88.1408 192.482,88.8075 193.5,89.5C 193.833,92.8333 194.167,96.1667 194.5,99.5C 193.725,108.496 193.559,117.496 194,126.5C 205.212,115.797 207.546,103.463 201,89.5C 210.595,101.234 210.928,113.234 202,125.5C 199.92,127.123 197.754,128.623 195.5,130C 198.377,131.127 201.377,131.794 204.5,132C 200.571,133.029 196.571,133.863 192.5,134.5C 192.192,135.308 191.692,135.975 191,136.5C 190.124,134.365 188.624,133.031 186.5,132.5C 184.265,132.795 182.265,132.461 180.5,131.5C 187.934,131.113 188.267,129.613 181.5,127C 172.295,116.671 171.129,105.505 178,93.5C 178.72,91.7448 179.887,90.9115 181.5,91C 174.525,104.47 176.691,116.303 188,126.5C 188.441,117.496 188.275,108.496 187.5,99.5C 187.833,96.1667 188.167,92.8333 188.5,89.5C 189.522,89.1445 190.189,88.4778 190.5,87.5 Z"/></g>
<g><path style="opacity:1" fill="#dc1d14" d="M 175.5,89.5 C 176.239,89.369 176.906,89.5357 177.5,90C 167.716,100.644 165.883,112.477 172,125.5C 159.86,112.253 161.027,100.253 175.5,89.5 Z"/></g>
<g><path style="opacity:1" fill="#de2519" d="M 202.5,89.5 C 202.56,88.9569 202.893,88.6236 203.5,88.5C 215.822,94.1417 220.322,103.475 217,116.5C 209.407,128.502 208.074,128.168 213,115.5C 214.72,104.621 211.22,95.9545 202.5,89.5 Z"/></g>
<g><path style="opacity:1" fill="#eb7573" d="M 180.5,131.5 C 182.265,132.461 184.265,132.795 186.5,132.5C 183.56,133.83 180.56,133.663 177.5,132C 178.448,131.517 179.448,131.351 180.5,131.5 Z"/></g>
<g><path style="opacity:1" fill="#da0201" d="M -0.5,145.5 C 3.6001,146.381 7.76676,147.048 12,147.5C 15.0354,147.391 17.8687,146.724 20.5,145.5C 23.1313,146.724 25.9646,147.391 29,147.5C 32.0354,147.391 34.8687,146.724 37.5,145.5C 38.1067,145.624 38.44,145.957 38.5,146.5C 40.9779,147.164 43.6445,147.497 46.5,147.5C 49.5902,147.478 52.2568,146.812 54.5,145.5C 55.1667,145.5 55.5,145.833 55.5,146.5C 57.9779,147.164 60.6445,147.497 63.5,147.5C 66.5902,147.478 69.2568,146.812 71.5,145.5C 72.1667,145.5 72.5,145.833 72.5,146.5C 74.9779,147.164 77.6445,147.497 80.5,147.5C 83.5902,147.478 86.2568,146.812 88.5,145.5C 89.1667,145.5 89.5,145.833 89.5,146.5C 91.9779,147.164 94.6445,147.497 97.5,147.5C 100.59,147.478 103.257,146.812 105.5,145.5C 106.167,145.5 106.5,145.833 106.5,146.5C 108.978,147.164 111.645,147.497 114.5,147.5C 117.59,147.478 120.257,146.812 122.5,145.5C 122.833,145.5 123.167,145.5 123.5,145.5C 125.743,146.812 128.41,147.478 131.5,147.5C 134.59,147.478 137.257,146.812 139.5,145.5C 139.833,145.5 140.167,145.5 140.5,145.5C 142.743,146.812 145.41,147.478 148.5,147.5C 151.59,147.478 154.257,146.812 156.5,145.5C 156.833,145.5 157.167,145.5 157.5,145.5C 159.743,146.812 162.41,147.478 165.5,147.5C 168.59,147.478 171.257,146.812 173.5,145.5C 173.833,145.5 174.167,145.5 174.5,145.5C 176.743,146.812 179.41,147.478 182.5,147.5C 185.59,147.478 188.257,146.812 190.5,145.5C 190.833,145.5 191.167,145.5 191.5,145.5C 193.743,146.812 196.41,147.478 199.5,147.5C 202.59,147.478 205.257,146.812 207.5,145.5C 207.833,145.5 208.167,145.5 208.5,145.5C 210.743,146.812 213.41,147.478 216.5,147.5C 219.59,147.478 222.257,146.812 224.5,145.5C 224.833,145.5 225.167,145.5 225.5,145.5C 227.743,146.812 230.41,147.478 233.5,147.5C 236.59,147.478 239.257,146.812 241.5,145.5C 241.833,145.5 242.167,145.5 242.5,145.5C 244.743,146.812 247.41,147.478 250.5,147.5C 253.59,147.478 256.257,146.812 258.5,145.5C 258.833,145.5 259.167,145.5 259.5,145.5C 261.743,146.812 264.41,147.478 267.5,147.5C 270.355,147.497 273.022,147.164 275.5,146.5C 275.5,145.833 275.833,145.5 276.5,145.5C 278.743,146.812 281.41,147.478 284.5,147.5C 287.355,147.497 290.022,147.164 292.5,146.5C 292.5,145.833 292.833,145.5 293.5,145.5C 295.743,146.812 298.41,147.478 301.5,147.5C 304.355,147.497 307.022,147.164 309.5,146.5C 309.5,145.833 309.833,145.5 310.5,145.5C 312.743,146.812 315.41,147.478 318.5,147.5C 321.355,147.497 324.022,147.164 326.5,146.5C 326.5,145.833 326.833,145.5 327.5,145.5C 329.743,146.812 332.41,147.478 335.5,147.5C 338.355,147.497 341.022,147.164 343.5,146.5C 343.56,145.957 343.893,145.624 344.5,145.5C 347.131,146.724 349.965,147.391 353,147.5C 356.035,147.391 358.869,146.724 361.5,145.5C 364.131,146.724 366.965,147.391 370,147.5C 374.233,147.048 378.4,146.381 382.5,145.5C 382.5,169.833 382.5,194.167 382.5,218.5C 254.833,218.5 127.167,218.5 -0.5,218.5C -0.5,194.167 -0.5,169.833 -0.5,145.5 Z"/></g>
<g><path style="opacity:1" fill="#f3aaa9" d="M 54.5,145.5 C 52.2568,146.812 49.5902,147.478 46.5,147.5C 43.6445,147.497 40.9779,147.164 38.5,146.5C 43.9265,146.782 49.2599,146.449 54.5,145.5 Z"/></g>
<g><path style="opacity:1" fill="#f3aaa9" d="M 71.5,145.5 C 69.2568,146.812 66.5902,147.478 63.5,147.5C 60.6445,147.497 57.9779,147.164 55.5,146.5C 60.9265,146.782 66.2599,146.449 71.5,145.5 Z"/></g>
<g><path style="opacity:1" fill="#f3aaa9" d="M 88.5,145.5 C 86.2568,146.812 83.5902,147.478 80.5,147.5C 77.6445,147.497 74.9779,147.164 72.5,146.5C 77.9265,146.782 83.2599,146.449 88.5,145.5 Z"/></g>
<g><path style="opacity:1" fill="#f3aaaa" d="M 105.5,145.5 C 103.257,146.812 100.59,147.478 97.5,147.5C 94.6445,147.497 91.9779,147.164 89.5,146.5C 94.9265,146.782 100.26,146.449 105.5,145.5 Z"/></g>
<g><path style="opacity:1" fill="#f3aaaa" d="M 122.5,145.5 C 120.257,146.812 117.59,147.478 114.5,147.5C 111.645,147.497 108.978,147.164 106.5,146.5C 111.927,146.782 117.26,146.449 122.5,145.5 Z"/></g>
<g><path style="opacity:1" fill="#f3abaa" d="M 123.5,145.5 C 128.833,146.833 134.167,146.833 139.5,145.5C 137.257,146.812 134.59,147.478 131.5,147.5C 128.41,147.478 125.743,146.812 123.5,145.5 Z"/></g>
<g><path style="opacity:1" fill="#f3abaa" d="M 140.5,145.5 C 145.833,146.833 151.167,146.833 156.5,145.5C 154.257,146.812 151.59,147.478 148.5,147.5C 145.41,147.478 142.743,146.812 140.5,145.5 Z"/></g>
<g><path style="opacity:1" fill="#f3abaa" d="M 157.5,145.5 C 162.833,146.833 168.167,146.833 173.5,145.5C 171.257,146.812 168.59,147.478 165.5,147.5C 162.41,147.478 159.743,146.812 157.5,145.5 Z"/></g>
<g><path style="opacity:1" fill="#f3abaa" d="M 174.5,145.5 C 179.833,146.833 185.167,146.833 190.5,145.5C 188.257,146.812 185.59,147.478 182.5,147.5C 179.41,147.478 176.743,146.812 174.5,145.5 Z"/></g>
<g><path style="opacity:1" fill="#f3abaa" d="M 191.5,145.5 C 196.833,146.833 202.167,146.833 207.5,145.5C 205.257,146.812 202.59,147.478 199.5,147.5C 196.41,147.478 193.743,146.812 191.5,145.5 Z"/></g>
<g><path style="opacity:1" fill="#f3abaa" d="M 208.5,145.5 C 213.833,146.833 219.167,146.833 224.5,145.5C 222.257,146.812 219.59,147.478 216.5,147.5C 213.41,147.478 210.743,146.812 208.5,145.5 Z"/></g>
<g><path style="opacity:1" fill="#f3abaa" d="M 225.5,145.5 C 230.833,146.833 236.167,146.833 241.5,145.5C 239.257,146.812 236.59,147.478 233.5,147.5C 230.41,147.478 227.743,146.812 225.5,145.5 Z"/></g>
<g><path style="opacity:1" fill="#f3abaa" d="M 242.5,145.5 C 247.833,146.833 253.167,146.833 258.5,145.5C 256.257,146.812 253.59,147.478 250.5,147.5C 247.41,147.478 244.743,146.812 242.5,145.5 Z"/></g>
<g><path style="opacity:1" fill="#f3aaaa" d="M 259.5,145.5 C 264.74,146.449 270.073,146.782 275.5,146.5C 273.022,147.164 270.355,147.497 267.5,147.5C 264.41,147.478 261.743,146.812 259.5,145.5 Z"/></g>
<g><path style="opacity:1" fill="#f3aaaa" d="M 276.5,145.5 C 281.74,146.449 287.073,146.782 292.5,146.5C 290.022,147.164 287.355,147.497 284.5,147.5C 281.41,147.478 278.743,146.812 276.5,145.5 Z"/></g>
<g><path style="opacity:1" fill="#f3aaa9" d="M 293.5,145.5 C 298.74,146.449 304.073,146.782 309.5,146.5C 307.022,147.164 304.355,147.497 301.5,147.5C 298.41,147.478 295.743,146.812 293.5,145.5 Z"/></g>
<g><path style="opacity:1" fill="#f3aaa9" d="M 310.5,145.5 C 315.74,146.449 321.073,146.782 326.5,146.5C 324.022,147.164 321.355,147.497 318.5,147.5C 315.41,147.478 312.743,146.812 310.5,145.5 Z"/></g>
<g><path style="opacity:1" fill="#f3aaa9" d="M 327.5,145.5 C 332.74,146.449 338.073,146.782 343.5,146.5C 341.022,147.164 338.355,147.497 335.5,147.5C 332.41,147.478 329.743,146.812 327.5,145.5 Z"/></g>
<g><path style="opacity:1" fill="#f7b9b8" d="M 106.5,148.5 C 113.863,148.169 121.197,148.503 128.5,149.5C 124.833,149.833 121.167,150.167 117.5,150.5C 113.435,150.489 109.768,149.822 106.5,148.5 Z"/></g>
<g><path style="opacity:1" fill="#f7b5b3" d="M 140.5,148.5 C 148.196,148.169 155.862,148.503 163.5,149.5C 159.667,149.833 155.833,150.167 152,150.5C 147.771,150.49 143.938,149.823 140.5,148.5 Z"/></g>
<g><path style="opacity:1" fill="#f7b5b3" d="M 174.5,148.5 C 182.196,148.169 189.862,148.503 197.5,149.5C 193.667,149.833 189.833,150.167 186,150.5C 181.771,150.49 177.938,149.823 174.5,148.5 Z"/></g>
<g><path style="opacity:1" fill="#f7b5b3" d="M 208.5,148.5 C 216.196,148.169 223.862,148.503 231.5,149.5C 227.667,149.833 223.833,150.167 220,150.5C 215.771,150.49 211.938,149.823 208.5,148.5 Z"/></g>
<g><path style="opacity:1" fill="#f7b5b4" d="M 242.5,148.5 C 250.196,148.169 257.862,148.503 265.5,149.5C 261.667,149.833 257.833,150.167 254,150.5C 249.771,150.49 245.938,149.823 242.5,148.5 Z"/></g>
<g><path style="opacity:1" fill="#f7b5b4" d="M 299.5,150.5 C 291.833,150.5 284.167,150.5 276.5,150.5C 279.938,149.177 283.771,148.51 288,148.5C 292.229,148.51 296.062,149.177 299.5,150.5 Z"/></g>
<g><path style="opacity:1" fill="#f7b5b3" d="M 333.5,150.5 C 325.833,150.5 318.167,150.5 310.5,150.5C 313.938,149.177 317.771,148.51 322,148.5C 326.229,148.51 330.062,149.177 333.5,150.5 Z"/></g>
<g><path style="opacity:1" fill="#f7b5b3" d="M 367.5,150.5 C 359.833,150.5 352.167,150.5 344.5,150.5C 347.938,149.177 351.771,148.51 356,148.5C 360.229,148.51 364.062,149.177 367.5,150.5 Z"/></g>
<g><path style="opacity:1" fill="#fcdbda" d="M 26.5,148.5 C 19.5762,150.463 12.2428,151.13 4.5,150.5C 11.4238,148.537 18.7572,147.87 26.5,148.5 Z"/></g>
<g><path style="opacity:1" fill="#f19a99" d="M 28.5,149.5 C 28.5,149.167 28.5,148.833 28.5,148.5C 30.3435,150.279 31.0102,152.612 30.5,155.5C 29.8333,153.5 29.1667,151.5 28.5,149.5 Z"/></g>
<g><path style="opacity:1" fill="#ea6f6e" d="M 35.5,149.5 C 35.56,148.957 35.8933,148.624 36.5,148.5C 37.8032,151.645 37.8032,154.645 36.5,157.5C 36.8064,154.615 36.4731,151.948 35.5,149.5 Z"/></g>
<g><path style="opacity:1" fill="#fcdbda" d="M 60.5,148.5 C 53.5762,150.463 46.2428,151.13 38.5,150.5C 45.4238,148.537 52.7572,147.87 60.5,148.5 Z"/></g>
<g><path style="opacity:1" fill="#eb7978" d="M 69.5,149.5 C 69.56,148.957 69.8933,148.624 70.5,148.5C 71.8032,151.645 71.8032,154.645 70.5,157.5C 70.8064,154.615 70.4731,151.948 69.5,149.5 Z"/></g>
<g><path style="opacity:1" fill="#fcdad9" d="M 94.5,150.5 C 87.1667,150.5 79.8333,150.5 72.5,150.5C 75.7681,149.178 79.4348,148.511 83.5,148.5C 87.5652,148.511 91.2319,149.178 94.5,150.5 Z"/></g>
<g><path style="opacity:1" fill="#ee8c8b" d="M 101.5,149.5 C 100.833,151.5 100.167,153.5 99.5,155.5C 99.1924,153.076 99.5258,150.743 100.5,148.5C 101.107,148.624 101.44,148.957 101.5,149.5 Z"/></g>
<g><path style="opacity:1" fill="#ed8383" d="M 103.5,149.5 C 103.56,148.957 103.893,148.624 104.5,148.5C 105.803,151.645 105.803,154.645 104.5,157.5C 104.806,154.615 104.473,151.948 103.5,149.5 Z"/></g>
<g><path style="opacity:1" fill="#ec8281" d="M 135.5,149.5 C 134.833,151.5 134.167,153.5 133.5,155.5C 133.192,153.076 133.526,150.743 134.5,148.5C 135.107,148.624 135.44,148.957 135.5,149.5 Z"/></g>
<g><path style="opacity:1" fill="#ef8d8d" d="M 137.5,149.5 C 137.56,148.957 137.893,148.624 138.5,148.5C 139.803,151.645 139.803,154.645 138.5,157.5C 138.806,154.615 138.473,151.948 137.5,149.5 Z"/></g>
<g><path style="opacity:1" fill="#ec7978" d="M 169.5,149.5 C 168.833,151.5 168.167,153.5 167.5,155.5C 167.192,153.076 167.526,150.743 168.5,148.5C 169.107,148.624 169.44,148.957 169.5,149.5 Z"/></g>
<g><path style="opacity:1" fill="#f09897" d="M 171.5,149.5 C 171.56,148.957 171.893,148.624 172.5,148.5C 173.803,151.645 173.803,154.645 172.5,157.5C 172.806,154.615 172.473,151.948 171.5,149.5 Z"/></g>
<g><path style="opacity:1" fill="#e02e29" d="M 26.5,148.5 C 27.1667,148.5 27.8333,148.5 28.5,148.5C 28.5,148.833 28.5,149.167 28.5,149.5C 28.5,150.5 28.5,151.5 28.5,152.5C 26.1667,152.5 23.8333,152.5 21.5,152.5C 20.7048,153.528 20.0382,155.194 19.5,157.5C 19.5,155.833 19.5,154.167 19.5,152.5C 13.6761,152.347 13.3428,153.013 18.5,154.5C 16.9547,155.452 15.288,155.785 13.5,155.5C 13.5,154.5 13.5,153.5 13.5,152.5C 10.5,152.5 7.5,152.5 4.5,152.5C 4.5,151.833 4.5,151.167 4.5,150.5C 12.2428,151.13 19.5762,150.463 26.5,148.5 Z"/></g>
<g><path style="opacity:1" fill="#e1342d" d="M 60.5,148.5 C 61.1667,148.833 61.8333,149.167 62.5,149.5C 62.5,150.5 62.5,151.5 62.5,152.5C 60.1667,152.5 57.8333,152.5 55.5,152.5C 54.7048,153.528 54.0382,155.194 53.5,157.5C 53.5,155.833 53.5,154.167 53.5,152.5C 48.9593,152.331 48.626,152.998 52.5,154.5C 50.9547,155.452 49.288,155.785 47.5,155.5C 47.5,154.5 47.5,153.5 47.5,152.5C 44.5,152.5 41.5,152.5 38.5,152.5C 38.5,151.833 38.5,151.167 38.5,150.5C 46.2428,151.13 53.5762,150.463 60.5,148.5 Z"/></g>
<g><path style="opacity:1" fill="#e1362e" d="M 72.5,150.5 C 79.8333,150.5 87.1667,150.5 94.5,150.5C 94.8417,151.338 95.5084,151.672 96.5,151.5C 94.3926,152.468 92.0593,152.802 89.5,152.5C 88.7048,153.528 88.0382,155.194 87.5,157.5C 87.5,155.833 87.5,154.167 87.5,152.5C 82.9593,152.331 82.626,152.998 86.5,154.5C 84.9547,155.452 83.288,155.785 81.5,155.5C 81.5,154.5 81.5,153.5 81.5,152.5C 78.5,152.5 75.5,152.5 72.5,152.5C 72.5,151.833 72.5,151.167 72.5,150.5 Z"/></g>
<g><path style="opacity:1" fill="#e1322b" d="M 276.5,150.5 C 284.167,150.5 291.833,150.5 299.5,150.5C 299.5,151.167 299.833,151.5 300.5,151.5C 298.393,152.468 296.059,152.802 293.5,152.5C 293.167,151.167 292.833,151.167 292.5,152.5C 290.801,152.34 289.134,152.506 287.5,153C 288.624,153.249 289.624,153.749 290.5,154.5C 288.955,155.452 287.288,155.785 285.5,155.5C 285.5,154.5 285.5,153.5 285.5,152.5C 282.833,152.5 280.167,152.5 277.5,152.5C 277.5,154.167 277.5,155.833 277.5,157.5C 276.532,155.393 276.198,153.059 276.5,150.5 Z"/></g>
<g><path style="opacity:1" fill="#e23730" d="M 310.5,150.5 C 318.167,150.5 325.833,150.5 333.5,150.5C 333.5,151.167 333.833,151.5 334.5,151.5C 332.735,152.461 330.735,152.795 328.5,152.5C 328.5,154.167 328.5,155.833 328.5,157.5C 327.962,155.194 327.295,153.528 326.5,152.5C 324.801,152.34 323.134,152.506 321.5,153C 322.624,153.249 323.624,153.749 324.5,154.5C 322.955,155.452 321.288,155.785 319.5,155.5C 319.5,154.5 319.5,153.5 319.5,152.5C 316.833,152.5 314.167,152.5 311.5,152.5C 311.5,154.167 311.5,155.833 311.5,157.5C 310.532,155.393 310.198,153.059 310.5,150.5 Z"/></g>
<g><path style="opacity:1" fill="#e0312b" d="M 344.5,150.5 C 352.167,150.5 359.833,150.5 367.5,150.5C 367.5,151.167 367.833,151.5 368.5,151.5C 366.735,152.461 364.735,152.795 362.5,152.5C 362.5,154.167 362.5,155.833 362.5,157.5C 361.962,155.194 361.295,153.528 360.5,152.5C 358.712,152.215 357.045,152.548 355.5,153.5C 356.376,154.251 357.376,154.751 358.5,155C 356.866,155.494 355.199,155.66 353.5,155.5C 353.5,154.5 353.5,153.5 353.5,152.5C 350.833,152.5 348.167,152.5 345.5,152.5C 345.5,154.167 345.5,155.833 345.5,157.5C 344.532,155.393 344.198,153.059 344.5,150.5 Z"/></g>
<g><path style="opacity:1" fill="#fcdede" d="M 167.5,155.5 C 168.167,153.5 168.833,151.5 169.5,149.5C 170.167,157.5 170.833,157.5 171.5,149.5C 172.473,151.948 172.806,154.615 172.5,157.5C 169.833,157.5 167.167,157.5 164.5,157.5C 164.5,156.5 164.5,155.5 164.5,154.5C 162.801,154.34 161.134,154.506 159.5,155C 160.624,155.249 161.624,155.749 162.5,156.5C 160.955,157.452 159.288,157.785 157.5,157.5C 157.5,155.833 157.5,154.167 157.5,152.5C 159.833,152.5 162.167,152.5 164.5,152.5C 164.238,151.022 164.571,149.689 165.5,148.5C 166.168,150.969 166.835,153.302 167.5,155.5 Z"/></g>
<g><path style="opacity:1" fill="#fce2e2" d="M 4.5,152.5 C 7.5,152.5 10.5,152.5 13.5,152.5C 13.5,153.5 13.5,154.5 13.5,155.5C 15.288,155.785 16.9547,155.452 18.5,154.5C 13.3428,153.013 13.6761,152.347 19.5,152.5C 19.5,154.167 19.5,155.833 19.5,157.5C 16.8333,157.5 14.1667,157.5 11.5,157.5C 11.5,156.5 11.5,155.5 11.5,154.5C 9.83333,154.5 8.16667,154.5 6.5,154.5C 6.71901,155.675 6.38568,156.675 5.5,157.5C 4.54811,155.955 4.21478,154.288 4.5,152.5 Z"/></g>
<g><path style="opacity:1" fill="#fce2e1" d="M 35.5,149.5 C 36.4731,151.948 36.8064,154.615 36.5,157.5C 33.8333,157.5 31.1667,157.5 28.5,157.5C 28.5,156.5 28.5,155.5 28.5,154.5C 26.8008,154.34 25.1341,154.506 23.5,155C 24.624,155.249 25.624,155.749 26.5,156.5C 24.9547,157.452 23.288,157.785 21.5,157.5C 21.5,155.833 21.5,154.167 21.5,152.5C 23.8333,152.5 26.1667,152.5 28.5,152.5C 28.5,151.5 28.5,150.5 28.5,149.5C 29.1667,151.5 29.8333,153.5 30.5,155.5C 31.1653,153.302 31.8319,150.969 32.5,148.5C 33.1667,150.833 33.8333,153.167 34.5,155.5C 35.4656,153.604 35.7989,151.604 35.5,149.5 Z"/></g>
<g><path style="opacity:1" fill="#fbdddd" d="M 38.5,152.5 C 41.5,152.5 44.5,152.5 47.5,152.5C 47.5,153.5 47.5,154.5 47.5,155.5C 49.288,155.785 50.9547,155.452 52.5,154.5C 48.626,152.998 48.9593,152.331 53.5,152.5C 53.5,154.167 53.5,155.833 53.5,157.5C 50.8333,157.5 48.1667,157.5 45.5,157.5C 45.5,156.5 45.5,155.5 45.5,154.5C 43.8333,154.5 42.1667,154.5 40.5,154.5C 40.719,155.675 40.3857,156.675 39.5,157.5C 38.5481,155.955 38.2148,154.288 38.5,152.5 Z"/></g>
<g><path style="opacity:1" fill="#fbd9d8" d="M 69.5,149.5 C 70.4731,151.948 70.8064,154.615 70.5,157.5C 67.8333,157.5 65.1667,157.5 62.5,157.5C 62.5,156.5 62.5,155.5 62.5,154.5C 60.8008,154.34 59.1341,154.506 57.5,155C 58.624,155.249 59.624,155.749 60.5,156.5C 58.9547,157.452 57.288,157.785 55.5,157.5C 55.5,155.833 55.5,154.167 55.5,152.5C 57.8333,152.5 60.1667,152.5 62.5,152.5C 62.5,151.5 62.5,150.5 62.5,149.5C 62.56,148.957 62.8933,148.624 63.5,148.5C 64.3142,150.766 64.8142,153.1 65,155.5C 65.8618,146.234 67.0285,146.234 68.5,155.5C 69.4656,153.604 69.7989,151.604 69.5,149.5 Z"/></g>
<g><path style="opacity:1" fill="#fbe1e1" d="M 72.5,152.5 C 75.5,152.5 78.5,152.5 81.5,152.5C 81.5,153.5 81.5,154.5 81.5,155.5C 83.288,155.785 84.9547,155.452 86.5,154.5C 82.626,152.998 82.9593,152.331 87.5,152.5C 87.5,154.167 87.5,155.833 87.5,157.5C 84.8333,157.5 82.1667,157.5 79.5,157.5C 79.5,156.5 79.5,155.5 79.5,154.5C 77.8333,154.5 76.1667,154.5 74.5,154.5C 74.719,155.675 74.3857,156.675 73.5,157.5C 72.5481,155.955 72.2148,154.288 72.5,152.5 Z"/></g>
<g><path style="opacity:1" fill="#fce1e0" d="M 99.5,155.5 C 100.167,153.5 100.833,151.5 101.5,149.5C 102.167,157.5 102.833,157.5 103.5,149.5C 104.473,151.948 104.806,154.615 104.5,157.5C 101.833,157.5 99.1667,157.5 96.5,157.5C 96.5,156.5 96.5,155.5 96.5,154.5C 94.8008,154.34 93.1341,154.506 91.5,155C 92.624,155.249 93.624,155.749 94.5,156.5C 92.9547,157.452 91.288,157.785 89.5,157.5C 89.5,155.833 89.5,154.167 89.5,152.5C 92.0593,152.802 94.3926,152.468 96.5,151.5C 96.281,150.325 96.6143,149.325 97.5,148.5C 98.1681,150.969 98.8347,153.302 99.5,155.5 Z"/></g>
<g><path style="opacity:1" fill="#fbdad9" d="M 106.5,152.5 C 109.5,152.5 112.5,152.5 115.5,152.5C 115.5,153.5 115.5,154.5 115.5,155.5C 117.288,155.785 118.955,155.452 120.5,154.5C 119.624,153.749 118.624,153.249 117.5,153C 119.134,152.506 120.801,152.34 122.5,152.5C 122.5,154.167 122.5,155.833 122.5,157.5C 119.5,157.5 116.5,157.5 113.5,157.5C 113.5,156.5 113.5,155.5 113.5,154.5C 111.833,154.5 110.167,154.5 108.5,154.5C 108.719,155.675 108.386,156.675 107.5,157.5C 106.548,155.955 106.215,154.288 106.5,152.5 Z"/></g>
<g><path style="opacity:1" fill="#fbdfdf" d="M 133.5,155.5 C 134.167,153.5 134.833,151.5 135.5,149.5C 136.167,157.5 136.833,157.5 137.5,149.5C 138.473,151.948 138.806,154.615 138.5,157.5C 135.833,157.5 133.167,157.5 130.5,157.5C 130.5,156.5 130.5,155.5 130.5,154.5C 128.801,154.34 127.134,154.506 125.5,155C 126.624,155.249 127.624,155.749 128.5,156.5C 126.955,157.452 125.288,157.785 123.5,157.5C 123.5,155.833 123.5,154.167 123.5,152.5C 125.833,152.5 128.167,152.5 130.5,152.5C 130.238,151.022 130.571,149.689 131.5,148.5C 132.168,150.969 132.835,153.302 133.5,155.5 Z"/></g>
<g><path style="opacity:1" fill="#fbdbda" d="M 140.5,152.5 C 143.5,152.5 146.5,152.5 149.5,152.5C 149.5,153.5 149.5,154.5 149.5,155.5C 151.288,155.785 152.955,155.452 154.5,154.5C 153.624,153.749 152.624,153.249 151.5,153C 153.134,152.506 154.801,152.34 156.5,152.5C 156.5,154.167 156.5,155.833 156.5,157.5C 153.5,157.5 150.5,157.5 147.5,157.5C 147.5,156.5 147.5,155.5 147.5,154.5C 145.833,154.5 144.167,154.5 142.5,154.5C 142.719,155.675 142.386,156.675 141.5,157.5C 140.548,155.955 140.215,154.288 140.5,152.5 Z"/></g>
<g><path style="opacity:1" fill="#f28782" d="M 144.5,155.5 C 146.337,155.639 146.67,156.306 145.5,157.5C 144.702,157.043 144.369,156.376 144.5,155.5 Z"/></g>
<g><path style="opacity:1" fill="#fbdcdb" d="M 174.5,152.5 C 177.5,152.5 180.5,152.5 183.5,152.5C 183.5,153.5 183.5,154.5 183.5,155.5C 185.288,155.785 186.955,155.452 188.5,154.5C 187.624,153.749 186.624,153.249 185.5,153C 187.134,152.506 188.801,152.34 190.5,152.5C 190.5,154.167 190.5,155.833 190.5,157.5C 187.5,157.5 184.5,157.5 181.5,157.5C 181.5,156.5 181.5,155.5 181.5,154.5C 179.833,154.5 178.167,154.5 176.5,154.5C 176.719,155.675 176.386,156.675 175.5,157.5C 174.548,155.955 174.215,154.288 174.5,152.5 Z"/></g>
<g><path style="opacity:1" fill="#f38d89" d="M 178.5,155.5 C 180.337,155.639 180.67,156.306 179.5,157.5C 178.702,157.043 178.369,156.376 178.5,155.5 Z"/></g>
<g><path style="opacity:1" fill="#fbdcdb" d="M 201.5,155.5 C 202.167,153.5 202.833,151.5 203.5,149.5C 203.201,151.604 203.534,153.604 204.5,155.5C 205.167,153.167 205.833,150.833 206.5,148.5C 207.484,151.428 207.817,154.428 207.5,157.5C 204.5,157.5 201.5,157.5 198.5,157.5C 198.5,156.5 198.5,155.5 198.5,154.5C 196.801,154.34 195.134,154.506 193.5,155C 194.624,155.249 195.624,155.749 196.5,156.5C 194.955,157.452 193.288,157.785 191.5,157.5C 191.5,155.833 191.5,154.167 191.5,152.5C 193.833,152.5 196.167,152.5 198.5,152.5C 198.238,151.022 198.571,149.689 199.5,148.5C 200.168,150.969 200.835,153.302 201.5,155.5 Z"/></g>
<g><path style="opacity:1" fill="#ea706f" d="M 203.5,149.5 C 202.833,151.5 202.167,153.5 201.5,155.5C 201.192,153.076 201.526,150.743 202.5,148.5C 203.107,148.624 203.44,148.957 203.5,149.5 Z"/></g>
<g><path style="opacity:1" fill="#fbdddc" d="M 208.5,152.5 C 211.5,152.5 214.5,152.5 217.5,152.5C 217.5,153.5 217.5,154.5 217.5,155.5C 219.288,155.785 220.955,155.452 222.5,154.5C 221.624,153.749 220.624,153.249 219.5,153C 221.134,152.506 222.801,152.34 224.5,152.5C 224.5,154.167 224.5,155.833 224.5,157.5C 221.5,157.5 218.5,157.5 215.5,157.5C 215.5,156.5 215.5,155.5 215.5,154.5C 213.833,154.5 212.167,154.5 210.5,154.5C 210.719,155.675 210.386,156.675 209.5,157.5C 208.548,155.955 208.215,154.288 208.5,152.5 Z"/></g>
<g><path style="opacity:1" fill="#f39390" d="M 212.5,155.5 C 214.337,155.639 214.67,156.306 213.5,157.5C 212.702,157.043 212.369,156.376 212.5,155.5 Z"/></g>
<g><path style="opacity:1" fill="#fbdcdc" d="M 235.5,155.5 C 236.309,153.708 236.809,151.708 237,149.5C 237.191,151.708 237.691,153.708 238.5,155.5C 239.165,153.302 239.832,150.969 240.5,148.5C 241.484,151.428 241.817,154.428 241.5,157.5C 238.5,157.5 235.5,157.5 232.5,157.5C 232.5,156.5 232.5,155.5 232.5,154.5C 230.801,154.34 229.134,154.506 227.5,155C 228.624,155.249 229.624,155.749 230.5,156.5C 228.955,157.452 227.288,157.785 225.5,157.5C 225.5,155.833 225.5,154.167 225.5,152.5C 227.833,152.5 230.167,152.5 232.5,152.5C 232.238,151.022 232.571,149.689 233.5,148.5C 234.168,150.969 234.835,153.302 235.5,155.5 Z"/></g>
<g><path style="opacity:1" fill="#e85e5c" d="M 238.5,155.5 C 237.691,153.708 237.191,151.708 237,149.5C 236.809,151.708 236.309,153.708 235.5,155.5C 235.5,153.167 235.5,150.833 235.5,148.5C 236.5,148.5 237.5,148.5 238.5,148.5C 238.5,150.833 238.5,153.167 238.5,155.5 Z"/></g>
<g><path style="opacity:1" fill="#fbdddd" d="M 242.5,152.5 C 245.5,152.5 248.5,152.5 251.5,152.5C 251.5,153.5 251.5,154.5 251.5,155.5C 253.288,155.785 254.955,155.452 256.5,154.5C 255.624,153.749 254.624,153.249 253.5,153C 255.134,152.506 256.801,152.34 258.5,152.5C 258.5,154.167 258.5,155.833 258.5,157.5C 255.5,157.5 252.5,157.5 249.5,157.5C 249.5,156.5 249.5,155.5 249.5,154.5C 247.833,154.5 246.167,154.5 244.5,154.5C 244.719,155.675 244.386,156.675 243.5,157.5C 242.548,155.955 242.215,154.288 242.5,152.5 Z"/></g>
<g><path style="opacity:1" fill="#f39996" d="M 246.5,155.5 C 248.337,155.639 248.67,156.306 247.5,157.5C 246.702,157.043 246.369,156.376 246.5,155.5 Z"/></g>
<g><path style="opacity:1" fill="#fbdad9" d="M 266.5,148.5 C 268.062,150.372 269.062,152.705 269.5,155.5C 270.308,153.577 270.808,151.577 271,149.5C 271.192,151.577 271.692,153.577 272.5,155.5C 273.167,153.167 273.833,150.833 274.5,148.5C 275.484,151.428 275.817,154.428 275.5,157.5C 272.5,157.5 269.5,157.5 266.5,157.5C 266.5,156.5 266.5,155.5 266.5,154.5C 260.676,154.347 260.343,155.013 265.5,156.5C 263.604,157.466 261.604,157.799 259.5,157.5C 259.5,155.833 259.5,154.167 259.5,152.5C 261.833,152.5 264.167,152.5 266.5,152.5C 266.5,151.167 266.5,149.833 266.5,148.5 Z"/></g>
<g><path style="opacity:1" fill="#fce5e5" d="M 292.5,152.5 C 292.5,154.167 292.5,155.833 292.5,157.5C 289.5,157.5 286.5,157.5 283.5,157.5C 283.5,156.167 283.5,154.833 283.5,153.5C 281.833,153.5 280.167,153.5 278.5,153.5C 278.768,155.099 278.434,156.432 277.5,157.5C 277.5,155.833 277.5,154.167 277.5,152.5C 280.167,152.5 282.833,152.5 285.5,152.5C 285.5,153.5 285.5,154.5 285.5,155.5C 287.288,155.785 288.955,155.452 290.5,154.5C 289.624,153.749 288.624,153.249 287.5,153C 289.134,152.506 290.801,152.34 292.5,152.5 Z"/></g>
<g><path style="opacity:1" fill="#fbdada" d="M 293.5,152.5 C 296.059,152.802 298.393,152.468 300.5,151.5C 300.281,150.325 300.614,149.325 301.5,148.5C 302.167,150.833 302.833,153.167 303.5,155.5C 304.308,153.577 304.808,151.577 305,149.5C 305.192,151.577 305.692,153.577 306.5,155.5C 307.167,153.167 307.833,150.833 308.5,148.5C 309.484,151.428 309.817,154.428 309.5,157.5C 306.5,157.5 303.5,157.5 300.5,157.5C 300.5,156.5 300.5,155.5 300.5,154.5C 294.676,154.347 294.343,155.013 299.5,156.5C 297.604,157.466 295.604,157.799 293.5,157.5C 293.5,155.833 293.5,154.167 293.5,152.5 Z"/></g>
<g><path style="opacity:1" fill="#fbe4e4" d="M 326.5,152.5 C 326.5,154.167 326.5,155.833 326.5,157.5C 323.5,157.5 320.5,157.5 317.5,157.5C 317.5,156.167 317.5,154.833 317.5,153.5C 315.833,153.5 314.167,153.5 312.5,153.5C 312.768,155.099 312.434,156.432 311.5,157.5C 311.5,155.833 311.5,154.167 311.5,152.5C 314.167,152.5 316.833,152.5 319.5,152.5C 319.5,153.5 319.5,154.5 319.5,155.5C 321.288,155.785 322.955,155.452 324.5,154.5C 323.624,153.749 322.624,153.249 321.5,153C 323.134,152.506 324.801,152.34 326.5,152.5 Z"/></g>
<g><path style="opacity:1" fill="#fbdcdb" d="M 337.5,155.5 C 338.309,153.708 338.809,151.708 339,149.5C 339.191,151.708 339.691,153.708 340.5,155.5C 341.165,153.302 341.832,150.969 342.5,148.5C 343.484,151.428 343.817,154.428 343.5,157.5C 340.5,157.5 337.5,157.5 334.5,157.5C 334.5,156.5 334.5,155.5 334.5,154.5C 328.676,154.347 328.343,155.013 333.5,156.5C 331.955,157.452 330.288,157.785 328.5,157.5C 328.5,155.833 328.5,154.167 328.5,152.5C 330.735,152.795 332.735,152.461 334.5,151.5C 334.281,150.325 334.614,149.325 335.5,148.5C 336.168,150.969 336.835,153.302 337.5,155.5 Z"/></g>
<g><path style="opacity:1" fill="#e9615e" d="M 340.5,155.5 C 339.691,153.708 339.191,151.708 339,149.5C 338.809,151.708 338.309,153.708 337.5,155.5C 337.5,153.167 337.5,150.833 337.5,148.5C 338.5,148.5 339.5,148.5 340.5,148.5C 340.5,150.833 340.5,153.167 340.5,155.5 Z"/></g>
<g><path style="opacity:1" fill="#fbe0df" d="M 360.5,152.5 C 360.5,154.167 360.5,155.833 360.5,157.5C 357.5,157.5 354.5,157.5 351.5,157.5C 351.5,156.167 351.5,154.833 351.5,153.5C 349.833,153.5 348.167,153.5 346.5,153.5C 346.768,155.099 346.434,156.432 345.5,157.5C 345.5,155.833 345.5,154.167 345.5,152.5C 348.167,152.5 350.833,152.5 353.5,152.5C 353.5,153.5 353.5,154.5 353.5,155.5C 355.199,155.66 356.866,155.494 358.5,155C 357.376,154.751 356.376,154.251 355.5,153.5C 357.045,152.548 358.712,152.215 360.5,152.5 Z"/></g>
<g><path style="opacity:1" fill="#fbdbdb" d="M 372.5,149.5 C 373.167,151.5 373.833,153.5 374.5,155.5C 375.165,153.302 375.832,150.969 376.5,148.5C 377.484,151.428 377.817,154.428 377.5,157.5C 374.5,157.5 371.5,157.5 368.5,157.5C 368.5,156.5 368.5,155.5 368.5,154.5C 362.676,154.347 362.343,155.013 367.5,156.5C 365.955,157.452 364.288,157.785 362.5,157.5C 362.5,155.833 362.5,154.167 362.5,152.5C 364.735,152.795 366.735,152.461 368.5,151.5C 368.281,150.325 368.614,149.325 369.5,148.5C 370.167,150.833 370.833,153.167 371.5,155.5C 372.466,153.604 372.799,151.604 372.5,149.5 Z"/></g>
<g><path style="opacity:1" fill="#eb7877" d="M 372.5,149.5 C 372.56,148.957 372.893,148.624 373.5,148.5C 374.474,150.743 374.808,153.076 374.5,155.5C 373.833,153.5 373.167,151.5 372.5,149.5 Z"/></g>
</svg>
